<?xml version="1.0" encoding="UTF-8"?>
<svg id="Camada_1" xmlns="http://www.w3.org/2000/svg" version="1.1" viewBox="0 0 21 20">
  <!-- Generator: Adobe Illustrator 30.3.0, SVG Export Plug-In . SVG Version: 2.1.3 Build 182)  -->
  <defs>
    <style>
      .st0 {
        fill: #4395fd;
      }
    </style>
  </defs>
  <path class="st0" d="M.75,13.7c-.72.41-.96,1.33-.55,2.05.41.72,1.33.96,2.05.55l-1.5-2.6ZM20.27,5.38c.21-.8-.26-1.62-1.06-1.84L6.17.05c-.8-.21-1.62.26-1.84,1.06-.21.8.26,1.62,1.06,1.84l11.59,3.11-3.11,11.59c-.21.8.26,1.62,1.06,1.84.8.21,1.62-.26,1.84-1.06l3.49-13.04ZM2.25,16.29L19.57,6.29l-1.5-2.6L.75,13.7l1.5,2.6Z"/>
</svg>