<?xml version="1.0" encoding="UTF-8"?>
<svg id="Camada_1" xmlns="http://www.w3.org/2000/svg" version="1.1" viewBox="0 0 692 649">
  <!-- Generator: Adobe Illustrator 30.3.0, SVG Export Plug-In . SVG Version: 2.1.3 Build 182)  -->
  <defs>
    <style>
      .st0 {
        stroke-width: 3.59px;
      }

      .st0, .st1, .st2, .st3 {
        stroke: #002794;
        stroke-linecap: round;
        stroke-linejoin: round;
      }

      .st0, .st1, .st3 {
        fill: none;
      }

      .st4, .st2 {
        fill: #fff;
      }

      .st1 {
        stroke-width: 2.87px;
      }

      .st2, .st3 {
        stroke-width: 7.18px;
      }

      .st5 {
        fill: #4395fd;
      }

      .st6 {
        fill: #a0adda;
      }
    </style>
  </defs>
  <g>
    <path class="st1" d="M383.63,498.73l-34.2,19.74M361.6,525.51l34.19-19.74M373.76,532.53l34.19-19.75M420.12,519.81l-34.2,19.74M432.28,526.82l-34.2,19.74M410.25,553.59l34.2-19.74M422.4,560.62l34.19-19.75M468.78,547.89l-34.2,19.75M446.73,574.65l34.19-19.74M493.08,561.92l-34.19,19.77M505.27,568.96l-34.22,19.74M483.21,595.71l34.2-19.74M495.38,602.75l34.2-19.74M541.74,590.02l-34.19,19.74M553.91,597.05l-34.19,19.74M566.09,604.07l-34.19,19.74M371.46,491.7l-34.2,19.74M359.29,484.68l-34.19,19.74M347.11,477.65l-34.19,19.74M286.29,442.54l-34.19,19.74M264.26,469.32l34.2-19.74M276.44,476.34l34.19-19.75M322.78,463.62l-34.19,19.74M334.95,470.62l-34.2,19.74M274.12,435.51l-34.19,19.74M261.96,428.49l-34.2,19.74M249.79,421.46l-34.19,19.74"/>
    <g>
      <g>
        <path class="st2" d="M564.94,324.84v189.53c0,10.24-7.18,22.7-16.03,27.82-4.42,2.56-8.44,2.8-11.33,1.12l-315.73-182.28v-.03c-2.97-1.64-4.82-5.24-4.82-10.46v-189.52c0-10.24,7.17-22.7,16.03-27.82,4.45-2.55,8.46-2.78,11.37-1.08h0s315.82,182.33,315.82,182.33c2.9,1.68,4.7,5.29,4.7,10.4Z"/>
        <path class="st2" d="M532.87,343.36c.01-10.24,7.19-22.69,16.04-27.81h0c8.85-5.12,16.03-.95,16.03,9.28v189.53c0,10.24-7.18,22.7-16.03,27.82h0c-8.85,5.11-16.03.96-16.03-9.3v-189.52Z"/>
      </g>
      <path class="st2" d="M532.88,532.89h-.01l-157.93-235.97-157.93,53.6h.01c0,5.22,1.85,8.83,4.84,10.47v.03s315.72,182.28,315.72,182.28c1.09.63,2.38.9,3.76.96-5.01-.23-8.46-4.32-8.46-11.37Z"/>
      <path class="st2" d="M560.24,314.44L244.42,132.1h0c-2.92-1.69-6.93-1.46-11.37,1.09-8.86,5.12-16.03,17.58-16.04,27.82l157.93,235.98,157.93-53.62c.01-10.24,7.19-22.69,16.04-27.81,4.54-2.63,8.65-2.78,11.57-.93-.08-.04-.15-.13-.24-.18Z"/>
      <line class="st0" x1="543.93" y1="343.28" x2="543.93" y2="508.71"/>
      <path class="st0" d="M226.6,138.53l252.43,145.79M494.81,293.43l21.72,12.55"/>
    </g>
  </g>
  <g>
    <path class="st1" d="M156.09,504.61l-43.46,25.09M190.75,498.65l-88.47,51.07M102.6,563.58l112.14-64.75M234.38,501.53l-127.09,73.38M251.07,505.95l-136.12,78.59M265.36,511.73l-140.39,81.06M277.53,518.77l-140.4,81.05M151.43,605.61l136.12-78.59M295.2,536.65l-127.09,73.38M187.74,612.74l112.14-64.75M211.73,612.92l88.46-51.07M289.84,581.87l-43.4,25.06"/>
    <g>
      <path class="st2" d="M152.99,270.37c-5.71-9.88-18.34-13.27-28.23-7.57-9.89,5.71-13.27,18.35-7.56,28.23,5.71,9.88,18.34,13.27,28.23,7.57,9.87-5.71,13.27-18.35,7.56-28.23Z"/>
      <path class="st4" d="M334.69,406.69l-8.55-14.84c-16.37-28.33-43-14.51-59.58-43.28l-22.31-38.63c-22.06-38.21-70.93-51.3-109.14-29.24-38.21,22.06-51.31,70.92-29.25,109.14l22.31,38.63c16.6,28.76-8.67,44.91,7.68,73.24l8.57,14.84c8.9,15.43,58.73,3.35,111.27-26.99,52.55-30.33,87.93-67.44,79.01-82.87Z"/>
      <path class="st5" d="M144.41,516.54c8.9,15.43,58.73,3.35,111.27-26.99,37.89-21.88,66.75-47.23,76.62-65.48l-6.16-10.69c-16.37-28.33-43-14.51-59.58-43.28l-22.31-38.63c-22.06-38.21-70.93-51.3-109.14-29.24-22.32,12.88-35.98,34.92-39.17,58.62,1.37,9.92,4.6,19.76,9.91,28.97l22.31,38.63c7.35,12.73,6.49,22.98,4.68,32.92,2.74,10.8.22,20-1.51,29.41.89,3.46,2.3,7.07,4.52,10.91l8.57,14.84Z"/>
      <path class="st3" d="M334.69,406.69l-8.55-14.84c-16.37-28.33-43-14.51-59.58-43.28l-22.31-38.63c-22.06-38.21-70.93-51.3-109.14-29.24-38.21,22.06-51.31,70.92-29.25,109.14l22.31,38.63c16.6,28.76-8.67,44.91,7.68,73.24l8.57,14.84c8.9,15.43,58.73,3.35,111.27-26.99,52.55-30.33,87.93-67.44,79.01-82.87Z"/>
      <path class="st2" d="M334.69,406.69c8.92,15.43-26.46,52.54-79.01,82.87-52.54,30.34-102.37,42.42-111.27,26.99-8.92-15.44,26.46-52.54,79.01-82.88,52.54-30.33,102.37-42.41,111.27-26.97Z"/>
      <path class="st0" d="M133.93,454.02c1.79-14.68,28.45-40.27,65.59-61.72,12.37-7.13,24.54-13.03,35.79-17.52M257.93,367.36c-3.62.88-7.43,2-11.43,3.32"/>
      <path class="st2" d="M241.22,464.52c16.52-9.54,22.38-30.27,13.76-47.06-10.2,4.61-20.81,10.01-31.57,16.2-10.76,6.22-20.74,12.71-29.83,19.24,10.24,15.86,31.12,21.15,47.64,11.62Z"/>
      <path class="st0" d="M326.13,391.85c-8.92-15.43-58.74-3.35-111.29,26.98-52.53,30.34-87.91,67.45-79.01,82.88"/>
    </g>
  </g>
  <g>
    <path class="st2" d="M442.79,279.27V117.41c0-13.81-9.73-30.63-21.71-37.55l-110.18-63.6c-11.99-6.93-21.71-1.35-21.71,12.47v161.86c0,13.83,9.72,30.65,21.71,37.58l110.18,63.6c11.98,6.92,21.71,1.34,21.71-12.5Z"/>
    <path class="st0" d="M392.42,196.42l12.38,7.16M327.19,158.77l51.76,29.88M327.19,173.1l39.38,22.73M327.19,187.42l58.03,33.5"/>
    <path class="st6" d="M396.03,124.75c0-11.2-7.88-24.81-17.6-30.42-9.72-5.61-17.59-1.08-17.59,10.11s7.87,24.82,17.59,30.42c9.72,5.62,17.6,1.09,17.6-10.11Z"/>
    <path class="st0" d="M383.59,131.93c0-11.2-7.87-24.81-17.59-30.42-9.72-5.61-17.6-1.08-17.6,10.11s7.88,24.82,17.6,30.42c9.72,5.62,17.59,1.09,17.59-10.11Z"/>
  </g>
</svg>