<?xml version="1.0" encoding="UTF-8"?>
<svg id="Camada_1" xmlns="http://www.w3.org/2000/svg" version="1.1" viewBox="0 0 494 395">
  <!-- Generator: Adobe Illustrator 30.3.0, SVG Export Plug-In . SVG Version: 2.1.3 Build 182)  -->
  <defs>
    <style>
      .st0 {
        fill: #f5eede;
      }

      .st1 {
        fill: #949594;
      }

      .st2 {
        fill: #040505;
      }

      .st3 {
        fill: #e9f4ff;
      }

      .st4 {
        fill: #fcfcfc;
      }

      .st5 {
        fill: #070706;
      }

      .st6 {
        fill: #090302;
      }

      .st7 {
        fill: #020202;
      }

      .st8 {
        fill: #b8b7b8;
      }

      .st9 {
        fill: #060504;
      }

      .st10 {
        fill: #f29ca8;
      }

      .st11 {
        fill: #050505;
      }

      .st12 {
        fill: #060606;
      }

      .st13 {
        fill: #996b3a;
      }

      .st14 {
        fill: #020606;
      }

      .st15 {
        fill: #030304;
      }

      .st16 {
        fill: #e2e2e2;
      }

      .st17 {
        fill: #f1d6b7;
      }

      .st18 {
        fill: #4395fd;
      }

      .st19 {
        fill: #080201;
      }

      .st20 {
        fill: #0a0907;
      }

      .st21 {
        fill: #030403;
      }

      .st22 {
        fill: #050504;
      }

      .st23 {
        fill: #020506;
      }

      .st24 {
        fill: #070402;
      }

      .st25 {
        fill: #080302;
      }

      .st26 {
        fill: #030303;
      }

      .st27 {
        fill: none;
        stroke: #1c1c1b;
        stroke-linecap: round;
        stroke-linejoin: round;
        stroke-width: 1.92px;
      }

      .st28 {
        fill: #f9d2aa;
      }

      .st29 {
        fill: #080301;
      }

      .st30 {
        fill: #030708;
      }

      .st31 {
        fill: #fefefe;
      }

      .st32 {
        fill: #040404;
      }

      .st33 {
        fill: #090402;
      }

      .st34 {
        fill: #070707;
      }

      .st35 {
        opacity: .48;
      }

      .st36 {
        fill: #81c2fc;
      }

      .st37 {
        fill: #fdfdfd;
      }
    </style>
  </defs>
  <g class="st35">
    <path class="st3" d="M381.6,99.32c-41.36-53.42-121.79-71.09-185.35-57.57-66.02,14.05-128.28,63.47-146.93,129.83-7.37,26.22-2.66,38.29,4.65,64.52,3.53,12.66,8.01,25.3,15.02,36.5,7.14,11.4,16.5,17.16,26.38,25.48,20.86,17.56,44.94,33.19,72.16,38.25,13.24,2.46,26.02,7.42,39.44,8.95,15.12,1.73,24.85-2.79,37.48-10.07,12.06-6.94,27.57-10,40.81-14.84,14.52-5.3,28.86-11.15,42.67-18.11,9.98-5.03,19.77-10.7,27.92-18.36,12.95-12.16,20.28-28.12,27.75-43.99,7.96-16.9,14.68-34.51,18.08-52.93,6.3-34.13-1.59-63.77-20.1-87.67Z"/>
    <path class="st3" d="M323.08,232.7c.32-.28.65-.55.98-.82,12.8-10.63,32.27-23.3,48.7-26.62,16.53-3.35,34.97,1.12,46.59,13.33,9.59,10.08,13.84,24.45,13.53,38.36-.31,13.91-4.8,27.43-10.8,39.99-16.79,35.17-49.27,65.74-88.16,68.18-16.61,1.04-34.21-3.59-45.9-15.44-17.51-17.74-17.42-47.58-5.82-69.65,4.51-8.58,11.86-14.53,17.94-21.78,7.43-8.86,14.12-17.98,22.94-25.54Z"/>
  </g>
  <g>
    <path class="st10" d="M54.73,36.02h69.55c2.07,0,3.75,1.68,3.75,3.75v52.42c0,2.07-1.68,3.75-3.75,3.75H54.73c-2.07,0-3.75-1.68-3.75-3.75v-52.42c0-2.07,1.68-3.75,3.75-3.75Z"/>
    <path class="st18" d="M121.75,87.42h67.51c2.07,0,3.75,1.68,3.75,3.75v52.42c0,2.07-1.68,3.75-3.75,3.75h-67.51c-2.07,0-3.75-1.68-3.75-3.75v-52.42c0-2.07,1.68-3.75,3.75-3.75Z"/>
    <g>
      <polyline class="st27" points="143.65 133.9 157.37 99.37 170.82 133.9"/>
      <line class="st27" x1="147.4" y1="124.32" x2="167.01" y2="124.32"/>
    </g>
    <g>
      <path class="st27" d="M77.1,81.53c12.07-5.43,21.14-17.08,23.43-30.12"/>
      <path class="st27" d="M100.52,81.53c-8.87-3.99-16.12-11.34-20.25-20.13"/>
      <path class="st27" d="M72.25,51.07c0,.13,34.63,0,34.27,0"/>
      <line class="st27" x1="89.47" y1="47.08" x2="89.47" y2="51.14"/>
    </g>
    <path class="st27" d="M118,98.59v-6.1c0-2.8,2.27-5.07,5.07-5.07h6.61"/>
    <path class="st27" d="M50.98,46.58v-6.1c0-2.8,2.27-5.07,5.07-5.07h6.61"/>
  </g>
  <g>
    <path class="st36" d="M322.79,238.41c3.16,2.45,4.71,6.06,6.55,9.4,6.35,11.51,10.31,24,14.14,36.48,4.84,15.78,8.93,31.79,12.82,47.84,2.77,11.44,3.74,22.93.97,34.55-.93,3.9-3.01,7.25-4.56,10.86-.08,1.77-1.58,2.25-2.78,2.83-6.44,3.14-13.24,3.6-19.66.64-11.77-5.43-19.52-14.68-23.54-27.02-.14-.45-.2-.92-.41-1.35-.22-.44-.51-.83-1.05-.77-.56.06-.73.55-.81,1.02-.16.96.15,1.86.41,2.76,1.82,6.19,5.39,11.34,9.59,16.11,1.12,1.27,2.3,2.51,3.6,3.58,2.45,2.03,3.53,4.51,3.19,7.69-.16,1.5.14,2.99.34,4.49.21,1.55.62,3.18-.51,4.61-3.4.79-6.89.97-10.33,1.05-30.57.73-61.16.45-91.74.83-15.52.2-31.01-.59-46.52-.21-3.49.09-6.95-.18-10.39-.69-.67-2.23-.12-4.5.09-6.69.32-3.29.5-6.57.42-9.86-.05-2.06.72-3.53,2.34-4.83,9.82-7.86,18.38-16.97,26.11-26.87,1.82-2.33,3.18-4.9,3.59-7.87.1-.73.3-1.72-.54-2-1.06-.35-1.06.77-1.32,1.41-1.41,3.46-5.29,3.94-7.67.94-.92-1.16-.5-2.14.44-2.96,4.18-3.67,8.49-7.22,13.63-9.47,4.35-1.91,8.52-4,11.73-7.63.67-.76,1.59-1.86,2.57-1.4,1.29.6.97,2.12.79,3.31-.85,5.58-1.9,11.13-2.84,16.7-1.3,7.73,2.23,11.92,10.08,11.94,11.2.03,22.43.45,33.6-.11,13.37-.66,26.72-.21,40.08-.44,2.23-.04,4.28-.53,6.18-1.69,1.09-.66,2.23-1.05,3.46-.35,4.2,2.4,8.89,4.08,11.83,8.31.84,1.21,2.38,2.21,1.69,3.89-.63,1.53-2.29,1.41-3.69,1.52-.8.07-1.69-.07-2.33.84,1.02,1.29,2.4,1.05,3.65.95,3.69-.31,6.89-1.95,9.71-4.21,6.92-5.55,11.07-12.71,12.03-21.61.29-2.66-.04-5.25-.79-7.81-.28-.95-.92-2.1.12-2.87.96-.71,1.98.05,2.9.47,3.96,1.83,7.57,4.15,10.63,7.33.87.91,2.06,3.01,3.2,1.77,1.15-1.24-.88-2.52-1.91-3.5-4.66-4.39-10.12-7.53-16.15-9.59-2.43-.83-3.76-2.23-4.35-4.64-1.14-4.66-2.7-9.22-3.82-13.88-1.23-5.13-4.23-8.42-9.12-10.26-5.97-2.24-5.51-2.06-4.35-8.22,2.57-13.69,4.98-27.41,7.4-41.13.26-1.45.18-3.04,1.34-4.21Z"/>
    <path class="st36" d="M191.58,212.5c2.28-1.68,5.47-1.7,7.42-4.01,1.14-.45,1.98.28,2.88.74,11.26,5.68,23.07,9.68,35.66,10.72,15.43,1.27,30.37-.68,44.22-8.24,1.09-.59,2.12-1.7,3.6-1.07,2.79,1.98,6.06,2.99,9.09,4.49-7.98,6.06-17,9.94-26.59,12.61-1.55.43-3.07.87-4.32,1.98-1.16,1.02-2.61.95-4.02.95-6.59.01-13.18-.01-19.78,0-7.54.02-11.05,3.07-12.33,10.43-.71,4.08-1.3,8.18-2.12,12.24-.43,2.13-1.5,2.81-3.59,2.41-2.86-.54-5.68-1.32-8.63-1.38-2.37-.05-4.4.55-6.31,1.98-6.09,4.59-11.7,9.8-18.23,13.8-1.55.95-2.46,2.55-3.3,4.16-2.76,5.29-4.34,11.03-6.43,16.58-.99,2.64-1.89,5.33-2.7,8.03-1,3.32-2.44,5.65-6.41,6.44-4.22.85-7.8,3.67-11.57,5.79-1.93,1.08-3.72,1.43-5.9.77-3.92-1.19-7.99-1.15-12.05-.95-.75.04-1.5.18-2.22.41-.87.28-2.22.43-2.05,1.53.21,1.33,1.53.69,2.36.55,3.27-.54,6.53-1.02,9.81-.16.85.22,2.15.02,2.25,1.22.09,1.06-1.01,1.5-1.84,1.92-6.06,3.06-11.88,6.54-17.57,10.22-1.01.65-3.03,1.27-2.03,2.72.84,1.22,2.11-.44,3.05-1.04,7.28-4.71,15-8.67,22.58-12.85,3.87-2.14,7.82-4.14,11.66-6.33.66-.37,1.3-.78,2.04-.96,1.59-.39,2.4,0,1.88,1.84-1.84,6.57.34,12.55,3.33,18.12,3.27,6.08,7.8,11.09,14.88,13.03,2.04.56,1.44,1.81.55,3.01-2.2,2.94-4.5,5.82-7.02,8.49-9.32,9.86-18.61,19.8-31.34,25.47-7.19,3.21-14.56,5-22.49,2.93-3.39-.88-6.23-2.6-8.83-4.83-.82-.7-1.85-1.41-1.55-2.78.38-.23.47-.57.29-.95-4.44-9.46-4.06-19.47-2.32-29.26,5.57-31.24,16.71-60.68,30.45-89.13,6.09-12.61,14.06-23.97,26.16-31.78,4.67-3.01,9.65-5.45,14.65-7.83.8-.38,1.61-.48,2.46-.46,9.83,7.79,21.22,12.25,33.18,15.43,1.1.29,2.92,1.48,3.35-.3.32-1.31-1.7-1.43-2.83-1.67-9.85-2.12-18.91-6.16-27.47-11.35-1.54-.93-3.44-1.62-3.96-3.7Z"/>
    <path class="st7" d="M117.61,373.5c5.03,6.39,11.88,8.18,19.58,7.61,6.01-.45,11.59-2.42,16.78-5.43,14.36-8.33,25.06-20.53,35.54-33.33-7.97-1.8-12.88-6.98-16.51-13.38-3.56-6.28-5.7-12.98-3.32-20.42-.65-.29-1.26.32-1.86.64-11.25,6.07-22.61,11.94-33.55,18.57-1.28.78-2.54,1.63-3.69,2.58-.97.8-1.84.99-2.69.02-.93-1.07-.68-2.13.41-2.9,1.53-1.09,3.11-2.12,4.72-3.08,5.01-2.98,9.97-6.05,15.21-8.63.61-.3,1.5-.39,1.72-1.44-4.12-.77-8.19-.86-12.25.05-1.29.29-2.77.96-3.23-.94-.48-1.96,1.17-2.36,2.55-2.63,5.44-1.09,10.88-.88,16.21.62,1.4.4,2.4.28,3.66-.43,3.6-2.04,7.3-3.89,10.98-5.79.66-.34,1.44-.9,2.08-.8,3.93.61,4.26-2.5,5.14-4.91,2.53-6.98,4.92-14.01,7.44-21,1.72-4.79,4.33-8.61,9.06-11.34,4.92-2.84,9.24-6.8,13.6-10.52,3.41-2.9,7.11-3.59,11.31-2.66.55.12,1.11.24,1.67.28,2.01.15,4.37,2.01,5.82.71,1.17-1.05.96-3.67,1.3-5.61.6-3.43,1.01-6.89,1.78-10.28,1.33-5.9,5.22-8.98,11.27-9.05,7.16-.08,14.31-.05,21.47-.09,1.55,0,3.1.19,4.19-1.52.41-.64,1.63-.86,2.53-1.09,9.22-2.29,17.83-5.92,25.6-11.43.73-.52,1.45-.84,2.34-.74.42.41.84.83,1.26,1.24.51,1.35-.3,2.24-1.23,2.86-6.12,4.08-12.51,7.64-19.53,9.95-.53.17-1.09.33-2.01-.04,12.74-.05,25.12-.02,37.51-.02,1.49,0,3.03-.16,4.38.72,4.41,1.22,7.08,4.06,7.96,8.56-2.43,15.99-5.47,31.88-8.47,47.77-.43,2.29-.31,3.69,2.26,4.3,1.53.36,2.93,1.24,4.41,1.85,3.58,1.47,5.7,4.16,6.71,7.83,1.53,5.53,3.13,11.04,4.6,16.58.44,1.67,1.1,2.48,2.96,3.06,7.3,2.26,13.68,6.2,18.95,11.78.87.92,2,2.06.63,3.39-1.62,1.57-2.44.01-3.36-1.01-3.98-4.43-8.96-7.35-14.85-9.93,2.4,5.7,2.35,11.13.75,16.55-2.6,8.82-7.81,15.54-16.22,19.58-2.52,1.21-5.18,1.63-7.96,1.44-1.31-.09-2.24-.75-2.22-2.07.02-1.61,1.28-1.55,2.48-1.45,1.67.14,3.91.58,4.63-.93.59-1.25-1.81-2.11-2.5-3.39-2.49-4.62-7.86-5.19-11.42-8.28-.86-.74-1.38-.06-1.93.4-1.99,1.67-4.31,2.17-6.83,2.18-24.95.15-49.9.37-74.85.48-7.49.03-11.33-4.82-10.03-12.24,1.12-6.39,2.17-12.79,3.23-19.19.06-.36,0-.74,0-1.07-.5-.33-.71,0-.93.29-3.03,4.03-7.08,6.69-11.69,8.56-5.67,2.3-10.38,6.01-15,9.89-1.85,1.55-1.31,2.3.56,2.98.53.19,1.05.41,1.58.6,3.02,1.03,3.3.9,3.74-2.29.18-1.28.2-2.61,1.92-2.48,1.96.15,1.65,1.73,1.56,3.01-.22,3.33-1.86,6.09-3.83,8.64-7.73,10.03-16.32,19.24-26.27,27.1-1.52,1.2-2.01,2.39-2.02,4.22-.04,5.55-.19,11.1-1.32,16.56-2.57.84-3.34.21-3.12-2.62.34-4.47.7-8.94,1.09-13.85-2.73,1.44-4.98,2.74-7.32,3.85-6.93,3.27-14.21,5.14-21.88,4.07-12.04-1.68-19.81-9.74-22.28-22.58-2.04-10.58-.83-21.03,1.42-31.37,5.58-25.64,14.96-49.99,25.46-73.94.41-.95.9-1.87,1.27-2.83.53-1.34,1.23-2.53,2.88-1.81,1.63.71,1.27,1.98.64,3.32-1.63,3.49-3.21,7-4.71,10.55-9.17,21.67-17.23,43.71-22.14,66.78-2.09,9.8-3.16,19.73-.89,29.68.92,4.04,2.3,7.94,5.11,11.15Z"/>
    <path class="st13" d="M187.69,115.08c.08-11.69,3.53-22.58,8.18-33.11,5.78-13.09,14.08-24.29,26.77-31.41,12.71-7.14,26.26-9.22,40.07-3.54,5.06,2.08,9.88,4.3,15.31,5.58,7.57,1.78,12.63,7.58,16.67,13.97,7.16,11.34,10.79,23.83,11.83,37.19.41,5.21,0,10.32-.35,15.47-3.23-.88-6.6-.81-9.87-1.39-1.35-1.26-2.57-2.58-2.09-4.67,2.58-1.66,2.58-1.67.88-4.28-1.91-2.92-3.47-6.02-4.58-9.34-1.77-5.26-3.54-10.51-5.26-15.78-1.2-3.69-2.88-7.14-4.93-10.42-1.61-2.57-2.31-2.61-4.35-.42-3.36-.42-3.38-.43-4.77,3.25-2.93,7.76-7.27,14.58-13.56,20.01-3.39,2.92-7.04,5.57-11.8,5.87-.41-.17-.68-.46-.78-.89.08-1.47,1.35-1.93,2.29-2.64,10.58-7.95,16.93-18.62,20.12-31.32.07-.27.14-.55.16-.83.08-.94.26-2.15-.89-2.36-1.27-.24-1.32,1.08-1.5,1.94-1.65,7.85-4.97,14.96-9.83,21.3-2.98,3.88-6.35,7.43-10.55,10.05-1.87,1.17-2.25,2.34-.53,3.91-.26,1.14-1.27,1.28-2.13,1.5-4.34,1.13-9.65-1.91-10.75-6.1.15-1.33,1.15-2.11,2-2.97,6.48-6.6,11.12-14.4,14.83-22.78.53-1.2,1.67-3.06.05-3.73-1.51-.63-1.76,1.53-2.24,2.62-5.5,12.56-13.22,23.36-24.72,31.11-1.94,1.31-2.1,2.58-1.18,4.4-.18.8-.72,1.36-1.41,1.65-5.35,2.24-10.3,5.36-15.88,7.06-.36.11-.73.14-1.11.14-1.06-.02-1.94-.56-2.9-.92-2.97-1.1-5.81-.81-8.53.84-.81.49-1.41,1.6-2.64,1.04Z"/>
    <path class="st26" d="M187.69,115.08c4.28-3.81,8.9-4.41,13.91-1.51,1.41.81,1.69,2.05.92,3.36-.83,1.41-2.16,1.19-3.49.65-5.39-2.16-9.09-.5-10.24,5.11-1.25,6.11-.22,11.82,4.73,16.25,2.25,2.01,4.76,3.24,7.88,3.29,3.19.04,4.27.88,5.16,3.78,4.75,15.55,15.09,25.9,29.81,32.22,1.54.66,3.26,1.13,3.65,3.14-1.01,2.46-1.81,2.93-4.2,2.12-3.82-1.29-7.37-3.17-11.15-5.44-.2,2.58-.01,4.95-.1,7.3-.56,3.24-.88,6.52-1.99,9.66-2.08,5.88-6.49,9.29-12.03,11.55-.44.18-.88.34-1.32.5-.43.16-.91.23-1.23.62,19.28,10.48,49.27,12.89,69.83,1.65-7.97-2.78-14.51-6.81-15.22-16.22.04-2.26-.09-4.52.01-6.77.09-2.02-.52-2.86-2.62-2.03-1.13.45-2.33.76-3.55.91-1.92.23-3.36-.33-3.7-2.48.33-1.98,1.97-2.37,3.5-2.77,6.1-1.59,11.53-4.52,16.52-8.32,7.05-5.36,11.47-12.6,14.53-20.73,3.52-9.37,5.6-19.11,7.1-28.99.23-1.52-.15-3.52,1.89-4.34,3.37,0,6.91-.93,9.85,1.64,8.17,7.85,4.5,24.12-4.24,29.34-.64.38-1.26.81-1.89,1.21-1.28,1.83-3.34,2.01-5.25,2.23-1.6.19-2.49.78-3.11,2.31-4.46,11.07-11.6,19.89-22.1,25.79-1.49.84-2.05,1.98-2.1,3.66-.06,2.03.56,4.15-.61,6.06.11,7.8,2.45,11.3,9.64,14.08,2.52.98,5.15,1.71,7.74,2.5,2.95.9,3.22,1.84,1.12,4.23-14.44,8.38-30.02,11.61-46.6,10.22-14.16-1.18-27.36-5.54-39.77-12.38-1.7-2.38-1.48-3,1.34-3.67,3.28-.78,6.5-1.72,9.63-3,5.92-2.42,8.98-6.79,9.47-13.09-.85-3.57.37-7.08.34-10.64-.03-2.58-.83-4.34-2.84-6.03-6.63-5.59-11.05-12.78-13.94-20.87-.82-2.29-1.88-3.57-4.37-4.04-2.96-.56-5.64-2-8.11-3.82-1.89-1.39-3.3-3.04-3.92-5.33-2.74-5.53-3.75-11.23-1.9-17.29.64-2.09,1.72-3.89,2.98-5.63Z"/>
    <path class="st13" d="M186.61,137.99c3.62,5.04,8.29,8.37,14.66,8.79,1.18.08,1.32.85,1.55,1.65,2.89,9.72,8.21,17.85,16.02,24.33.75.62,1.37,1.18,1.4,2.28.12,4.59.18,9.18-.8,13.7-1.82-.68-3.13.83-4.75,1.11-6.83,1.19-13.55.72-20.21-1.02,4.21-2.04,7.54-5.06,10.12-8.96,1.36-2.05,2.49-4.19,3.18-6.54.25-.86.88-2.02-.31-2.46-1.22-.45-1.51.82-1.75,1.69-.71,2.58-2.09,4.79-3.58,6.96-1.45,2.12-3.17,4-5.41,5.22-1.63.88-2.51,2.09-2.76,3.85-5.28-.59-10.51-1.42-15.35-3.8.25-.97,1.11-1.2,1.86-1.56,11.48-5.53,15.4-15.51,16.04-27.38.04-.81.39-2.27-.94-2.2-1.12.05-.9,1.45-.96,2.35-.48,6.38-2.04,12.41-5.82,17.72-2.12,2.98-4.75,5.36-8.11,6.79-1.82.77-3.2,1.81-3.89,3.68-3.55-.25-6.24-2.34-9.29-4.16.35-.38.53-.71.81-.85,10.32-5.4,14.98-14.58,17.02-25.49.97-5.18,1.55-10.4,1.27-15.69Z"/>
    <path class="st21" d="M321.06,392.12c-.28-4.13-.64-8.25-.81-12.38-.06-1.36-.87-1.98-1.69-2.73-5.75-5.27-10.48-11.29-13.55-18.52-.74-1.74-1.3-3.53-1.5-5.41-.12-1.15.18-2.16,1.41-2.41,1.39-.28,2,.59,2.27,1.88,2.11,10.15,8.51,17.51,16.23,23.71,9,7.23,19.52,7.89,28.06,2.36.46-.29.83-.72,1.24-1.08,4.67-3.33,6.71-8.28,7.88-13.57,2.46-11.16,1.48-22.29-1.07-33.3-5.76-24.91-12.11-49.67-21.54-73.5-4.91-12.4-11.43-23.73-22.35-31.95-6.63-4.99-13.76-9.15-21.25-12.7-.25-.12-.53-.19-.78-.31-1.13-.52-2.43-1.05-1.83-2.64.63-1.66,1.98-1.46,3.3-.86,20.51,9.25,36.77,22.67,45.35,44.33,8.19,20.69,14.14,42.02,19.62,63.52,3.07,12.05,5.99,24.12,5.58,36.7-.14,4.24-.58,8.44-1.61,12.57-4.36,17.44-21.56,25.2-37.56,16.92-.74-.38-1.48-.78-2.59-1.36.36,3.33.68,6.36,1.02,9.38.14,1.27.2,2.57-1.27,3.07-1.44.49-1.92-.79-2.54-1.7Z"/>
    <path class="st13" d="M266.86,189.83c-.02-.09-.05-.18-.07-.27-.67-5.38.21-9.33,5.84-12.49,9.13-5.12,14.74-13.75,18.5-23.46.58-1.5,1.22-2.27,2.97-2.22,2.09.07,3.95-1.06,5.93-1.62.06,2.22.11,4.45.17,6.67,1.17,2.44.84,5.12,1.19,7.68.91,6.69,3.73,12.49,7.64,17.85.79,1.08,1.98,1.7,3,2.52.79.63,1.79,1.19,1.07,2.48-5.94,3.35-12.49,4.36-19.14,4.99-.32-1.6-.98-2.88-2.37-3.95-3.38-2.59-5.64-5.99-6.64-10.2-.21-.87-.08-2.49-1.62-2.02-1.27.39-.81,1.75-.55,2.72,1.43,5.15,4.02,9.5,8.7,12.37.63.38,1.43.54,1.78,1.3-9.04,1.83-17.93,2.05-26.41-2.36Z"/>
    <path class="st32" d="M178.09,117.76c1.24-15.92,4.47-31.31,11.88-45.55,9.07-17.42,22.27-30.13,41.78-35.2,8.65-2.25,17.3-2.19,25.88.5.63.2,1.23.46,1.85.69,1.28.47,2.23,1.23,1.63,2.73-.6,1.52-1.78,1.41-3.03.81-2.74-1.32-5.67-2.01-8.67-2.29-18.44-1.73-33.15,5.69-45.32,18.88-11.76,12.74-17.32,28.37-20.32,45.11-1.13,6.31-1.8,12.66-1.76,19.08,0,1.53-.16,3.12-1.96,3.15-1.87.03-1.98-1.62-1.96-3.12.03-1.6,0-3.19,0-4.79Z"/>
    <path class="st22" d="M311.9,105.39c0,1.97.08,3.95-.03,5.92-.07,1.39-.6,2.77-2.3,2.59-1.69-.18-1.79-1.54-1.7-2.99.89-13.24-1-26.09-6.12-38.34-3.64-8.7-8.63-16.5-17.03-21.48-2.1-1.25-4.28-2.35-6.76-2.66-1.27-.16-2.25-.76-1.89-2.2.36-1.46,1.58-1.78,2.91-1.5,3.63.76,6.96,2.24,9.95,4.45,10.07,7.45,15.44,17.96,19.07,29.54,2.72,8.67,3.83,17.6,3.91,26.67Z"/>
    <path class="st36" d="M314.83,229.85h-42.55c.73-.9,1.73-1.01,2.58-1.33,6.45-2.41,12.53-5.56,18.3-9.31,1.09-.71,2.31-1.35,2.55-2.83,6.46,3.46,12.75,7.17,18.19,12.17.41.38.94.64.93,1.3Z"/>
    <path class="st32" d="M192.55,207.35c-.19,1.41-1.29,1.8-2.34,2.21-5.25,2.03-10.4,4.31-15.48,6.72-12.94,6.15-22.56,15.71-29.31,28.27-.4.74-.77,1.53-1.32,2.15-.61.69-1.47.84-2.28.26-.75-.53-1.17-1.22-.69-2.16.25-.5.52-.99.78-1.49,8.58-16.73,22.27-27.55,39.54-34.24,2.71-1.05,5.41-2.13,8.13-3.16,1.49-.56,2.58-.19,2.97,1.45Z"/>
    <path class="st15" d="M183.22,143.18c-.51,7.74-1.6,14.89-5.07,21.42-3.11,5.87-7.51,10.28-14.26,11.89-1.37.33-2.27.07-2.67-1.23-.38-1.19.25-2.05,1.39-2.37,9.77-2.75,13.44-10.39,15.54-19.31.87-3.69,1.11-7.43,1.22-11.2.04-1.43-.32-3.42,1.88-3.44,2.46-.03,1.88,2.06,1.96,3.58.02.38,0,.75,0,.66Z"/>
    <path class="st25" d="M176.8,184.18c-.43-1.94.24-2.91,2.21-3.69,8.91-3.56,12.54-11.08,14.26-19.86.4-2.02.49-4.1.64-6.16.09-1.18.47-2.09,1.74-2.13,1.48-.04,1.78,1.03,1.86,2.28.89,12.79-7,25.41-18.89,30.16-.59-.27-1.42.23-1.82-.61Z"/>
    <path class="st14" d="M191.58,212.5c9.71,7.3,20.65,11.88,32.44,14.54.27.06.57.06.84.13,1.27.36,2.85.61,2.33,2.46-.43,1.52-1.74,1.37-3.04,1.07-7.25-1.71-14.28-4.09-21.01-7.29-4-1.9-7.86-4.05-11.47-6.63-1-.71-2.04-1.38-2.36-2.69.5-.89,1.15-1.59,2.27-1.6Z"/>
    <path class="st9" d="M301.73,154.22c.27-1.5,1.42-1.25,2.38-1.08,1.14.21,1.33,1.21,1.34,2.19.06,3.67.14,7.35.9,10.96,1.4,6.64,3.83,12.63,10.3,16.02,1.03.54,1.61,1.3,1.12,2.52-.7,1.77-2.08,1.18-3.35.95-4.43-1.69-7.1-5.25-9.06-9.23-3.46-7.03-5.29-14.43-3.62-22.33Z"/>
    <path class="st33" d="M193.97,188.58c-.86-1.61-.52-2.63,1.17-3.61,5.04-2.89,8.26-7.29,9.94-12.83.43-1.43.86-2.93,2.77-2.27,1.72.6,1.26,2.01.8,3.32-1.98,5.65-5.22,10.38-10.04,13.99-1.23.92-2.55,1.58-4.12,1.64-.17-.08-.34-.16-.52-.24Z"/>
    <path class="st2" d="M373.11,195.84c.11,1.59-.63,2.11-1.54,2.52-4.79,2.16-9.57,4.34-14.37,6.48-1.08.48-2.28.7-2.87-.71-.51-1.22-.06-2.24,1.14-2.79,4.94-2.27,9.89-4.55,14.87-6.74,1.55-.68,2.48.11,2.77,1.25Z"/>
    <path class="st6" d="M293.27,192.19c-5.35-1.41-11.68-9.85-11.55-15.42.03-1.09.31-2.1,1.67-2.2,1.26-.09,1.93.59,2.09,1.79.75,5.38,3.44,9.48,8.1,12.26,1.61.96,1.12,2.14.39,3.35-.23.07-.46.15-.7.22Z"/>
    <path class="st11" d="M347.84,197.45c-1.36-.37-2.38-1.24-1.54-2.79,2.33-4.29,4.8-8.5,7.27-12.71.6-1.02,1.61-1.32,2.67-.63.88.58,1.25,1.47.7,2.44-2.42,4.24-4.88,8.46-7.32,12.68-.36.62-.93.9-1.77,1Z"/>
    <path class="st11" d="M130,204.05c-4.23-1.32-8.92-2.6-13.35-4.65-1-.46-1.58-1.36-.96-2.55.57-1.1,1.42-1.4,2.56-.88,4.01,1.85,8.25,3.02,12.48,4.22,1.22.34,2.29,1.11,1.91,2.64-.26,1.07-1.16,1.38-2.64,1.21Z"/>
    <path class="st12" d="M139.04,194.84c-1.08.02-1.66-.58-2.12-1.31-2.29-3.64-4.57-7.28-6.85-10.93-.67-1.07-.85-2.15.4-2.9,1.1-.66,2.05-.11,2.65.82,2.43,3.77,4.83,7.56,7.17,11.38.94,1.54.1,2.42-1.25,2.93Z"/>
    <path class="st0" d="M301.73,154.22c-.09,4.88.21,9.72,1.33,14.5,1.67,7.11,5.24,12.92,11.35,17.07-.43.4-.87.8-1.3,1.19.04-.62-.23-1.07-.73-1.42-7.5-5.23-10.25-13.04-11.69-21.56-.42-2.5-.82-5-.49-7.55,1.53-.05.62-1.76,1.53-2.23Z"/>
    <path class="st5" d="M366.98,218.26c-2.68-.49-5.54-.96-8.37-1.55-1.08-.23-1.91-.94-1.67-2.2.26-1.33,1.21-1.84,2.51-1.6,2.75.5,5.51,1.02,8.25,1.58,1.23.25,2.1.97,1.83,2.35-.24,1.24-1.27,1.49-2.55,1.43Z"/>
    <path class="st30" d="M317.38,285.27c.39-1.54.78-3.09,1.18-4.63,1.47-5.65,3.49-11.1,5.86-16.43.54-1.21,1.27-2.25,2.78-1.48,1.4.71,1.27,1.91.66,3.14-3.13,6.35-5.43,12.98-6.88,19.92-.2.95-.65,1.86-1.86,1.72-1.25-.15-1.73-.98-1.74-2.23Z"/>
    <path class="st23" d="M170.64,297.54c-.02,1.73-.17,3.04-1.8,3.12-1.61.08-1.92-1.17-2.05-2.48-1.27-13.25-4.13-26.11-9.71-38.27-.57-1.24-.9-2.43.67-3.04,1.57-.61,2.19.7,2.7,1.79,4.17,8.89,6.8,18.27,8.55,27.9.69,3.78,1.14,7.6,1.64,10.98Z"/>
    <path class="st31" d="M257.49,345.16c-12.05,0-24.11,0-36.16,0-6.32,0-8.27-2.38-7.24-8.58,4.01-23.93,7.98-47.87,11.97-71.81,1.33-7.98,2.63-15.96,3.98-23.94.91-5.36,3.4-7.45,8.83-7.45,24.39,0,48.78,0,73.17.01,5.63,0,7.73,2.42,6.77,7.95-2.59,14.82-5.27,29.63-7.83,44.45-.29,1.67-.68,2.1-2.29,1.3-8.74-4.33-17.9-3.54-27.09-2.03-1.25.2-2.36.64-3.59-.59-3.56-3.55-8.42-4.07-12.96-1.67-4.06,2.14-6.59,7.01-5.94,11.59.51,3.62,2,6.66,5.37,8.46.86.46,1.39.8.57,1.82-2.47,3.09,1.45,5.79.55,8.94-1.07,3.73,1.12,6.02,4.29,7.54.7.33.93.76.81,1.55-.61,3.77,1.73,5.74,4.63,7.24,4.12,2.12,8.64,3.13,13.02,4.51,2.51.79,4.97,1.74,7.51,2.42,2.61.69,3.48,2.97,4.83,4.83.72.98-.24,1.35-.79,1.73-1.53,1.05-3.29,1.23-5.12,1.23-12.43-.03-24.86-.01-37.29-.01,0,.18,0,.36,0,.53Z"/>
    <path class="st31" d="M279.95,313.68c8.23,0,16.3,1.61,24.44,2.44.66.07,1.3.2,1.96.26,1.31.12,2.6,0,2.82-1.59.23-1.64-1.05-2.1-2.33-2.2-7.97-.67-15.85-2.24-23.87-2.38-3.95-.07-7.9-.33-11.85-.51-1.35-.06-2.85-.09-3.03-1.82-.17-1.69,1.04-2.54,2.54-2.88,1.83-.41,3.68-.73,5.54-1.03,10.13-1.64,20.26-1.14,30.4,0,.93.1,1.88.18,2.82.17,1.17-.02,2.03-.58,2.05-1.84.02-1.12-.77-1.82-1.8-1.77-2.81.14-5.03-1.31-7.35-2.51-4.7-2.42-9.61-3.61-14.95-3.14-2.88.25-5.84.39-8.69-.52-1.36-.43-2.86-.92-2.89-2.65-.03-1.88,1.68-2.08,2.99-2.41,11.49-2.84,22.58-2.38,33.5,2.91,12.64,6.12,10.49,3.37,14.11,16.03,1.5,5.24,2.85,10.52,4.27,15.78.46,1.71.67,3.53,3.03,3.88.91.13.95,1.29,1.09,2.13,1.05,5.88-.75,11.16-3.54,16.19-1.9,3.43-4.6,6.16-7.73,8.5-.92.69-1.53.75-2.33-.2-1.15-1.36-2.49-2.57-3.71-3.87-.41-.44-.96-.8-.61-1.67.83-2.05-.53-2.83-2.19-2.98-5.67-.52-9.63-3.6-12.35-8.31-1.33-2.3-3.11-3.66-5.53-4.42-5.2-1.63-10.39-3.28-15.58-4.96-2.06-.67-4.05-1.5-5.85-2.73-.73-.5-1.42-1.14-1.04-2.08.41-1.02,1.33-.39,1.98-.29,8.73,1.37,17.46,2.77,26.18,4.2,1.44.23,3.01.64,3.36-1.34.33-1.95-1.21-2.23-2.69-2.45-8.93-1.34-17.89-2.46-26.74-4.32-2.02-.42-4.03-.95-5.86-1.95-1.05-.57-1.85-1.4-1.42-2.74.4-1.25,1.5-.89,2.39-.9,2.82-.03,5.65,0,8.47,0Z"/>
    <path class="st31" d="M216,302.64c-2.48,8.82-7.79,15.17-16.58,19.22.5-2.32.96-4.2,1.3-6.09.25-1.38.17-2.91-1.54-3.09-1.49-.15-1.84,1.12-2.01,2.49-.61,4.89-2.84,8.83-6.92,11.78-2.59,1.86-4.97,4.03-7.33,6.18-.97.89-1.54.98-2.49-.02-5-5.25-7.89-11.39-8.18-18.68-.03-.74-.17-1.54.39-2.16,3.01-3.3,4.21-7.5,5.68-11.53,2.28-6.26,4.33-12.61,6.63-18.87.96-2.63,2.26-5.14,3.52-7.64.36-.72.99-1.47,1.69-1.84,6.31-3.3,11.26-8.42,16.84-12.67,2.75-2.1,5.38-3.29,8.79-2.21.89.28,1.85.34,2.76.54,5.43,1.17,5.65,1.59,4.05,6.98-.27.93-.69,1.25-1.59,1.04-1.28-.3-2.57-.58-3.85-.88-1.52-.35-3.08-.47-4.25.73-1.92,1.98-4.21,2.11-6.73,1.84-1.68-.18-3.39-.09-5.08-.11-1.15-.02-2.09.29-2.09,1.68,0,1.44.85,1.93,2.2,1.9,4.53-.09,9.02.36,13.48,1.11,3.65.61,6.02,4.1,5.32,7.8-.3,1.56-.58,3.13-.88,4.71-.18-.11-.43-.18-.46-.31-1.57-6.03-5.72-8.39-11.67-8.5-3.48-.06-6.94-.48-10.42-.72-1.24-.09-2.35.13-2.33,1.7.02,1.36.81,2.02,2.17,2.04,4.43.07,8.82.52,13.21,1.1,2.29.3,3.85,1.36,4.58,3.57.89,2.67,1.87,5.31,2.6,8.03.73,2.7-.63,4.84-2.39,7.47-.72-2.99-1.26-5.41-1.89-7.8-.99-3.76-3.27-5.89-7.32-6.29-4.04-.4-8.08-.35-12.12-.48-1.16-.04-2.11.24-2.08,1.65.03,1.41.86,1.92,2.21,1.95,3.67.1,7.33.34,11,.39,2.64.04,4.27,1.18,4.82,3.78.54,2.57,1.02,5.16,1.57,7.73.27,1.28-.25,2.17-1.18,2.95-1.82,1.53-3.88,2.59-6.17,3.26-1.3.38-2.67.65-2.86-1.05-.15-1.38.48-2.81,2.24-3.01,1.17-.13,2.64.37,3.06-1.25.37-1.4-.8-1.9-1.82-2.46-.33-.19-.48-.76-.63-1.19-.66-1.9-1.65-2.34-3.32-.98-1.75,1.43-3.95,1.64-6.09,1.94-1.36.18-2.76.43-2.45,2.3.3,1.82,1.73,1.65,3.09,1.53.82-.08,1.57-.69,2.45-.29.42.46,0,.88-.06,1.3-.85,5.42,2.9,8.52,8.08,6.59,4.18-1.56,7.83-3.95,11.04-7.17Z"/>
    <path class="st37" d="M276.45,297.46c-3.15,3.62-7.37,4.57-10.67,2.54-3.04-1.87-4.34-6.1-2.99-9.71,1.48-3.98,5.6-6.33,9.66-5.52,1.03.21,2.27.5,2.66,1.39.45,1.02-1,1.08-1.55,1.62-2.22,2.2-1.99,6.01.63,8.23.63.54,1.4.92,2.25,1.46Z"/>
    <path class="st1" d="M280.89,298.39c4.7.24,9.46-.74,14.09.96h-9.05c-1.6-.76-3.62.74-5.04-.96Z"/>
    <path class="st16" d="M280.89,298.39c1.54,1.04,3.48.02,5.04.96-2.32.19-4.64.38-7.07.58.18-1.24.8-1.78,2.03-1.54Z"/>
    <path class="st8" d="M218.58,269.78c1.15-.25,2.52-.59,3.04.57.42.93-.22,1.41-1.17.62-.56-.46-1.03-1.05-1.87-1.19Z"/>
    <path class="st31" d="M239.63,181.36c-.5-1.24-1.54-1.78-2.71-2.24-15.52-6.15-26.26-16.84-31.06-33.05-.54-1.81-1.21-2.98-3.36-3.08-8.48-.38-13.88-5.53-14.83-14.02-.42-3.74-.09-7.35,2.23-10.5,2.26-3.07,5.78-3.91,8.65-1.99,1.04.7,1.92,1.65,3.21.59,1.48-1.21.43-2.34-.16-3.48,6.47-2.02,12.55-4.89,18.28-8.49.76-1.02,1.83-1.48,3.03-1.74,1.29-.14,2.38.16,3.03,1.39.38,2.22,1.36,2.78,3.49,1.62,2.6-1.43,5.48-.96,8.28-.62.98.12,2.04,1.14,2.9.21.89-.96-.65-1.82-.53-2.84,1.82-.97,3.88-.95,5.83-1.36,8.19-2.09,13.8-7.6,18.52-14.17,3.18-4.43,5.62-9.29,7.04-14.59.53-1.99,1.12-2.9,2.9-.99.37.39.95.58,1.44.87,1.97.5,2.7,2.19,3.55,3.74,3.07,5.64,5.12,11.7,6.91,17.82,1.81,6.17,4,12.12,7.76,17.39.28.39.44.83.43,1.31-.17,1.82,1.47,2.88,1.86,4.46-1.43,2.64-1.28,5.63-1.8,8.46-1.78,9.82-3.84,19.56-7.94,28.71-6.11,13.63-16.44,22.36-30.96,26.04-1.05.27-1.97.61-2.45,1.66-.49.48-1.1.77-1.77.76-4.01-.05-8.07.21-11.76-1.87Z"/>
    <path class="st6" d="M222.77,103.94c-.97.38-1.93.76-2.9,1.14-2.09-1.63-1.72-2.92.38-4.3,12-7.92,20.03-19.02,25.49-32.14.25-.61.44-1.24.76-1.81.45-.82,1.16-1.23,2.11-.92.91.3,1.45.99,1.3,1.92-.16,1-.47,2-.85,2.94-4.01,9.76-10.06,18.17-17.23,25.83-2.24,3.41-5.35,5.76-9.07,7.34Z"/>
    <path class="st24" d="M294.45,113.12c-4.1-4.37-6.13-9.81-7.92-15.37-2.15-6.7-4.05-13.5-7.3-19.8-.95-1.83-1.95-3.62-3.43-5.09.3-1.2.57-2.58,2.05-2.69,1.25-.09,1.92,1.05,2.54,1.99,3,4.59,5.1,9.59,6.75,14.81,1.8,5.73,3.44,11.51,5.91,17.01.89,1.98,1.97,3.84,3.35,5.53.65.8,1.46,1.59.79,2.74-.63,1.08-1.69.99-2.73.87Z"/>
    <path class="st19" d="M244.11,101.3c-1.26.03-1.89-.71-2.1-1.84-.23-1.2.77-1.61,1.53-2.11,11.54-7.62,18.09-18.54,21.05-31.83.29-1.3.5-2.94,2.23-2.68,2.06.31,1.87,2.08,1.52,3.59-3.24,14-10.23,25.54-22.2,33.81-.3.21-.57.47-.85.7-.28.48-.69.54-1.17.36Z"/>
    <path class="st6" d="M228.83,75.47c-.17.41-.34.96-.62,1.44-6.27,10.47-13.35,20.26-23.39,27.51-1.14.82-2.33,1.6-3.6,2.19-.86.41-1.83.36-2.41-.74-.56-1.06-.16-1.86.66-2.44,1.38-.98,2.91-1.75,4.23-2.78,8.12-6.33,14.36-14.28,19.65-23.03.73-1.2,1.45-2.41,2.25-3.57.48-.7,1.23-.84,2.01-.48.73.34,1.15.94,1.22,1.9Z"/>
    <path class="st6" d="M300.2,95.17c.11,1.96.18,3.45-1.62,3.62-1.77.17-2.09-1.29-2.22-2.65-.65-6.8-2.59-13.2-5.87-19.2-.66-1.2-1.25-2.54.28-3.44,1.54-.91,2.5.21,3.1,1.44,3.25,6.59,5.71,13.43,6.32,20.22Z"/>
    <path class="st17" d="M244.11,101.3c.39-.12.78-.24,1.17-.36.21.26.41.53.62.8-1.61,1.54-3.95.46-5.68,1.58-.63.61-1.41.46-2.12.29-4-.98-7.77-.26-11.43,1.42-.35.16-.72.18-1.09.08-.53-1.36-1.71-1.17-2.8-1.18,3.02-2.45,6.05-4.89,9.07-7.34,1.58,4.03,7.78,7.45,12.26,4.7Z"/>
    <path class="st31" d="M263.3,193.12c.93,10.03,8.37,13.43,17.09,16.19-25.53,12.33-50.12,9.81-75.19-1.55,2.2-.85,3.78-1.48,5.37-2.07,7.65-2.87,11.59-8.57,12.68-16.49.18-1.3.4-2.6.61-3.9,1.18-.42,1.97.31,2.77.95,9.75,7.79,20.4,9.31,31.94,4.57.17-.07.35-.14.52-.21q3.77-1.47,4.21,2.51Z"/>
    <path class="st28" d="M263.3,193.12c-.88-.8-.18-2.03-.85-2.99-5.36,2.18-10.77,4.45-16.72,4.17-7.29-.34-13.95-2.55-19.54-7.45-.69-.61-1.55-1.04-2.33-1.55v-8.48c4.05,2.26,7.82,4.26,11.74,5.96,1.82.79,3.29.75,4.03-1.43,4.5.45,8.97,1.41,13.53,1.1.22,2.15,1.47,2.58,3.34,2.05,2.13-.61,4.26-1.21,6.8-1.93v10.54Z"/>
    <path class="st37" d="M293.31,147.6c2.47-8.45,4.17-16.78,5.68-25.15.25-1.41.92-1.68,2.15-1.38,1.94.47,3.36,1.58,4.34,3.31,4.57,8.14-.95,20.86-10.01,23-.61.14-1.26.13-2.15.21Z"/>
    <path class="st29" d="M293.48,159.21c1.71.17,1.78,1.42,1.77,2.68-.02,3.01.24,6,.87,8.94,1.3,6,4.05,11.06,9.31,14.52,1.08.71,2.08,1.48,1.16,2.94-.9,1.42-2.08.94-3.19.3-2.49-1.43-4.45-3.46-6.07-5.78-4.46-6.42-5.96-13.66-5.73-21.35.04-1.24.38-2.25,1.88-2.25Z"/>
    <path class="st26" d="M274.67,237.97c-11.02,0-22.04,0-33.06,0-4.76,0-6.31,1.37-7.11,6.15-4.81,28.86-9.63,57.71-14.44,86.57-.36,2.13-.6,4.29-.96,6.42-.19,1.11-.4,2.44-1.98,2.13-1.52-.3-1.63-1.39-1.39-2.83,2.25-12.97,4.44-25.95,6.6-38.94,2.99-18,5.97-35.99,8.87-54,.85-5.28,3.84-8.79,10.08-8.76,22.41.11,44.83-.03,67.24-.08,1.02,0,2.22-.27,2.81.81.75,1.37.33,2.45-1.36,2.54-2.16.1-4.33.04-6.5.04-9.61,0-19.21,0-28.82,0v-.04Z"/>
    <path class="st26" d="M240.62,149.58c6.64.64,13.28,1.23,19.91,1.95,4.43.48,4.97,1.63,2.92,5.68-1.2,2.36-2.65,4.54-4.64,6.32-6.4,5.73-14.05,5.07-19.39-1.69-1.82-2.3-3.11-4.89-3.81-7.77-.92-3.77-.32-4.55,3.59-4.42.47.02.94.05,1.41.07,0-.05,0-.1.01-.14Z"/>
    <path class="st11" d="M257.62,127.39c-.25,2.64.79,5.54,2.09,8.39,1.62,3.54-.95,8.79-4.75,9.79-.88.23-1.45-.16-1.93-.79-.61-.8-.61-1.82.18-2.26,4.69-2.61,2.99-5.99,1.45-9.57-1.09-2.54-1.03-5.35-.69-8.07.15-1.21.12-2.95,2.06-2.74,1.69.18,1.92,1.53,1.76,2.98-.06.56-.08,1.13-.16,2.26Z"/>
    <path class="st26" d="M229.91,124.26c.12-3.22,1.91-5.47,4.24-5.34,2.26.13,3.86,2.45,3.76,5.45-.1,3.07-2.03,5.26-4.48,5.09-2.28-.16-3.64-2.17-3.52-5.21Z"/>
    <path class="st26" d="M275.89,126.81c-.03,3-1.9,5.36-4.24,5.34-2.13-.02-3.71-2.04-3.73-4.75-.02-3.22,1.83-5.69,4.21-5.65,2.19.04,3.78,2.18,3.75,5.06Z"/>
    <path class="st20" d="M225.58,105.12c4.56-3.23,9.51-3.21,14.64-1.79.97.82,2.4,1.51,1.41,3.11-.95,1.53-2.19.72-3.44.27-3.11-1.14-6.2-1.06-9.14.61-.87.49-1.67,1.34-2.76.57-1-.7-.96-1.72-.71-2.77Z"/>
    <path class="st34" d="M282.74,109.46c-.02.93-.23,1.48-.87,1.88-.76.47-1.41.35-2.04-.19-3.09-2.63-6.56-3.35-10.45-2.12-1,.32-1.84.03-2.24-1.08-.39-1.09.12-1.78.99-2.32,2.98-1.83,12.25-.02,14.16,2.78.25.37.35.84.45,1.06Z"/>
    <path class="st4" d="M260.46,155.05c-2.63,5.7-7.54,9.35-11.55,8.77-4.46-.65-8.69-5.25-9.67-10.68,7.04.39,14.03.86,21.21,1.91Z"/>
  </g>
</svg>