<?xml version="1.0" encoding="UTF-8"?>
<svg id="Camada_1" xmlns="http://www.w3.org/2000/svg" version="1.1" viewBox="0 0 70.53 36">
  <!-- Generator: Adobe Illustrator 30.3.0, SVG Export Plug-In . SVG Version: 2.1.3 Build 182)  -->
  <defs>
    <style>
      .st0 {
        fill: #c8dffc;
      }

      .st1 {
        fill: #042b93;
      }

      .st2 {
        fill: #092d93;
      }

      .st3 {
        fill: #052a92;
      }

      .st4 {
        fill: #4395fd;
      }

      .st5 {
        fill: #4394fd;
      }

      .st6 {
        fill: #002794;
      }

      .st7 {
        fill: #032990;
      }

      .st8 {
        fill: #0b2e98;
      }
    </style>
  </defs>
  <path class="st6" d="M43.5,17.54c-.02,1.61-.17,3.15-.64,4.64-.21.96-.56,1.98-1.04,2.85l-.35.63c-.29-.35-.59-.75-.89-1.23-.41-.67-.71-1.3-.91-1.84.05-.15.1-.3.16-.45.36-.91.57-1.88.7-2.84.52-3.94-.54-7.87-2.98-11.01l-.93-1.09-1.76-1.54c-1.84-1.34-3.99-2.18-6.33-2.18l-13.32.02c-6.62.13-11.9,5.38-12.09,11.95v3.91c.02,6.37,5.81,12.16,12.16,12.22l4.53.04h8.26c1.66.02,3.17-.47,4.64-1.19,1.36-.71,2.53-1.59,3.65-2.73.51.91,1,1.68,1.65,2.47-2.41,2.37-6.13,4.38-9.48,4.38h-13.24c-2.57.01-4.94-.75-7.15-1.9l-3.81,1.75-2.64,1.26c-.32.15-.7-.08-.86-.27-.2-.23-.23-.64-.05-.94,1.11-1.76,2.09-3.54,2.85-5.54C1.52,26.25.1,23.04.09,19.6v-4.54c.18-5.37,3.25-10.23,7.98-12.77,1.89-1.02,3.97-1.72,6.16-1.72h15.34c3.17-.01,7.23,2.18,9.17,4.52l.85,1.02c.9,1.08,1.6,2.3,2.23,3.62,1.18,2.45,1.72,5.07,1.68,7.8Z"/>
  <path class="st4" d="M69.74,34.27c.23.38.36.78.06,1.14-.23.27-.67.37-1.06.18l-3.03-1.5-3-1.36c-1.96,1.1-4.12,1.84-6.42,1.84h-5.86c-3.49,0-6.79-1.42-9.36-3.65-.76-.67-1.44-1.39-2.07-2.18-.67-.85-1.24-1.78-1.73-2.75-.82-1.61-1.36-3.35-1.65-5.14-.37-2.29-.35-5.44.4-7.88,0,0,0-.01,0-.02.07-.22.15-.45.23-.67.1-.26.2-.51.31-.76l.22-.08c.57.19,1.87,1.02,2.33,1.41l-.02.23c-.19.44-.42,1.04-.61,1.78-.06.24-.27,1.13-.31,2.54-.02.82-.05,2.15.33,3.84.13.58.53,2.15,1.56,3.93.53.92,1.61,2.74,3.69,4.24,2.71,1.96,5.56,2.25,6.88,2.29l5.66-.02c2.7-.12,5.18-1.27,7.18-3.07,2.75-2.48,4.22-6.04,4.21-9.74l-.02-3.72c-.14-3.46-1.62-6.72-4.23-8.98-1.93-1.67-4.26-2.82-6.83-2.81l-5.97.03c-3.19.16-6.02,1.69-8.27,3.9-.51-.88-1-1.66-1.61-2.39,3.12-2.98,7.14-4.53,11.42-4.4l4.94-.06c3.43-.04,7.28,2.13,9.58,4.74,2.3,2.62,3.7,5.94,3.84,9.45v5.26c0,3.32-1.36,6.43-3.4,9.03.63,1.92,1.58,3.63,2.62,5.33Z"/>
  <path class="st4" d="M59.51,24.93h-9.58c-.66.01-1.01-.64-1.02-1.18s.39-1.22,1.05-1.22h9.48c.64,0,1.04.61,1.07,1.13s-.31,1.27-1,1.27Z"/>
  <path class="st5" d="M59.29,20.27h-9.33c-.68-.01-1.08-.69-1.06-1.23.02-.6.43-1.19,1.12-1.19h9.23c.73-.01,1.24.52,1.26,1.18.02.61-.46,1.24-1.22,1.24Z"/>
  <path class="st5" d="M59.51,15.59l-9.49.02c-.65,0-1.08-.58-1.12-1.12s.34-1.29,1.01-1.29h9.55c.61,0,.99.62,1.04,1.11s-.31,1.27-.99,1.28Z"/>
  <path class="st0" d="M36.01,12.95c.07-.23.15-.45.23-.67-.08.22-.16.44-.23.67Z"/>
  <path class="st7" d="M13.01,15.11h-1.61c-.09,2.74-.42,5.54-2.2,7.77l-.77-.65c1.59-1.92,1.95-4.64,1.97-7.13h-1.67s0-.97,0-.97l1.67-.04.04-2.13h1.02s-.02,2.16-.02,2.16h2.52c0,2.46-.03,4.81-.28,7.21-.05.49-.24,1-.7,1.17-.57.21-1.18.15-1.77.09l-.25-1c.53.05.97.16,1.46.04.24-.06.28-.38.31-.61.22-1.98.23-3.9.28-5.91Z"/>
  <path class="st3" d="M25.24,14.31h-.95s-.03-.71-.03-.71h-2.79c-.04-.26-.05-.49,0-.82h2.8s.06-.79.06-.79c.34-.06.63-.06.92,0v.79s2.85,0,2.85,0c.12-.27.05-.53.09-.83l.97.04c-.02.32-.04.55.02.79h2.67c.08.33.07.57,0,.82l-2.7-.02v.69s-.95.04-.95.04l-.05-.71h-2.87c-.06.25-.05.4-.03.71Z"/>
  <path class="st2" d="M28.42,22.79c-.43.13-.86.09-1.29.07l-.22-.8c.39.04.73.1,1.12-.01l.03-3.53.8-.02v3.56c0,.29-.12.63-.45.73Z"/>
  <path class="st8" d="M25.68,22.27c-.17-.2-.26-.45-.34-.72l2.25-1.02c.16.15.25.41.22.67l-2.13,1.07Z"/>
  <path class="st3" d="M30.8,19.48c.29.23.51.44.85.59l.51-.66c-.6-.34-1.13-.66-1.49-1.22l1.25-.03v-.71s-1.85-.04-1.85-.04l-.43-.83h1.9c.07-.15.12-.55,0-.66-.32-.15-.66-.05-1.03-.06l.65-1.09-.83-.29-.71,1.35-1.07.03.33-1.26-.83-.14-.35,1.38c-.25.04-.46.04-.67.01.37-.19-.09-.82-.52-1.37l-.62.3.58,1.05c-.29.06-.53,0-.82,0-.04.27-.04.48,0,.75l1.78.03-.41.82-1.72.02v.72s1.26.05,1.26.05c-.45.58-.97.93-1.54,1.29v-4.8s-3.03,0-3.03,0v4.07c-.08,1.31-.18,2.64-.91,3.66l.79.49c.54-1.03.76-2.07.89-3.17l1.43.02-.02,2.18c-.38.15-.73.08-1.16.02l.17.85c.98.13,1.83.05,1.83-.77v-2.5c.27.11.33.33.48.48.34-.09.53-.31.83-.48l.79,1c.23-.11.38-.19.57-.35-.22-.42-.47-.76-.85-1.09l.69-.95,2.2.03c.17.29.33.51.57.72l-1.17,1.23c.23.11.32.17.36.34-.24.02-.52.45-.39.58.78.48,1.57.89,2.21,1.49l.6-.65-2.22-1.35,1.13-1.09ZM24.16,15.48l.02,1.28h-1.35s-.02-1.28-.02-1.28h1.35ZM22.81,18.96v-1.4s1.35,0,1.35,0l.04,1.36-1.38.04ZM27.91,17.43c.12-.29.2-.54.38-.78.1-.14.51-.11.59.03l.39.75h-1.36Z"/>
  <path class="st1" d="M19.11,13.51h-4.09s-.01,9.27-.01,9.27c.35.07.66.05.98.01v-.87s2.11.02,2.11.02l.03.79h.99s0-9.22,0-9.22ZM15.98,20.97v-6.52s2.15,0,2.15,0v6.49s-2.15.03-2.15.03Z"/>
</svg>