<?xml version="1.0" encoding="UTF-8"?>
<svg id="Camada_1" xmlns="http://www.w3.org/2000/svg" version="1.1" viewBox="0 0 30 30">
  <!-- Generator: Adobe Illustrator 30.3.0, SVG Export Plug-In . SVG Version: 2.1.3 Build 182)  -->
  <defs>
    <style>
      .st0 {
        fill: #fff;
      }

      .st1 {
        fill: #002794;
      }

      .st2 {
        fill: #fefefe;
      }
    </style>
  </defs>
  <circle class="st0" cx="14.97" cy="15" r="15"/>
  <g>
    <path class="st2" d="M6.59,10.61v-3.78s16.76,0,16.76,0v16.77h-3.84c2.06-.21,3.64-1.79,3.8-3.88v-8.98c-.16-2.1-1.77-3.71-3.88-3.88h-8.98c-2.07.16-3.63,1.7-3.87,3.74Z"/>
    <path class="st2" d="M10.31,23.6h-3.73v-3.73s.02,0,.03.03c.21,1.94,1.73,3.45,3.67,3.67.02,0,.03.01.03.03Z"/>
    <g>
      <path class="st1" d="M23.34,10.75c-.01-2.05-1.84-3.88-3.89-3.89h-8.98c-2,.01-3.82,1.76-3.87,3.76v9.27c.08,1.94,1.78,3.64,3.72,3.73h9.2c2.03-.02,3.81-1.86,3.82-3.88v-8.98ZM21.64,19.55c0,1.27-1.07,2.37-2.35,2.37h-8.64c-1.29,0-2.37-1.08-2.37-2.37v-8.62c0-1.27,1.07-2.37,2.34-2.37h8.65c1.29,0,2.37,1.08,2.37,2.37v8.62Z"/>
      <path class="st1" d="M19.07,10.22c.48-.04.86.32.9.77s-.31.86-.77.9-.85-.29-.9-.74.27-.88.77-.92Z"/>
      <path class="st1" d="M14.96,11.05c-2.33,0-4.19,1.85-4.19,4.19,0,2.31,1.83,4.18,4.17,4.19,2.37,0,4.22-1.88,4.2-4.22-.02-2.32-1.87-4.16-4.19-4.15ZM14.99,17.75c-1.43.02-2.55-1.08-2.55-2.51,0-1.4,1.08-2.49,2.48-2.51,1.49-.02,2.64,1.18,2.54,2.69-.09,1.34-1.15,2.32-2.47,2.34Z"/>
    </g>
  </g>
</svg>