<?xml version="1.0" encoding="UTF-8"?>
<svg id="Camada_1" xmlns="http://www.w3.org/2000/svg" version="1.1" viewBox="0 0 30 30">
  <!-- Generator: Adobe Illustrator 30.3.0, SVG Export Plug-In . SVG Version: 2.1.3 Build 182)  -->
  <defs>
    <style>
      .st0 {
        fill: #fff;
      }

      .st1 {
        fill: #002794;
      }
    </style>
  </defs>
  <circle class="st0" cx="15" cy="15" r="15"/>
  <path class="st1" d="M8.22,22.06h3.08v-9.98h-3.08v9.98Z"/>
  <path class="st1" d="M7.94,8.89c0,.98.79,1.78,1.82,1.78s1.78-.8,1.78-1.78-.79-1.83-1.78-1.83-1.82.84-1.82,1.83Z"/>
  <path class="st1" d="M19.81,22.06h3.13v-5.48c0-2.67-.61-4.78-3.74-4.78-1.5,0-2.52.84-2.94,1.64h-.05v-1.36h-2.94v9.98h3.08v-4.92c0-1.31.23-2.58,1.87-2.58s1.59,1.5,1.59,2.62v4.88Z"/>
</svg>