<?xml version="1.0" encoding="UTF-8"?>
<svg id="Camada_1" xmlns="http://www.w3.org/2000/svg" version="1.1" viewBox="0 0 111.15 29">
  <!-- Generator: Adobe Illustrator 30.3.0, SVG Export Plug-In . SVG Version: 2.1.3 Build 182)  -->
  <defs>
    <style>
      .st0 {
        fill: #fff;
      }
    </style>
  </defs>
  <path class="st0" d="M37.03,14.02c-.02,1.26-.14,2.46-.5,3.63-.17.75-.44,1.54-.81,2.22l-.27.49c-.22-.27-.46-.59-.69-.96-.32-.52-.55-1.02-.71-1.44.04-.12.08-.23.13-.35.28-.71.45-1.47.55-2.22.41-3.07-.43-6.15-2.33-8.6l-.72-.85-1.37-1.2c-1.44-1.05-3.12-1.7-4.94-1.7l-10.4.02c-5.17.1-9.29,4.2-9.44,9.34v3.05c.01,4.98,4.54,9.5,9.5,9.55l3.54.03h6.45c1.29.01,2.48-.37,3.62-.93,1.06-.56,1.97-1.24,2.85-2.13.4.71.78,1.32,1.29,1.93-1.88,1.85-4.79,3.42-7.4,3.42h-10.34c-2.01,0-3.86-.59-5.58-1.48l-2.98,1.37-2.06.98c-.25.12-.55-.06-.67-.21-.15-.18-.18-.5-.04-.73.86-1.37,1.63-2.77,2.22-4.33-1.68-2.09-2.79-4.59-2.79-7.28v-3.54c.14-4.19,2.54-7.99,6.23-9.98,1.48-.8,3.1-1.34,4.81-1.35h11.98c2.48,0,5.65,1.7,7.16,3.53l.66.8c.7.85,1.25,1.79,1.74,2.82.92,1.92,1.34,3.96,1.31,6.1Z"/>
  <path class="st0" d="M57.52,27.09c.18.3.28.61.05.89-.18.21-.52.29-.83.14l-2.36-1.17-2.34-1.06c-1.53.86-3.22,1.44-5.02,1.44h-4.58c-2.73,0-5.31-1.11-7.31-2.86-.6-.52-1.13-1.08-1.62-1.7-.53-.67-.97-1.39-1.35-2.15-.64-1.26-1.06-2.62-1.29-4.01-.29-1.79-.27-4.25.31-6.15,0,0,0,0,0-.01.06-.17.12-.35.18-.52.08-.2.16-.4.25-.6l.17-.06c.44.15,1.46.8,1.82,1.1l-.02.18c-.15.34-.33.81-.47,1.39-.05.19-.21.88-.24,1.99-.02.64-.04,1.68.26,3,.1.46.41,1.68,1.22,3.07.41.72,1.25,2.14,2.88,3.32,2.12,1.53,4.35,1.76,5.37,1.79l4.42-.02c2.11-.09,4.05-.99,5.61-2.4,2.15-1.94,3.3-4.72,3.29-7.61v-2.9c-.13-2.71-1.28-5.25-3.32-7.01-1.51-1.3-3.33-2.2-5.34-2.19l-4.66.02c-2.49.12-4.7,1.32-6.46,3.05-.4-.69-.78-1.3-1.26-1.87,2.44-2.33,5.58-3.54,8.92-3.44l3.86-.04c2.68-.03,5.69,1.66,7.48,3.7,1.8,2.04,2.89,4.64,3,7.38v4.11c0,2.6-1.06,5.02-2.66,7.05.49,1.5,1.23,2.84,2.04,4.16Z"/>
  <path class="st0" d="M49.54,19.8h-7.48c-.52.01-.79-.5-.8-.92s.3-.95.82-.95h7.4c.5,0,.81.47.84.88s-.24.99-.78.99Z"/>
  <path class="st0" d="M49.37,16.16h-7.29c-.53-.01-.85-.54-.83-.96.02-.47.34-.93.88-.93h7.21c.57,0,.97.4.98.93.01.47-.36.97-.95.97Z"/>
  <path class="st0" d="M49.54,12.5l-7.41.02c-.51,0-.84-.45-.87-.87s.27-1.01.79-1.01h7.46c.47,0,.77.49.81.87s-.24,1-.78,1Z"/>
  <path class="st0" d="M31.18,10.44c.06-.18.12-.35.18-.52-.06.17-.13.35-.18.52Z"/>
  <path class="st0" d="M13.21,12.13h-1.26c-.07,2.14-.33,4.33-1.72,6.07l-.6-.51c1.25-1.5,1.52-3.63,1.54-5.57h-1.3s0-.75,0-.75l1.31-.03.03-1.66h.8s-.01,1.68-.01,1.68h1.97c0,1.92-.02,3.76-.22,5.63-.04.38-.19.78-.55.91-.44.17-.92.11-1.39.07l-.19-.78c.42.04.76.13,1.14.03.19-.05.22-.3.24-.48.17-1.55.18-3.05.22-4.61Z"/>
  <path class="st0" d="M22.77,11.5h-.74s-.03-.56-.03-.56h-2.18c-.03-.2-.04-.38,0-.64h2.19s.04-.62.04-.62c.27-.05.49-.04.72,0v.62s2.22,0,2.22,0c.09-.21.04-.42.07-.65l.76.03c-.02.25-.03.43.01.62h2.08c.06.26.05.45,0,.64h-2.11s0,.52,0,.52l-.74.03-.04-.55h-2.24c-.05.2-.04.32-.02.55Z"/>
  <path class="st0" d="M25.25,18.12c-.34.11-.67.07-1.01.06l-.17-.63c.31.03.57.08.88,0l.02-2.76.63-.02v2.78c0,.23-.09.49-.35.57Z"/>
  <path class="st0" d="M23.11,17.72c-.13-.16-.2-.35-.27-.56l1.76-.79c.12.12.19.32.17.52l-1.66.84Z"/>
  <path class="st0" d="M27.1,15.54c.23.18.4.34.66.46l.4-.51c-.47-.26-.88-.52-1.17-.95l.98-.02v-.55s-1.45-.03-1.45-.03l-.33-.65h1.48c.06-.12.09-.43,0-.51-.25-.12-.52-.04-.81-.05l.51-.85-.64-.22-.56,1.06-.84.02.26-.98-.65-.11-.27,1.08c-.19.03-.36.03-.53.01.29-.15-.07-.64-.41-1.07l-.49.24.46.82c-.23.05-.41,0-.64,0-.03.21-.03.38,0,.59l1.39.02-.32.64h-1.35s0,.58,0,.58l.99.04c-.35.45-.75.72-1.2,1.01v-3.75s-2.37,0-2.37,0v3.18c-.06,1.02-.14,2.06-.71,2.86l.62.38c.42-.81.6-1.62.69-2.47l1.12.02v1.71c-.31.12-.58.06-.92.02l.13.66c.77.1,1.43.04,1.43-.6v-1.95c.21.09.26.26.37.38.27-.07.41-.24.65-.38l.62.78c.18-.09.3-.15.45-.27-.17-.33-.37-.6-.67-.85l.54-.75,1.72.02c.14.22.26.39.45.56l-.91.96c.18.09.25.14.28.27-.19.02-.4.35-.31.46.61.37,1.22.69,1.72,1.16l.47-.51-1.74-1.05.88-.85ZM21.93,12.42l.02,1h-1.05s-.02-1-.02-1h1.06ZM20.87,15.13v-1.09s1.05,0,1.05,0l.03,1.06-1.08.03ZM24.85,13.94c.09-.23.15-.43.3-.61.08-.11.4-.09.46.03l.3.59h-1.06Z"/>
  <path class="st0" d="M17.98,10.87h-3.19s0,7.24,0,7.24c.27.06.52.04.77.01v-.68s1.65.02,1.65.02l.02.61h.77s0-7.2,0-7.2ZM15.53,16.7v-5.09s1.68,0,1.68,0v5.07s-1.68.03-1.68.03Z"/>
  <path class="st0" d="M88.73,27.35c-.09.05-.22.04-.34.01v-2.33s-.84-.02-.84-.02c-.06,0-.06-.28,0-.28h1.94c.11,0,.12.28.03.29l-.8.02v2.31Z"/>
  <path class="st0" d="M100.13,27.19l-.63.32c.15.08.33.13.36.27.03.19-.14.32-.26.35-.17.04-.49.06-.46-.24.15.1.44.13.47-.08-.19-.02-.29-.27-.37-.37-.29-.17-.62-.38-.68-.78-.06-.43.09-.85.44-1.06.39-.23.91-.17,1.2.19.04.05-.17.22-.22.17-.23-.21-.5-.27-.73-.17-.27.12-.39.37-.38.68,0,.26.12.48.31.59.46.27.77-.21.93-.1.06.04.13.17,0,.23Z"/>
  <path class="st0" d="M97.58,25.53c0-.07.29-.06.29.02l-.02,1.82c-.1.08-.32-.02-.36-.16-.24.21-.49.26-.76.2s-.49-.3-.49-.62v-1.27s.31,0,.31,0l.02,1.26c0,.27.25.4.48.38s.49-.17.5-.45l.03-1.17Z"/>
  <path class="st0" d="M106.86,27.25c-.42.29-.99.19-1.32-.11.16-.48.47.17,1.01-.02.11-.04.19-.15.18-.24,0-.09-.07-.21-.19-.24l-.58-.17c-.2-.06-.32-.2-.35-.37-.03-.19.03-.4.23-.51.54-.31,1.33.05,1.05.26-.14.11-.32-.18-.7-.12-.11.02-.31.15-.26.3.12.32.86.19,1.06.59.1.2.07.48-.14.62Z"/>
  <path class="st0" d="M72.6,27.28c-.39.26-.95.16-1.26-.13-.01-.08.12-.21.19-.2.24.17.52.28.81.17.11-.04.18-.13.17-.22s-.07-.2-.18-.23l-.57-.18c-.2-.06-.33-.2-.36-.36-.04-.22.04-.42.25-.54.35-.19.81-.13,1.11.12,0,.09-.1.18-.18.22-.2-.18-.47-.26-.74-.15-.09.04-.14.13-.14.2,0,.09.05.2.17.24l.58.17c.2.06.33.2.36.37.04.18-.01.38-.22.52Z"/>
  <path class="st0" d="M74.44,27.36c-.39.13-.8.05-1.09-.22-.04-.04.1-.23.15-.2.26.17.57.29.87.15.09-.04.15-.14.15-.21s-.05-.18-.15-.21l-.62-.2c-.2-.06-.33-.2-.35-.37s.02-.38.2-.48c.36-.23.84-.19,1.18.07-.03.11-.08.17-.14.24-.22-.16-.48-.29-.75-.17-.1.04-.17.14-.18.22,0,.08.07.19.17.23l.58.17c.22.07.38.24.39.44.01.24-.1.46-.38.55Z"/>
  <path class="st0" d="M66.15,27.32c-.41.19-.87.1-1.2-.19.04-.08.1-.14.18-.2.24.19.54.28.84.18.1-.04.17-.15.17-.23,0-.08-.06-.19-.17-.23l-.63-.2c-.18-.05-.29-.22-.31-.35-.04-.2.04-.39.22-.51.32-.21.81-.19,1.1.08.08.07-.02.15-.06.18-.07.06-.13.05-.23-.04-.21-.18-.72-.15-.71.18,0,.37.93.2,1.09.69.07.21,0,.5-.28.62Z"/>
  <path class="st0" d="M68.17,27.31c-.38.21-.88.13-1.19-.15-.04-.04.06-.18.1-.19.16-.06.45.35.93.12.09-.04.13-.14.13-.21,0-.09-.06-.2-.18-.23l-.52-.16c-.22-.07-.38-.2-.4-.39s.03-.41.23-.52c.34-.19.82-.14,1.1.12-.09.41-.32-.02-.77.03-.1.01-.31.12-.26.29.09.33.94.22,1.09.66.08.23,0,.48-.25.62Z"/>
  <path class="st0" d="M78.99,25.76c-.4-.05-.65.21-.66.55l-.02,1.06c-.13.02-.2.02-.31,0v-1.85c.09-.04.18-.02.23,0s.09.11.13.22c.19-.22.35-.29.65-.27.02.07.03.17-.01.28Z"/>
  <path class="st0" d="M90.87,25.73c-.34.05-.64.19-.64.54l-.02,1.1c-.12.02-.2.02-.31,0v-1.85c.1-.03.19-.03.25,0s.09.13.12.24c.19-.23.37-.32.62-.27.05.01.06.23,0,.24Z"/>
  <path class="st0" d="M102.2,24.73c.19.11.03.28-.06.33-.31.16-.63-.16-.69-.12l-.27.15c-.14-.05-.05-.25.04-.31.35-.22.6.14.69.09l.3-.15Z"/>
  <path class="st0" d="M79.96,25.49h-.38s0,1.74,0,1.74c0,.08.03.13.08.14h.23s.08-.06.08-.14v-1.74Z"/>
  <path class="st0" d="M79.59,24.79c.08-.12.21-.12.29-.04.06.05.11.16.03.27-.04.06-.14.09-.22.07-.1-.03-.2-.17-.11-.3Z"/>
  <path class="st0" d="M70.08,8.77l-2.99-.02c-.16,5.1-.78,10.3-4.08,14.43l-1.44-1.2c2.96-3.56,3.62-8.61,3.65-13.22h-3.09s0-1.79,0-1.79l3.11-.07.07-3.95,1.9-.02-.03,4.02,4.67.03c0,4.53-.06,8.89-.52,13.34-.09.91-.45,1.85-1.3,2.17-1.05.4-2.18.27-3.29.16l-.46-1.85c.99.09,1.81.3,2.71.07.44-.11.53-.71.57-1.13.4-3.67.42-7.24.52-10.96Z"/>
  <path class="st0" d="M92.77,7.27h-1.77s-.06-1.32-.06-1.32h-5.17c-.07-.47-.09-.91-.02-1.53h5.2s.1-1.47.1-1.47c.63-.11,1.17-.1,1.72,0v1.46s5.28,0,5.28,0c.23-.5.1-.99.17-1.54l1.8.08c-.04.6-.07,1.03.04,1.47h4.95c.15.61.12,1.07,0,1.53l-5.01-.03v1.27s-1.77.07-1.77.07l-.09-1.31h-5.33c-.11.47-.09.75-.05,1.32Z"/>
  <path class="st0" d="M98.67,23.01c-.81.25-1.6.17-2.39.13l-.4-1.49c.73.08,1.35.19,2.08-.02l.05-6.54,1.49-.04v6.61c0,.54-.22,1.16-.83,1.35Z"/>
  <path class="st0" d="M93.59,22.04c-.32-.38-.48-.83-.64-1.34l4.17-1.89c.29.28.46.75.41,1.24l-3.95,1.99Z"/>
  <path class="st0" d="M103.08,16.87c.54.42.95.81,1.57,1.1l.95-1.22c-1.12-.63-2.09-1.23-2.77-2.27l2.33-.06v-1.32s-3.44-.07-3.44-.07l-.79-1.53,3.52-.02c.13-.25.21-.99,0-1.19-.59-.29-1.23-.1-1.92-.12l1.21-2.03-1.53-.53-1.32,2.51-1.99.05.61-2.33-1.55-.27-.65,2.56c-.46.07-.86.08-1.25.02.69-.36-.16-1.52-.96-2.54l-1.15.57,1.08,1.94c-.54.11-.97.02-1.52,0-.08.5-.07.9,0,1.39l3.31.05-.76,1.52-3.2.03v1.34s2.34.09,2.34.09c-.84,1.07-1.79,1.72-2.85,2.39l-.02-8.9h-5.61s-.01,7.55-.01,7.55c-.13,2.42-.33,4.89-1.68,6.8l1.47.9c1-1.91,1.41-3.84,1.64-5.88l2.65.04-.03,4.05c-.71.28-1.35.14-2.15.04l.32,1.57c1.82.24,3.39.09,3.4-1.43l.02-4.64c.47.21.59.61.86.9.64-.17.97-.57,1.54-.9l1.46,1.85c.43-.21.71-.35,1.07-.65-.41-.79-.88-1.42-1.58-2.01l1.29-1.77,4.08.06c.32.53.61.94,1.06,1.33l-2.17,2.28c.43.2.6.32.67.64-.44.05-.96.83-.73,1.08,1.45.89,2.91,1.65,4.09,2.77l1.12-1.21-4.12-2.5,2.09-2.03ZM90.78,9.46l.04,2.38h-2.5s-.04-2.38-.04-2.38h2.51ZM88.26,15.91v-2.59s2.5,0,2.5,0l.07,2.52-2.57.08ZM97.73,13.07c.22-.53.37-1.01.71-1.45.19-.25.95-.2,1.09.06l.72,1.39h-2.51Z"/>
  <path class="st0" d="M81.4,5.79l-7.59-.03-.02,17.22c.65.14,1.23.1,1.82.03l.03-1.61,3.88.04.05,1.46,1.84.02V5.79ZM75.58,19.63l.02-12.09h3.96s.01,12.03.01,12.03l-3.99.06Z"/>
  <path class="st0" d="M63.42,24.82c-.05-.11-.33-.15-.38-.03l-1.06,2.52c.05.12.31.11.37-.02l.26-.6h1.27c.11.28.14.48.27.66.04.06.25.06.36,0l-1.09-2.53ZM62.74,26.38l.5-1.23.5,1.23h-1Z"/>
  <path class="st0" d="M95.14,24.73l-.04.99c-.3-.28-.7-.32-1.06-.14-.28.14-.45.52-.44.89,0,.39.19.73.52.88.32.14.7.1.95-.18.03.15.09.2.15.22.07.03.2,0,.2-.08v-2.58c-.02-.07-.29-.06-.29.01ZM95.14,26.47c-.02.38-.2.68-.58.68-.35,0-.61-.3-.62-.69,0-.37.22-.71.55-.72.44-.01.67.3.65.73Z"/>
  <path class="st0" d="M92.45,25.5c-.34-.07-.72-.02-.99.21-.05.05.11.25.16.22.2-.14.37-.21.61-.19.26.02.47.21.4.54-.29-.04-.56-.09-.86-.01-.32.08-.45.35-.43.61.02.25.21.47.49.53.28.06.53-.04.78-.18.05.11.22.2.32.15l.02-1.24c0-.3-.21-.56-.5-.62ZM92.52,27c-.13.13-.28.18-.51.15-.18-.02-.31-.13-.33-.28-.04-.18.07-.35.29-.39.17-.03.46-.09.63.03.13.09.02.39-.07.49Z"/>
  <path class="st0" d="M104.4,25.49c-.45-.1-.89.09-1.08.53-.18.41-.09.92.25,1.2.54.44,1.52.05,1.3-.22-.15-.18-.46.35-.97.07-.15-.08-.33-.26-.35-.53h1.49c.05-.48-.22-.96-.64-1.05ZM103.55,26.28c.05-.31.29-.54.56-.55.31-.02.59.21.62.55h-1.18Z"/>
  <path class="st0" d="M81.81,25.53c-.37-.14-.78-.07-1.09.19.03.09.07.16.16.22.35-.3.82-.29.96-.02.05.1.09.22.04.36-.62-.13-1.17-.04-1.27.42-.04.16,0,.38.13.51.32.3.76.27,1.11,0,.07.14.27.22.37.14v-1.18c0-.29-.14-.54-.41-.64ZM81.78,26.97c-.13.15-.31.21-.53.18-.18-.03-.3-.13-.32-.27-.03-.17.06-.34.27-.39.17-.04.47-.09.64.04.13.11.01.35-.06.44Z"/>
  <path class="st0" d="M85.86,26.54c.06-.46-.18-.91-.58-1.03-.42-.12-.86.03-1.08.43-.22.4-.16.94.17,1.23.57.52,1.4.09,1.4-.06,0-.05-.08-.13-.12-.16-.08-.05-.42.33-.88.13-.18-.08-.37-.29-.33-.54h1.43ZM84.41,26.28c.05-.37.3-.54.6-.55.27,0,.52.18.55.55h-1.15Z"/>
  <path class="st0" d="M70.8,26.53c.07-.38-.09-.74-.39-.93-.3-.2-.72-.17-1.04.07-.51.39-.5,1.21.03,1.59.61.43,1.57-.08,1.24-.28-.15-.09-.46.34-.95.12-.18-.08-.36-.29-.33-.54l1.44-.02ZM69.35,26.29c0-.29.23-.53.51-.56.28-.03.57.08.65.53l-1.16.03Z"/>
  <path class="st0" d="M77.27,26.15c-.14-.5-.7-.81-1.26-.63-.58.19-.76.78-.56,1.32.17.47.71.7,1.21.53.51-.17.76-.7.61-1.22ZM76.36,27.14c-.37,0-.63-.28-.65-.68-.02-.38.23-.7.59-.72.37-.03.68.25.69.7,0,.41-.29.7-.62.7Z"/>
  <path class="st0" d="M102.64,26.2c-.12-.53-.65-.86-1.22-.69-.6.18-.81.73-.64,1.26.16.49.7.74,1.16.62.56-.14.82-.68.71-1.19ZM101.62,27.13c-.41-.04-.58-.39-.57-.69,0-.33.18-.64.55-.69.42-.06.7.26.74.62.04.4-.24.81-.72.76Z"/>
</svg>