<?xml version="1.0" encoding="UTF-8"?>
<svg id="Camada_1" xmlns="http://www.w3.org/2000/svg" version="1.1" viewBox="0 0 601 515">
  <!-- Generator: Adobe Illustrator 30.3.0, SVG Export Plug-In . SVG Version: 2.1.3 Build 182)  -->
  <defs>
    <style>
      .st0 {
        fill: #edebeb;
      }

      .st1 {
        fill: #111;
      }

      .st2 {
        fill: #e9f4ff;
      }

      .st3 {
        fill: #fffcfc;
      }

      .st4 {
        fill: #f3ad9d;
      }

      .st5 {
        fill: #080808;
      }

      .st6 {
        fill: #0c0c0c;
      }

      .st7 {
        fill: #fff;
      }

      .st8 {
        fill: #131313;
      }

      .st9 {
        fill: #090909;
      }

      .st10 {
        fill: #f29ca8;
      }

      .st11 {
        fill: #996b3a;
      }

      .st12 {
        fill: #170f0c;
      }

      .st13 {
        fill: #f9f9f9;
      }

      .st14 {
        fill: #0f1010;
      }

      .st15 {
        fill: #fafbfb;
      }

      .st16 {
        fill: #19100e;
      }

      .st17 {
        fill: #4395fd;
      }

      .st18 {
        fill: #000045;
      }

      .st19 {
        fill: #21140f;
      }

      .st20 {
        fill: #f4f3f2;
      }

      .st21 {
        fill: #efeded;
      }

      .st22 {
        fill: #0f0f0f;
      }

      .st23 {
        fill: #1a1a1a;
      }

      .st24 {
        fill: #050404;
      }

      .st25 {
        fill: #0b0b0b;
      }

      .st26 {
        fill: #131314;
      }

      .st27 {
        fill: #130b0a;
      }

      .st28 {
        fill: #151515;
      }

      .st29 {
        fill: #070707;
      }

      .st30 {
        fill: #20130e;
      }

      .st31 {
        fill: #81c2fc;
      }

      .st32 {
        opacity: .5;
      }

      .st33 {
        fill: none;
        stroke: #1c1c1b;
        stroke-linecap: round;
        stroke-linejoin: round;
        stroke-width: 2.37px;
      }

      .st34 {
        fill: #f8b09e;
      }
    </style>
  </defs>
  <g class="st32">
    <path class="st2" d="M40.52,284.05c-2.14,35.06,5.58,70.65,24.26,100.36,31.71,50.42,102.96,81.65,160.98,64.79,35.5-10.32,47.67-37.99,72.29-61.86,27.62-26.77,55.31-44.43,91.99-56.74,34.66-11.63,72.19-23.24,94.4-52.22,10.29-13.43,16.41-29.7,19.66-46.32,8.32-42.56-2.83-89.41-32.45-121.27-28.3-30.44-70.41-45.08-111.82-48.22C234.11,53.02,90.64,109.32,49.21,237.84c-4.81,14.91-7.74,30.51-8.7,46.21Z"/>
    <path class="st2" d="M378.07,485.05c-37.4-7.28-60.55-38.56-38.64-74.95,17.4-28.91,56-52.13,89.95-49.31,7.57.63,15.23,2.26,21.72,6.21,9.49,5.77,15.6,15.99,18.69,26.66,7.18,24.84-1.25,53.16-19.9,71.07-18.65,17.91-46.44,25.25-71.82,20.31Z"/>
  </g>
  <g>
    <g>
      <path class="st2" d="M111.48,249.8c-1.31,3.26-4.37,6.29-7.95,6.29-3.47,0-6.08-2.53-6.74-5.81-2.61-12.93,18.27-14.39,15.12-1.78-.11.44-.25.87-.43,1.31Z"/>
      <path class="st2" d="M137.64,196.21c0,2.19-2.47,5.28-5.18,5.28s-4.63-3.09-4.63-5.28,1.65-6.16,4.36-6.16,5.45,3.97,5.45,6.16Z"/>
      <path class="st2" d="M153.6,253.73c-3.35,5.64-9.53,9.92-15.46,8.83-3.71-.69-6.58-3.55-9.07-6.39-4.67-5.32-2.73-11.5,2.69-15.75,5.9-4.62,14.71-7.93,21.06-2.56,1.03.87,1.95,1.9,2.47,3.14,1.64,3.95.7,8.68-1.7,12.72Z"/>
    </g>
    <g>
      <path class="st2" d="M345.84,440.51c-1.21,6.98-4.9,13.2-13.24,13.2-7.53,0-13.53-6.47-13.19-13.94.39-8.43,5.51-12.12,12.98-15.11,2.49-1,5.28-1.75,7.83-.92,2.46.8,4.3,2.98,5.2,5.41.9,2.43.98,5.08.83,7.66-.07,1.24-.21,2.48-.42,3.7Z"/>
      <path class="st2" d="M369.13,426.84c0,2.73-2.21,4.94-4.94,4.94-2.69,0-6.95-3.85-4.5-6.5.58-.63,1.37-1.01,2.16-1.32,2.81-1.09,7.27-1.08,7.27,2.88Z"/>
      <path class="st2" d="M450.4,430.5c0,5.99-8.36,6.8-10.04,1.39-2.22-7.18,10.04-8.69,10.04-1.39Z"/>
    </g>
    <path class="st2" d="M427.16,443.78c4.24,0,8.1,3.32,9.23,7.4,2.43,8.81-6.53,18.53-14.9,12.48-7.72-5.58-4.56-19.88,5.67-19.88Z"/>
  </g>
  <g>
    <path class="st10" d="M49.83,62.13h85.72c2.55,0,4.62,2.07,4.62,4.62v64.61c0,2.55-2.07,4.62-4.62,4.62H49.83c-2.55,0-4.62-2.07-4.62-4.62v-64.61c0-2.55,2.07-4.62,4.62-4.62Z"/>
    <path class="st17" d="M132.44,125.48h83.21c2.55,0,4.62,2.07,4.62,4.62v64.61c0,2.55-2.07,4.62-4.62,4.62h-83.21c-2.55,0-4.62-2.07-4.62-4.62v-64.61c0-2.55,2.07-4.62,4.62-4.62Z"/>
    <g>
      <polyline class="st33" points="159.43 182.77 176.34 140.21 192.92 182.77"/>
      <line class="st33" x1="164.05" y1="170.96" x2="188.22" y2="170.96"/>
    </g>
    <g>
      <path class="st33" d="M77.4,118.22c14.88-6.69,26.06-21.05,28.88-37.12"/>
      <path class="st33" d="M106.27,118.22c-10.93-4.92-19.87-13.98-24.96-24.81"/>
      <path class="st33" d="M71.42,80.68c0,.16,42.68,0,42.24,0"/>
      <line class="st33" x1="92.65" y1="75.76" x2="92.65" y2="80.76"/>
    </g>
    <path class="st33" d="M127.81,139.25v-7.52c0-3.45,2.8-6.25,6.25-6.25h8.15"/>
    <path class="st33" d="M45.21,75.14v-7.52c0-3.45,2.8-6.25,6.25-6.25h8.15"/>
  </g>
  <path class="st18" d="M386.56,293.14h-.05c-2.37.16-4.79.23-7.2.23t0,0c-.61,0-1.11-.46-1.17-1.07,0-.04,0-.08,0-.12,0-.65.54-1.17,1.19-1.18,2.32,0,4.69-.07,7.03-.22.65-.04,1.22.46,1.26,1.11.05.63-.42,1.18-1.05,1.25ZM400.65,291.26c-.6.07-1.17-.35-1.29-.94,0-.03-.01-.06-.02-.09-.08-.61.33-1.19.94-1.31,2.28-.46,4.57-1.01,6.84-1.64.63-.17,1.28.2,1.46.82.17.63-.2,1.29-.82,1.46-2.32.64-4.67,1.21-6.99,1.68-.04.01-.07.01-.11.02ZM365.26,292.41c-.1.01-.19,0-.29,0-2.32-.3-4.71-.69-7.09-1.15,0,0,0,0,0,0-.51-.1-.89-.51-.94-1.03-.01-.11,0-.24.02-.35.12-.63.75-1.06,1.38-.94h0s.04.01.06.02c2.28.44,4.6.82,6.89,1.12.65.09,1.11.68,1.02,1.33-.08.54-.5.96-1.04,1.02ZM420.97,284.84c-.52.06-1.01-.22-1.22-.7-.04-.11-.08-.23-.09-.35-.06-.52.22-1.01.7-1.22,2.14-.93,4.27-1.95,6.34-3.03.56-.3,1.31-.06,1.59.5.15.28.18.6.08.91-.1.3-.3.54-.58.69-2.12,1.1-4.3,2.15-6.49,3.1h-.01c-.1.05-.22.08-.33.09ZM344.46,287.73c-.17.02-.34,0-.49-.05-2.27-.72-4.54-1.51-6.78-2.36h0c-.42-.17-.71-.54-.76-.98-.02-.19,0-.38.07-.55.22-.59.92-.91,1.52-.69t0,0s.03.02.05.02c2.21.84,4.43,1.61,6.6,2.3.62.2.97.87.77,1.49-.14.44-.53.76-.99.82ZM439.49,274.32c-.43.05-.85-.14-1.1-.48-.12-.17-.2-.37-.22-.57-.04-.42.14-.84.49-1.09,1.9-1.36,3.77-2.81,5.56-4.3.48-.41,1.26-.34,1.67.15.21.24.3.55.27.87-.03.31-.18.6-.42.8-1.83,1.53-3.75,3.01-5.69,4.4-.16.12-.36.2-.56.22ZM324.72,279.67c-.23.03-.45-.01-.66-.11-2.1-1.05-4.23-2.17-6.34-3.35-.34-.19-.56-.52-.61-.91-.02-.24.02-.49.15-.7.31-.55,1.06-.77,1.61-.46,2.06,1.15,4.17,2.26,6.25,3.29.58.29.82,1.01.53,1.59-.18.36-.53.6-.93.65ZM455.35,260.09c-.34.04-.67-.07-.92-.29-.22-.2-.36-.47-.39-.76-.04-.33.07-.67.29-.91,1.55-1.73,3.06-3.56,4.48-5.41.38-.5,1.16-.61,1.66-.23.52.4.62,1.15.22,1.66-1.45,1.9-3,3.77-4.59,5.55-.2.22-.46.36-.75.39ZM305.82,269.77c-.22.02-.43,0-.63-.1-2.13-.97-4.31-1.89-6.48-2.74h0c-.42-.16-.71-.54-.76-.98-.01-.19,0-.38.07-.55.23-.59.94-.91,1.53-.68,2.18.83,4.4,1.77,6.62,2.78.29.13.51.36.62.66.11.3.1.62-.03.91-.17.38-.54.64-.94.69ZM198.32,281.61c-.38.04-.77-.11-1.03-.4-.21-.24-.31-.55-.29-.86.02-.32.16-.61.41-.82.02-.01,2.05-1.78,5.84-4.34.53-.36,1.3-.2,1.65.33.18.26.24.57.18.88-.05.32-.24.58-.5.76-1.89,1.27-3.33,2.34-4.19,3.01-.54.42-1.02.81-1.39,1.12,0,0-.01,0-.02.02,0,0,0,0,0,0-.18.16-.4.26-.65.29ZM285.7,262.73c-.14.02-.28,0-.42-.02-2.27-.56-4.59-1.05-6.88-1.45-.52-.09-.93-.52-.98-1.05-.01-.11,0-.22,0-.32.11-.63.74-1.08,1.38-.96,2.34.41,4.71.91,7.03,1.48.64.15,1.03.8.87,1.43-.12.49-.53.84-1.02.9ZM216.4,270.29c-.5.06-.98-.21-1.2-.66-.06-.13-.09-.26-.11-.4-.05-.49.22-.96.66-1.18t0,0h.03c2.14-1.05,4.34-2.03,6.54-2.92.6-.24,1.31.06,1.55.65.12.3.11.62,0,.91-.12.29-.35.52-.65.64-2.16.88-4.32,1.84-6.43,2.86-.12.06-.25.1-.39.11ZM264.6,259.79c-.06,0-.12.01-.17,0-2.35-.07-4.71-.06-7.03.03-.62.02-1.15-.43-1.22-1.04v-.09c-.03-.65.47-1.21,1.12-1.23,2.39-.09,4.82-.1,7.2-.03.66.02,1.17.57,1.15,1.23-.02.58-.47,1.07-1.05,1.13ZM236.41,262.93c-.59.07-1.14-.32-1.28-.88-.01-.05-.02-.1-.03-.15-.07-.59.3-1.14.88-1.29,0,0,0,0,0,0,.03,0,.04-.01.06-.01,2.29-.59,4.63-1.1,6.97-1.53.64-.12,1.26.31,1.38.95.12.64-.31,1.26-.95,1.37-2.29.43-4.6.93-6.87,1.52-.05.01-.11.03-.16.03Z"/>
  <path class="st18" d="M178.91,463.32h.05c2.37.16,4.79.23,7.2.23t0,0c.61,0,1.11-.46,1.17-1.07,0-.04,0-.08,0-.12,0-.65-.54-1.17-1.19-1.18-2.32,0-4.69-.07-7.03-.22-.65-.04-1.22.46-1.26,1.11-.05.63.42,1.18,1.05,1.25ZM164.82,461.44c.6.07,1.17-.35,1.29-.94,0-.03.01-.06.02-.09.08-.61-.33-1.19-.94-1.31-2.28-.46-4.57-1.01-6.84-1.64-.63-.17-1.28.2-1.46.82-.17.63.2,1.29.82,1.46,2.32.64,4.67,1.21,6.99,1.68.04.01.07.01.11.02ZM200.21,462.58c.1.01.19,0,.29,0,2.32-.3,4.71-.69,7.09-1.15,0,0,0,0,0,0,.51-.1.89-.51.94-1.03.01-.11,0-.24-.02-.35-.12-.63-.75-1.06-1.38-.94h0s-.04.01-.06.02c-2.28.44-4.6.82-6.89,1.12-.65.09-1.11.68-1.02,1.33.08.54.5.96,1.04,1.02ZM144.5,455.02c.52.06,1.01-.22,1.22-.7.04-.11.08-.23.09-.35.06-.52-.22-1.01-.7-1.22-2.14-.93-4.27-1.95-6.34-3.03-.56-.3-1.31-.06-1.59.5-.15.28-.18.6-.08.91.1.3.3.54.58.69,2.12,1.1,4.3,2.15,6.49,3.1h.01c.1.05.22.08.33.09ZM221.01,457.9c.17.02.34,0,.49-.05,2.27-.72,4.54-1.51,6.78-2.36h0c.42-.17.71-.54.76-.98.02-.19,0-.38-.07-.55-.22-.59-.92-.91-1.52-.69t0,0s-.03.02-.05.02c-2.21.84-4.43,1.61-6.6,2.3-.62.2-.97.87-.77,1.49.14.44.53.76.99.82ZM125.98,444.5c.43.05.85-.14,1.1-.48.12-.17.2-.37.22-.57.04-.42-.14-.84-.49-1.09-1.9-1.36-3.77-2.81-5.56-4.3-.48-.41-1.26-.34-1.67.15-.21.24-.3.55-.27.87.03.31.18.6.42.8,1.83,1.53,3.75,3.01,5.69,4.4.16.12.36.2.56.22ZM240.75,449.84c.23.03.45-.01.66-.11,2.1-1.05,4.23-2.17,6.34-3.35.34-.19.56-.52.61-.91.02-.24-.02-.49-.15-.7-.31-.55-1.06-.77-1.61-.46-2.06,1.15-4.17,2.26-6.25,3.29-.58.29-.82,1.01-.53,1.59.18.36.53.6.93.65ZM110.12,430.27c.34.04.67-.07.92-.29.22-.2.36-.47.39-.76.04-.33-.07-.67-.29-.91-1.55-1.73-3.06-3.56-4.48-5.41-.38-.5-1.16-.61-1.66-.23-.52.4-.62,1.15-.22,1.66,1.45,1.9,3,3.77,4.59,5.55.2.22.46.36.75.39ZM259.65,439.95c.22.02.43,0,.63-.1,2.13-.97,4.31-1.89,6.48-2.74h0c.42-.16.71-.54.76-.98.01-.19,0-.38-.07-.55-.23-.59-.94-.91-1.53-.68-2.18.83-4.4,1.77-6.62,2.78-.29.13-.51.36-.62.66-.11.3-.1.62.03.91.17.38.54.64.94.69ZM367.15,451.78c.38.04.77-.11,1.03-.4.21-.24.31-.55.29-.86-.02-.32-.16-.61-.41-.82-.02-.01-2.05-1.78-5.84-4.34-.53-.36-1.3-.2-1.65.33-.18.26-.24.57-.18.88.05.32.24.58.5.76,1.89,1.27,3.33,2.34,4.19,3.01.54.42,1.02.81,1.39,1.12,0,0,.01,0,.02.02,0,0,0,0,0,0,.18.16.4.26.65.29ZM279.77,432.9c.14.02.28,0,.42-.02,2.27-.56,4.59-1.05,6.88-1.45.52-.09.93-.52.98-1.05.01-.11,0-.22,0-.32-.11-.63-.74-1.08-1.38-.96-2.34.41-4.71.91-7.03,1.48-.64.15-1.03.8-.87,1.43.12.49.53.84,1.02.9ZM349.07,440.47c.5.06.98-.21,1.2-.66.06-.13.09-.26.11-.4.05-.49-.22-.96-.66-1.18t0,0h-.03c-2.14-1.05-4.34-2.03-6.54-2.92-.6-.24-1.31.06-1.55.65-.12.3-.11.62,0,.91.12.29.35.52.65.64,2.16.88,4.32,1.84,6.43,2.86.12.06.25.1.39.11ZM300.87,429.97c.06,0,.12.01.17,0,2.35-.07,4.71-.06,7.03.03.62.02,1.15-.43,1.22-1.04v-.09c.03-.65-.47-1.21-1.12-1.23-2.39-.09-4.82-.1-7.2-.03-.66.02-1.17.57-1.15,1.23.02.58.47,1.07,1.05,1.13ZM329.06,433.11c.59.07,1.14-.32,1.28-.88.01-.05.02-.1.03-.15.07-.59-.3-1.14-.88-1.29,0,0,0,0,0,0-.03,0-.04-.01-.06-.01-2.29-.59-4.63-1.1-6.97-1.53-.64-.12-1.26.31-1.38.95-.12.64.31,1.26.95,1.37,2.29.43,4.6.93,6.87,1.52.05.01.11.03.16.03Z"/>
  <g>
    <path class="st17" d="M77.09,426.61c.21,0,.41-.05.59-.16l25.29-14.61,24.43-9.1c.43-.16.74-.56.77-1.03.03-.46-.21-.9-.61-1.12l-64.1-35.09c-.41-.23-.92-.19-1.29.1-.37.28-.54.76-.43,1.22l14.21,58.88c.09.36.34.66.69.81.15.06.31.1.47.1ZM124.14,401.43l-22.09,8.23c-.06.02-.12.05-.18.08l-24,13.87-13.21-54.74,59.48,32.56Z"/>
    <path class="st17" d="M101.9,411.8c.28,0,.56-.1.79-.3.49-.43.54-1.18.1-1.67l-38.06-42.99c-.43-.49-1.18-.54-1.67-.1-.49.43-.54,1.18-.1,1.67l38.06,42.99c.23.26.56.4.89.4Z"/>
    <path class="st17" d="M94.2,427.4s.09,0,.14,0c.4-.05.75-.29.93-.66l7.28-14.85c.29-.59.05-1.3-.54-1.59-.59-.29-1.3-.05-1.59.54l-6.47,13.2-4.76-5.76c-.42-.5-1.16-.58-1.67-.16-.5.42-.58,1.16-.16,1.67l5.93,7.18c.23.27.56.43.91.43Z"/>
  </g>
  <g>
    <path class="st11" d="M221.06,251.63c-21.36-1.84-24.95-20.08-23.01-36.05,1.09-9,5.88-16.57,10.33-24.18,6.32-10.82,9.3-22.48,10.29-34.95,1.6-20,3.56-40.02,12.3-58.55,6.19-13.12,14.42-24.86,27.51-31.6,17.53-9.02,35.89-14.6,56.21-10.53,13.52,2.7,26.39,6.7,35.8,16.96,5.96,6.5,13.69,11.02,18.82,18.31,8.79,12.49,11.68,26.25,10.1,41.31-1.02,9.76-4.04,19.02-6.38,28.43-3.9,15.69-2.94,30.76,2.93,45.77,3.39,8.68,5.73,17.63,4.9,27.18-.67,7.69-3.56,14.1-9.13,19.42-1.34,1.28-2.62,1.92-4.4,1.22-4.88-5.87-8.13-12.48-8.54-20.59-4.43,7.86-7.47,15.47-4.59,24.12-6.64,2.5-13.6,2.18-20.51,2.27-5.54.73-10.02-2.07-14.57-4.48-1.11-.59-1.25-1.98-1.15-3.24.15-1.8.21-3.59.27-5.39.35-9.6.71-9.75,9.52-12.96,14.61-5.33,24.58-15.68,30.98-29.67,5.47-11.97,6.51-24.92,8.02-37.71,1.05-8.93,2.9-17.78,2.95-26.82,0-2.01.08-3.9-1.94-5.07-.77-1.33-.82-2.72-.31-4.14,1.97-1.87,2.1-3.85,1.12-6.45-3.78-9.97-9.85-18.42-16.88-26.28-.6-.67-1.37-1.74-2.1-1.53-5.02,1.43-4.76-2.27-5.34-5.24-.2-1-.28-2.1-1.51-2.93-.7,1.37.06,2.59.27,3.75,2.47,13.42-.97,24.9-11.37,33.96-1.62,1.41-2.21,3.1-2.81,4.94-5.65,4.44-13.12,4.05-17.02-.88-.38-2.43,1.59-3.39,3.03-4.59,8.45-7.04,13.58-15.85,14.77-26.89.23-2.11.53-4.19-.1-6.23-.5-1.63.06-4.83-1.63-4.59-2.29.33-4.95,1.73-5.53,5-1.14,6.46-4,12.18-7.89,17.47-5.68,7.73-13.01,13.21-21.92,16.6-1.92.73-3.82,1.3-2.68,4.01-4.26,3.55-9.61,4.3-14.72,5.6-1.16.3-2.37-.08-3.04-1.31-.7-2.27.86-3.68,2.07-5.16,6.43-7.85,11.48-16.51,15.18-25.96.3-.78.99-1.51.33-2.93-2.16,4.39-4.07,8.55-6.22,12.58-6.16,11.52-13.72,21.86-24.91,29.11-4.26,2.76-8.13,3.91-13.38,1.6-9.06-3.98-18.66,2.05-20.54,12.79-1.82,10.35-.22,20.04,8.13,27.66,5.09,4.65,10.87,6.85,17.7,5.83,3.45-.52,5.8.34,7.07,3.83,1.76,4.83,4.68,9.07,7.48,13.34,1.63,2.48,2.65,5.09,2.34,8.05-.9,8.66-1.48,17.36-3.48,25.86-.43,1.81-.48,4.38-2.77,4.66-2.17.26-3.15-2.05-4.14-3.68-4.77-7.81-6.68-16.3-5.67-25.41.15-1.35.27-2.69.33-4.04.03-.55.23-1.16-.29-1.62-4.22,11.31.56,30.23,9.31,37.79,2.57,2.22,6.09,2.38,8.53,4.66-2.98,4.37-7.49,2.71-11.51,2.95-1.4-.83-2.53-2.01-4.13-2.64-13.6-5.4-20.79-15.98-20.94-30.53-.01-1.4.48-2.92-.99-4.84-.76,10.56,1.18,19.61,7.83,27.33,1.47,1.7,3.16,3.21,4.82,4.74,1.26,1.17,3.37,2.23,2.2,4.35-1.03,1.86-2.95,2.44-5.08,1.58-4.33-.89-8.7-1.67-12.99-2.72-1.66-.41-3.49-.82-4.61-2.41-1.05-1.63-1.9-3.37-3.13-4.92-6.41-8.08-8.43-17.39-7.44-27.49.1-1.03.51-2.05-.29-4.02-.89,3.52-1.6,6.26-1.34,9.13.74,7.99,2.04,15.8,7.44,22.27,1.12,1.34,2.45,2.72,2.06,4.78Z"/>
    <path class="st24" d="M241.36,257c1.77-.63,3.54-1.26,6-2.13-7.16-4.99-12.4-10.73-15.03-18.53-1.8-5.34-2.51-10.79-2.05-16.39.12-1.46.1-3.38,2.25-3.14,1.98.22,1.33,2.03,1.26,3.27-.71,13.3,3.4,24.22,15.45,31.14,1.79,1.03,3.8,1.85,5.81,2.26,1.69.34,2.29,1.11,2.36,2.63-.39,1.59-.08,2.87,1.28,3.98,10.2,8.42,21.21,15.33,34.56,17.29,6.38.93,12.89,1.14,19-1.74,4.04-1.9,7.54-4.42,9.05-8.87.57-1.68.99-3.5-.89-4.93-1.45.99-1.48,4.22-4.18,2.97-2.21-1.03-2.26-3.31-2.4-5.45-.16-2.49,1.83-5.19-.04-7.4-1.7-2.01-4.7-1.7-7.05-2.66-7.3-2.97-13.05-7.84-17.58-14.22-1.91-2.69-3.69-5.47-5.61-8.15-1.03-1.44-2.34-3.13-.48-4.77,1.72-1.51,3.42-.42,4.88.68,5.5,4.17,11.8,6.48,18.42,8.04,20.56,4.83,35.89-5.18,46.54-22.55,2.43-3.96,4.37-8.21,5.42-12.8,1.56-5.65,2.93-11.33,3.41-17.2,1.36-11.85,3.27-23.64,4.29-35.53.24-2.85-.05-6.03,2.4-8.32,2.85-.09,2.92,1.64,2.78,3.86-.66,10.63-2.41,21.13-3.67,31.69-1.12,9.36-1.92,18.8-4.93,27.8-5.09,15.21-14.09,27.34-28.47,35.01-2.64,1.41-5.4,2.96-8.38,3.06-4.75.16-5.84,2.84-5.98,6.84-.12,3.44-.49,6.88-.89,10.3-.2,1.7.57,2.48,2.03,2.95,4.26,1.37,8.5,2.78,12.76,4.17,7.48,3.35,14.91,6.81,22.45,10.03,15.51,6.61,27.89,16.74,36.53,31.37,3.66,6.19,7.82,12.07,11.58,18.2,1.3,2.12,2.28,2.48,4.43.98,2.68-1.87,5.74-3.18,8.57-4.85,1.24-.74,2.14-.89,3.66-.31,8.24,3.11,8.25,3,4.73,11.12-2.14,4.93-4.02,9.99-6.31,14.85-1.04,2.21-.84,3.89.39,5.85,2.06,3.3,3.89,6.74,5.89,10.08,1.1,1.84,1.23,3.45-1.06,4.27-3.32,1.19-2.32,3.06-1.18,5.24,7.04,13.53,13.82,27.17,19.12,41.5,2.61,7.06,4.36,14.29,4.27,21.92-.23,20.4-16.09,32.12-35.73,26.38-8.15-2.38-14.82-7.08-20.83-12.83-2.9-2.77-5.61-5.74-9.08-9.31-.77,8.96.18,16.74,1.9,24.43,1.12,5.05-.06,9.47-4.13,12.45-2.99,2.19-3.08,4.52-2.55,7.67,1.86,11.05,2.22,8.6-7.49,10.45-16.36,3.12-32.99,4.54-49.61,5.57-21.76,1.36-43.54,1.58-65.31.03-13.92-.99-27.78-2.5-41.6-4.48-3.26-.47-4.4-2.02-3.61-5.17.29-1.16.37-2.37.64-3.54.79-3.48.37-6.51-3.32-8.06-2.47-1.04-2.3-5.44-5.38-4.85-2.33.44-4.32,2.57-6.53,3.84-7.23,4.15-15,6.72-23.29,7.69-10.44,1.22-20.19-5.03-25.42-16.36-5.22-11.32-5.23-23.3-4.09-35.32,1.33-14.05,4.59-27.76,8.29-41.36.62-2.27.4-3.68-1.62-5.32-6.47-5.26-6.45-5.8-3.79-13.66,5.72-16.85,12.54-33.32,18.32-50.12,8.34-24.22,24.22-40.41,48.01-49.33,10.34-3.88,20.55-8.13,30.82-12.21Z"/>
    <path class="st29" d="M186.84,221.17c-.02-11.26,2.7-20.9,8.81-28.85,10.81-14.07,13.7-30.21,14.73-47.2.96-15.87,2.73-31.66,9.03-46.5,5.31-12.5,12.98-23.24,24.05-31.36.6-.44,1.22-.87,1.82-1.31,1.29-.96,2.5-1.05,3.43.45.98,1.57-.41,2.17-1.35,2.76-5.55,3.46-10.1,8-14.16,13.05-10.68,13.29-15.4,28.93-17.37,45.52-1.19,9.97-1.86,20.01-2.85,30.01-1.24,12.63-5.55,24.06-12.97,34.43-6.42,8.97-10.16,18.91-9.6,30.22.26,5.19,1.57,10.01,3.62,14.72.52,1.19,2.17,2.79.04,3.84-2.39,1.18-2.73-1.28-3.31-2.56-2.64-5.78-4.21-11.84-3.9-17.22Z"/>
    <path class="st5" d="M384.3,122.55c-1.01-16.87-7.46-31.97-23.14-42.18-1.21-.79-3.04-1.49-1.89-3.39,1.21-2,2.71-.48,3.83.23,13.8,8.75,20.94,21.81,23.98,37.45,2.49,12.81-.94,25-4.07,37.2-1.93,7.54-4.07,15.04-4.89,22.8-1.12,10.6,1.66,20.47,5.93,30.05,4.98,11.17,7.68,22.7,4.85,34.96-.4,1.74-1.01,3.44-1.62,5.12-.45,1.24-1.26,2.15-2.73,1.43-1.15-.57-1.19-1.54-.73-2.67,4.79-11.8,3.2-23.47-2.15-34.39-9.32-19.03-8.46-38.11-2.31-57.64,2.84-9.01,4.65-18.28,4.94-28.97Z"/>
    <path class="st25" d="M351.23,64.17c-.01,1.29-.42,1.82-1.09,2.28-1.27.89-1.94-.11-2.64-.8-12.35-12.1-27.64-15.94-44.33-15.82-8.92.07-17.5,1.73-25.69,5.35-.95.42-2.39,1.96-3.42-.1-1.06-2.13.76-2.64,2.03-3.2,21.83-9.61,52.98-7.56,72.35,9.36,1.1.96,2.03,2.12,2.8,2.94Z"/>
    <path class="st19" d="M354.19,257.9c-3.81-5.82-2.98-13.01,2.03-19.12,1.22-1.49.13-3.48.4-5.23.16-1.07.26-2.21,1.64-2.27,1.34-.05,1.77.95,1.82,2.09.34,7.23,1.99,13.91,7.7,18.98.25.22-.28,1.33-.44,2.02-.36.15-.72.31-1.09.46-3.37.57-4.57-2.12-6.15-4.16-1.17-1.51-1.55-3.46-2.58-5.21-2.24,3.84.66,7.91-.84,11.65-.82.26-1.65.52-2.47.79Z"/>
    <path class="st30" d="M221.06,251.63c-5.85-6.89-9.73-14.6-10.46-23.77-.31-3.94.23-7.77.63-11.65.15-1.48.64-2.83,2.37-2.57,1.62.24,1.44,1.76,1.22,2.92-1.12,5.84-.92,11.61.57,17.37,1.34,5.17,3.47,9.9,7.34,13.66,1.35,1.32,1.85,2.59,1.03,4.3-.93.21-1.84.33-2.69-.25Z"/>
    <path class="st8" d="M441.39,325.74c-.03,3.6-.55,7.11-1.89,10.49-.53,1.35-1.08,2.65-2.78,2.18-1.96-.55-1.21-2.05-.77-3.28,2.77-7.66,2.88-15.14-1.52-22.3-.67-1.09-1.3-2.38.02-3.11,1.4-.78,2.46.26,3.24,1.53,2.74,4.45,3.91,9.29,3.69,14.49Z"/>
    <path class="st23" d="M450.95,326.3c-.35,3.76-.55,7.65-2.12,11.26-.49,1.13-.95,2.9-2.71,2.27-1.72-.61-1.1-1.99-.63-3.36,2.3-6.69,2.58-13.42-.05-20.1-.48-1.23-.91-2.34.56-2.99,1.75-.78,2.51.66,2.95,1.87,1.28,3.52,1.91,7.19,2,11.04Z"/>
    <path class="st1" d="M122.7,271.08c6.47,1.59,13.88,3.38,21.27,5.26,1.07.27,1.81,1.15,1.36,2.42-.45,1.26-1.56,1.42-2.6,1.07-6.96-2.34-14.18-3.58-21.31-5.21-1.13-.26-2.1-.69-1.98-1.98.12-1.27,1.11-1.65,3.26-1.56Z"/>
    <path class="st22" d="M143.84,292.1c-.15,1.33-1.06,1.77-2.06,2.16-6.27,2.41-12.2,5.52-18.13,8.63-1.11.58-2.48,1.71-3.5.04-.98-1.6.33-2.49,1.57-3.09,6.27-3.07,12.55-6.14,18.87-9.09,1.35-.63,3.02-.98,3.26,1.35Z"/>
    <path class="st11" d="M356.66,257.11c-1.2-4.94-1.84-9.87.48-15.19,3.03,4.51,3.23,10.83,9.1,12.92-2.72,2.76-6.52.95-9.58,2.28Z"/>
    <path class="st7" d="M368.44,134.48c-1.62,13.37-3.24,26.74-4.84,40.11-.18,1.49-.09,3.01-.9,4.36-1.47.95-2.57-.2-3.73-.72-3.17-1.42-5.97-.59-8.29,1.62-2.71,2.57-3.67,5.83-2.45,9.47,1.03,3.06,2.95,5.18,6.44,5.46,1.61.13,3.35-.18,4.7,1.1-4.34,19.3-22.55,36.34-40.59,37.37-11.56.65-22.1-2.98-31.65-9.5-1.12-.76-2.18-2.66-3.78-1.07-1.73,1.72.58,2.6,1.25,3.63,2.87,4.38,5.68,8.82,9.26,12.68,5.23,5.63,11.38,9.78,19.15,10.75,2.47.31,2.93,1.27,2.68,3.39-.26,2.23-.45,4.48-.46,6.73,0,1.72-.33,4.35,1.9,4.41,2.87.09,1.05-2.75,1.62-4.19,4.76.65,5.51,1.93,3.88,6.66-2.37,6.86-9.87,11.72-18.83,12.22-19.91,1.1-35.17-8.52-49.44-21.16,1.23-.68,2.14-1.18,3.05-1.68,3.74-.78,7.89.6,11.25-2.16-4.65-2.95-5.03-6.92-3.66-11.98,2.4-8.85,2.55-18.07,3.55-27.14.26-2.33-.42-4.46-1.76-6.37-3.47-4.92-6.35-10.18-8.84-15.64-1.24-2.72-2.95-3.57-6.03-3.21-14.53,1.67-26.16-8.64-26.52-23.27-.11-4.5-.14-8.96,1.92-13.2,4.76-9.76,15.45-11.79,23.53-4.39,1.42,1.3,2.54,2.93,5,4.42-3.03-4.55-1.43-6.89,2.41-8.78,3.78-1.86,6.81-4.88,10.02-7.58,1.24-1.04,2.25-2.48,4.14-2.39,3.83,2.66,6.91-.88,10.35-1.37,2.27-.32,4.39-1.62,6.58-2.49.09-.66.52-1.06,1.1-1.26,15.08-5.31,25.26-15.78,31.8-30.11.38-.82.91-1.54,1.74-1.98.88-.34,1.75-.34,2.59.13,1.91,2.45,1.12,5.11.41,7.66-2.43,8.66-7.56,15.4-14.87,20.54-1.75,1.23-3.59,2.45.1,3.51,3.83,4.66,10.76,5.01,16.19.83,10.91-6.59,15.87-16.65,17.01-29.01.34-3.67,1.48-4.06,4.64-2.04,2.45,1.57,4.02,3.98,5.86,6.15,4.81,5.66,8.14,12.19,11.05,18.94.86,1.99,2.09,4.05,1.27,6.43.07,1.38.13,2.75.2,4.13Z"/>
    <path class="st27" d="M272.43,134.43c-5.13,4.6-10.01,9.53-16.3,12.6-1.61.78-2.05,1.57-.69,2.96.63.64,1.21,1.33,1.75,2.05.82,1.08,1.01,2.23-.24,3.1-1.16.8-1.87.01-2.57-.9-.91-1.19-1.88-2.34-2.93-3.41-9.25-9.45-20.72-6.5-24.3,6.25-3.8,13.52,3.71,27.79,16.38,31.12,3.11.82,6.22.89,9.31-.05,2.72-.83,4.33-.22,5.49,2.69,2.44,6.12,5.77,11.83,9.65,17.17,1.32,1.81,1.79,3.72,1.66,5.89-.62,10.48-1.58,20.92-4.01,31.16-.62,2.59-1.6,5.2,2.26,6.26,1.15.32,1.32,1.52.78,2.65-5.12.33-8.45-2.82-11.28-6.33-8.64-10.7-9.76-23.17-7.89-36.21.16-1.13.16-3.08,2.2-2.74,2.24.37,1.53,2,1.29,3.51-1.81,11.33-.8,22.13,6.21,31.73.44.6.92,1.19,1.42,1.74.18.2.51.27.97.51,3.03-10.77,3.88-21.78,4.63-32.8.1-1.48-.58-2.56-1.36-3.69-3.48-5.07-6.76-10.28-8.93-16.06-.74-1.96-1.76-2.43-3.68-2.07-10.46,1.95-18.78-1.94-24.44-10.49-6.28-9.49-7.17-20-2.12-30.36,4.06-8.33,13.34-11.12,21.88-6.89,2.45,1.21,4.24,1.1,6.58-.02,8.82-4.21,15.25-11.02,20.87-18.72,5.32-7.29,9.72-15.1,12.95-23.55.5-1.31.54-3.9,3-2.84,2.32.99.72,2.92.2,4.26-4.48,11.54-11.14,21.8-18.76,31.49Z"/>
    <path class="st12" d="M324.08,97.77c-5.39,13.14-13.86,23.52-26.77,29.95-2.54,1.27-5.17,2.26-7.94,2.85-1.29-.33-2.3-1.15-2.13-2.47.15-1.16,1.5-1.17,2.46-1.52,16.99-6.13,28.17-17.49,31.97-35.52.32-1.53.07-4.11,3.08-2.87.58.24.8.03.84-.41.15-1.65.64-3.27,2.63-2.63,1.78.57,1.79,2.58,2.03,4.17,2.33,15.71-3.58,28.03-15.65,37.78-.79.64-1.57,1.3-2.36,1.95-1.44.34-3.12,2.16-4.19-.25-1.03-2.29,1.33-2.63,2.54-3.49,9.49-6.77,15.96-15.27,16.04-27.51-1.8-2.05-.26-4.3-.4-6.58-.36,2.38-.19,4.82-2.14,6.55Z"/>
    <path class="st16" d="M368.24,130.36c-3.44-9.06-7.21-17.93-13.7-25.35-2.25-2.58-4.49-5.14-7.84-7.26-.41,4.59-.62,8.97-1.93,13.17-2.2,7.05-6.09,12.9-12.01,17.33-1.26.94-2.41,2.39-4.34,1.64-.57-1.53-.42-2.61,1.08-3.78,12.07-9.46,15.43-21.78,11.69-36.37-.34-1.33-1.47-3.04.79-3.69,2.05-.58,2.51,1.07,2.83,2.59.52,2.46.99,4.94,1.64,8.2,1.65-3.42,3.21-2.48,4.84-.8,8.33,8.58,14.97,18.24,18.92,29.61.7,2.01,2.06,4.57-1.98,4.69Z"/>
    <path class="st31" d="M197.75,279.56c12.07-7,25.33-11.29,38.08-16.74,2.09-.89,2.92.6,3.99,1.89,13.23,15.88,29.8,26.22,50.21,30.1,8.53,1.62,16.98,1.23,25.34-1.35,11.85-3.66,19.65-11.29,22.68-23.31.86-3.4,1.98-3.28,4.52-2.09,5.41,2.55,10.94,4.86,16.36,7.38,12,5.57,21.66,13.88,28.83,25.03,4.46,6.93,8.8,13.95,13.4,20.79,1.72,2.56,1.07,3.8-1.32,5.27-2.67,1.64-5.65,3.3-7.44,5.73-3.56,4.81-7.38,2.84-11.38,1.39-1.43-.51-1.85-1.61-2.24-3.04-1.66-6.06-3.5-12.07-5.35-18.08-.42-1.35-.77-3.37-2.81-2.72-2.18.7-.93,2.55-.56,3.82,1.76,5.96,3.66,11.88,5.72,18.5-19.15-5.47-38.07-5.65-56.82-7.15-1.56-.13-2.58-.21-3.29-2.15-2.06-5.65-5.16-7.25-10.83-5.47-3.07.96-5.15.05-7.85-1.3-13.61-6.82-22.42-19.16-33.65-28.7-3.73-3.17-5.78-3.59-8.83-.68-3.29,3.13-3.37,6.47-.03,9.67,6.79,6.52,13.66,12.95,20.51,19.43-.51.54-.67.86-.88.91-9.11,2.23-15.01,7.83-18.79,16.43-3.85,8.76-9,16.96-12.73,25.76-4.07,9.63-11.48,15.36-21.15,20.42,2.61-9.14.62-18.57,6.83-26.51,3.66-4.67,6.22-10.22,9.27-15.37.8-1.35,1.61-3.03-.03-3.97-2.03-1.16-2.33,1.1-3.01,2.27-2.45,4.24-4.85,8.51-8.03,12.53.46-3.91.92-7.82,1.39-11.73.14-1.19.39-2.37.48-3.56.1-1.34.29-3.05-1.46-3.27-1.85-.24-1.89,1.5-2.06,2.83-.63,5.06-1.13,10.13-1.87,15.17-1.5,10.23-3.05,20.45-4.74,30.65-.97,5.86-8.17,9.94-14.02,8.23-17.24-5.03-34.72-9.09-52.32-12.64,5.27-13.85,9.83-27.95,14.95-41.85,5.37-14.6,10.6-29.31,20.12-41.98,3.08-4.11,7.01-7.22,10.79-10.54Z"/>
    <path class="st7" d="M306.02,333.62c-5.62-8.66-13.59-8.21-21.8-6.95-2.07.32-4.15.65-6.23.88-1.49.16-3.47,0-3.35,2.03.15,2.51,2.41,1.73,3.89,1.59,4.33-.4,8.67-.81,12.96-1.54,6.09-1.04,9.4,2.84,12.78,6.74.66.76.81,1.59.19,2.45-.75,1.04-1.48.34-2.32.04-7.03-2.55-14.24-1.18-21.39-.79-1.1.06-2.73.1-2.51,1.84.22,1.74,1.73,1.81,3.15,1.71,3.59-.24,7.19-.53,10.78-.68,1.79-.08,3.66-.18,5.38.22,1.93.45,5.42.46,4.23,3.52-.94,2.41-.14,7.5-6.12,5.88-3.96-1.07-8.35-.54-12.55-.66-.98-.03-2.32-.12-2.35,1.38-.03,1.69,1.35,1.7,2.57,1.78,3.75.25,7.49.49,11.24.74,2.31.15,3.25.57,2.39,3.53-1.46,5.03-4.12,7.6-9.4,7.25-2.7-.18-3.79.92-4.37,3.77-2.34,11.43-7.03,21.34-18.83,26.03-2.04.81-3.15,2.71-4.44,4.36-13.47,17.28-26.43,34.98-41.74,50.74-10.32,10.62-21.7,19.76-35.79,25.05-23.33,8.75-33.6-4.7-36.88-21.65-3.02-15.63-.46-31.09,2.97-46.38,1.87-8.32,4.19-16.53,6.24-24.8.6-2.43,1.16-3.59,4.44-2.91,15.02,3.13,29.82,7.07,45.17,11.38-7.79,4.7-15.09,9.05-22.32,13.5-5.37,3.31-10.47,7-15.07,11.35-1.19,1.12-2.95,2.39-1.15,4.02,1.67,1.52,2.61-.61,3.57-1.53,7.67-7.33,16.88-12.4,25.86-17.8,13.09-7.86,26.21-15.65,38.87-24.21,3.34-2.25,5.9-4.96,7.73-8.52,6.28-12.23,12.69-24.4,18.93-36.65,2.08-4.09,5.15-6.7,9.42-8.43,21.26-8.6,17.52-7.32,34.41,2.86,5.6,3.37,4.64,3.16,1.44,8.83Z"/>
    <path class="st7" d="M270,445.78c5.23-12.61,10.31-24.87,15.4-37.12,9.85-23.73,19.79-47.43,29.45-71.24,1.32-3.25,2.95-3.8,5.98-3.38,21.82,3.03,43.64,6,65.48,8.88,2.52.33,3.06,1.01,2.06,3.39-4.01,9.5-8.01,19-11.72,28.62-1.13,2.95-3.03,2.36-5.02,2.04-5.78-.95-11.57-1.77-17.45-1.59-1.34.04-2.71.13-3.99.47-2.87.75-4.69,2.6-5.05,5.62-.38,3.19,1.46,5.08,4.1,6.25,5.6,2.48,11.7,3.34,18.61,5.51-5.73.83-10.21-.34-14.72-1.05-4.3-.67-8.61-1.5-12.96-1.23-5.33.33-9.46,3.44-8.12,6.88,1.83,4.69.63,10.62,5.4,14.14.58.43,1.32.82,1.16,1.74-1.44,8.35,5.04,11.19,10.45,14.39,5.98,3.54,6.2,3.27,3.67,9.91-1.48,3.91-2.13,9.17-5,11.2-2.63,1.86-7.76.31-11.78.1-21.87-1.14-43.74-2.33-65.94-3.53Z"/>
    <path class="st31" d="M377.06,439.85c.25,7.4,1.23,13.9,2.53,20.39,1.09,5.44-2.86,10.83-9.25,12.48-7.39,1.91-14.95,2.79-23.55,2.88,2.16-1.64,3.65-2.73,5.09-3.88.93-.74,1.3-1.75.55-2.76-.78-1.04-1.78-.9-2.73-.09-11.25,9.56-24.91,9.97-38.66,10.36-13.22.38-26.43.74-39.65.62-14.11-.13-25.32-6.04-34.29-16.67-.87-1.03-1.52-3.15-3.41-1.75-1.83,1.36-.22,2.67.64,3.78,3.72,4.78,8.42,8.43,13.51,12.28-8.37-.56-16.74-1.03-25.1-1.71-4.76-.38-9.58-.6-13.61-3.86-4.66-3.78-4.69-5.26-.2-9.01,11.48-9.57,21.16-20.87,30.5-32.46,7.63-9.47,15.02-19.13,22.4-28.79,1.68-2.2,3.52-4.06,5.99-5.28,6.4-3.15,11.44-7.74,14.41-14.28,1.03-2.27,2.57-2.08,4.88-1.91-6.53,15.89-12.96,31.59-19.43,47.28-1.71,4.15-3.45,8.3-5.34,12.37-.9,1.94-.13,2.82.96,4.55,4.9,7.76,12.72,4.94,19.23,5.44,21.55,1.67,43.17,2.52,64.76,3.76,2.39.14,4.41-.69,6.42-1.72,7.57-3.88,15.12-7.78,23.34-12.02Z"/>
    <path class="st7" d="M342.08,414.78c9.16,5.41,18.44,7.27,28.23,6.71,1.46-.08,3.89.85,3.89-1.63,0-2.13-2.23-2.07-3.87-1.97-9.7.56-18.75-1.54-27.14-6.48-.9-.53-1.78-1.1-2.66-1.67-1.7-1.1-3.63-2.71-2.6-4.59.74-1.35,2.9.22,4.38.64,10.43,2.92,20.99,5.03,31.89,4.75,1.44-.04,3.78.96,3.85-1.67.07-2.57-2.24-1.96-3.73-1.92-12.15.27-23.83-2.12-35.24-6.09-1.65-.58-3.86-.76-3.65-3.18.2-2.25,2.35-2.66,4.06-2.92,6.06-.91,11.91.93,17.82,1.78,7.18,1.02,14.33,1.4,21.55.72,1.28-.12,2.83.16,2.98-1.87.14-1.91-1.4-2.17-2.59-2.55-7.99-2.52-16.03-4.85-24.18-6.82-2.5-.6-6.8-.72-6.23-4.37.53-3.39,4.53-2.69,7.28-2.63,10.83.24,21.45,2.3,32.08,4.12,8.92,1.53,10.38.5,10.59-8.84.1-4.5.04-9.06,2.54-13.06.86-1.37,2.03-2.59,3.24-3.68.72-.65,1.71-1.48,2.82-.85,1.29.73.98,1.93.79,3.18-.89,5.83-.8,11.64.36,17.46,1.62,8.17,1.12,16.45.94,24.7-.03,1.44-1.48,3.67,1.16,4.01,2.78.35,2.2-2.15,2.44-3.81.1-.72.15-1.46.24-2.37,5.15,1.24,9.9,2.92,14.25,5.57,1.54.94,3.08,1.93,4.09-.12.96-1.95-1.24-2.39-2.37-3.07-4.01-2.39-8.36-4.04-12.87-5.15-2.43-.6-3.43-1.65-3.24-4.29.49-6.79-.64-13.49-1.96-20.1-1.11-5.53,3.97-4.78,6.38-6.33,2.45-1.58,2.41,1.79,3.03,3.02,7.49,14.79,15.02,29.59,20.12,45.43,2.37,7.36,3.59,14.95,1.68,22.6-3.48,13.95-15.9,20.34-30.54,15.9-10.74-3.26-18.44-10.73-25.76-18.52.32-1.09,1.02-.88,1.54-.91,1.39-.1,2.37-.64,2.32-2.15-.06-1.81-1.5-1.55-2.66-1.54-7.68.07-15.28-.92-22.9-1.62-6.83-.63-13.27-2.36-18.65-6.93-1.83-1.55-3.57-3.14-3.7-6.85Z"/>
    <path class="st7" d="M327,261.98c9.86,3.2,10.27,3.94,5.87,12.9-5.18,10.55-14.4,15.33-25.53,16.67-20.48,2.47-37.9-4.88-53.5-17.48-4.09-3.3-7.78-7.05-11.27-10.99-1.22-1.38-1.1-2.16.61-2.78,4.02-1.46,7.13-2.54,11.28,1.53,13.46,13.22,29.6,21.24,49.03,20.7,11.35-.32,20.1-6.6,22.62-15.84.39-1.43.56-2.92.9-4.7Z"/>
    <path class="st7" d="M422.93,323.47c-4.14,10.24-7.8,19.33-11.49,28.4-.35.86-.26,1.83-2.03,1.45-5.69-1.2-8.99.68-11.77,6.05-2.44,4.7-2.48,9.77-2.5,14.88-.03,6.25-.27,6.4-6.4,5.21-.29-.06-.58-.17-.87-.22q-8.48-1.47-5.23-9.62c3.27-8.16,6.61-16.3,9.82-24.49.53-1.36,1.38-2.29,2.51-3.04,8.95-5.97,17.91-11.93,27.98-18.63Z"/>
    <path class="st3" d="M197.75,279.56c.72.71.46,1.35-.23,1.84-12.63,9.18-18.49,22.85-24.03,36.63-6.91,17.19-12.9,34.72-18.67,52.32-.53,1.61-.98,3.17-2.93,3.57-1.76-.21-3.53-.43-5.84-.7,4.04-11.14,7.95-22.05,11.95-32.91,4.63-12.58,9.25-25.18,15.47-37.09,5.49-10.51,13.58-18.45,24.28-23.66Z"/>
    <path class="st13" d="M385.48,339.4c-10.49-1.38-20.98-2.7-31.45-4.15-11.28-1.56-22.57-3.1-33.81-4.95-4.37-.72-6.37.94-7.96,4.8-14.34,34.8-28.82,69.54-43.32,104.27-.45,1.07-.19,3.57-2.34,2.71-2.22-.88-.4-2.62.08-3.76,14.84-35.82,29.74-71.62,44.64-107.41.6-1.43.74-3.14,3.2-2.9,17.16,1.62,34.51,1.36,51.44,5.12,6.65,1.48,13.39,2.81,19.53,6.26Z"/>
    <path class="st4" d="M359.36,195.89c-8.4.36-12.33-2.08-12.83-8.15-.34-4.15,1.17-7.49,4.69-9.94,4.22-2.93,7.84-1.11,11.47,1.15-.24,5.82-1.26,11.48-3.34,16.93Z"/>
    <path class="st31" d="M284.92,312.3c-4.46,3.43-7.46,1.73-10.73-1.68-5.27-5.5-11.01-10.54-16.63-15.7-1.86-1.71-3.07-3.25-.86-5.57,2.23-2.34,3.6-.62,5.14.86,7.64,7.33,15.3,14.65,23.08,22.09Z"/>
    <path class="st15" d="M353.14,447.12c1.67-4.47,3.51-8.9,4.95-13.44.67-2.1,1.64-2.4,3.59-2.1,5.01.76,10.06,1.31,16.25,2.09-7.36,7.12-16.65,9.25-24.8,13.45Z"/>
    <path class="st20" d="M421.5,320.19c-10.32,6.85-20.46,13.58-31.48,20.89,3.35-8.02,26.5-23.02,31.48-20.89Z"/>
    <path class="st31" d="M411.31,365.36c.79-6.04,3.15-10.7,5.13-15.92,2.96,2.42,3.67,5.94,5.53,8.67.85,1.26-.47,1.76-1.39,2.26-2.88,1.55-5.77,3.11-9.27,4.99Z"/>
    <path class="st21" d="M292.54,367.39c-1.66,3.72-2.33,7.66-6.8,8.64-.96-6.41.27-8.11,6.8-8.64Z"/>
    <path class="st0" d="M305.41,320.87c2.32-.4,4.84-1.6,6.31,1.32.35.7.7,1.68-.12,1.88-2.83.71-4.22-1.81-6.19-3.21Z"/>
    <path class="st34" d="M291.85,191.55c-7.42.02-12.13-4.39-12.13-11.34,0-6.11,4.48-10.38,10.9-10.4,7.17-.01,12.61,4.81,12.56,11.14-.05,6.37-4.56,10.58-11.33,10.6Z"/>
    <path class="st14" d="M330.11,189.74c-1.24-.13-3.26.45-3.28-1.74-.02-1.7,1.75-1.65,3.08-1.87,1.31-.21,2.67-.41,3.86-.95,3.02-1.38,4.49-3.27,2.05-6.56-4.64-6.28-4.71-13.29-3.01-20.56.36-1.55.58-3.18,2.67-2.7,2,.45,1.31,2.18.97,3.32-1.95,6.72-1.09,12.82,2.77,18.81,3.65,5.66-1.24,12.08-9.13,12.24Z"/>
    <path class="st6" d="M245.33,166.53c-2.41-3.58-4.18-7.69-8.85-9.03-1.08-.31-2.12-.73-1.59-2.11.45-1.16,1.56-1.22,2.65-1.11,1.73.17,3.1,1.07,4.32,2.2,5.56,5.14,8.55,11.78,10.82,18.81.43,1.32.48,2.94-1.2,3.38-1.43.37-1.97-1-2.37-2.16-.1-.28-.04-.63-.18-.87-.88-1.61-.4-4.41-2.73-4.68-2.18-.25-3.7,1.57-4.85,3.44-.59.96-1.11,2.37-2.7,1.33-1.56-1.02-1.01-2.33-.24-3.47.66-.98,1.45-1.95,2.37-2.68,1.38-1.09,2.93-1.97,4.54-3.04Z"/>
    <path class="st9" d="M299.63,162.3c.03-5.12,2.83-9.71,5.93-9.2,4.03.67,4.84,3.94,4.85,7.46.01,4.95-2.53,8.87-5.72,8.92-3.06.04-5.08-2.83-5.05-7.18Z"/>
    <path class="st29" d="M355.77,164.79c-.14,5.88-2.59,9.2-6.07,8.71-3.13-.44-4.88-4.43-4-9.21.16-.87.43-1.75.78-2.56.99-2.28,2.29-4.49,5.2-3.89,4.06.83,3.88,4.31,4.09,6.96Z"/>
    <path class="st26" d="M326.45,205.86c-7.2-.59-13.44-3.03-18.45-8.23-.95-.99-1.98-2.14-.69-3.46,1.56-1.61,2.26.21,3.15,1.02,7.03,6.46,14.79,9.42,24.06,4.97,1.39-.67,2.51-1.01,3.28.73.87,1.95-.82,2.33-1.9,2.84-3,1.41-6.25,1.91-9.44,2.13Z"/>
    <path class="st14" d="M315.84,138.72c-.49,1.65-1.7,1.75-3.12,1.08-5.44-2.55-10.7-2.19-15.82.86-.94.56-1.92,1-2.74-.17-.77-1.1-.2-1.95.58-2.75,3.72-3.8,15.81-4.37,20-.96.59.48,1.18.93,1.09,1.94Z"/>
    <path class="st28" d="M363.63,145.79c-.8,1.78-2.18,2.46-3.47,1.01-3.63-4.1-8.11-4.66-13.07-3.66-1.2.24-2.1.03-2.38-1.27-.23-1.06.46-1.54,1.31-2.04,3.96-2.33,14.86.66,17.09,4.75.21.38.34.8.52,1.21Z"/>
    <path class="st11" d="M324.08,97.77c.61-2.37,1.22-4.74,1.83-7.1.68,2.4,1.42,4.72.71,7.13-.85,0-1.69-.02-2.54-.03Z"/>
  </g>
  <g>
    <path class="st17" d="M488.38,256.44c-.21,0-.41-.05-.59-.16l-25.29-14.61-24.43-9.1c-.43-.16-.74-.56-.77-1.03-.03-.46.21-.9.61-1.12l64.1-35.09c.41-.23.92-.19,1.29.1.37.28.54.76.43,1.22l-14.21,58.88c-.09.36-.34.66-.69.81-.15.06-.31.1-.47.1ZM441.33,231.25l22.09,8.23c.06.02.12.05.18.08l24,13.87,13.21-54.74-59.48,32.56Z"/>
    <path class="st17" d="M463.57,241.63c-.28,0-.56-.1-.79-.3-.49-.43-.54-1.18-.1-1.67l38.06-42.99c.43-.49,1.18-.54,1.67-.1.49.43.54,1.18.1,1.67l-38.06,42.99c-.23.26-.56.4-.89.4Z"/>
    <path class="st17" d="M471.27,257.23s-.09,0-.14,0c-.4-.05-.75-.29-.93-.66l-7.28-14.85c-.29-.59-.05-1.3.54-1.59.59-.29,1.3-.05,1.59.54l6.47,13.2,4.76-5.76c.42-.5,1.16-.58,1.67-.16.5.42.58,1.16.16,1.67l-5.93,7.18c-.23.27-.56.43-.91.43Z"/>
  </g>
</svg>