<?xml version="1.0" encoding="UTF-8"?>
<svg id="Camada_1" data-name="Camada 1" xmlns="http://www.w3.org/2000/svg" viewBox="0 0 1080 1080">
  <defs>
    <style>
      .cls-1 {
        fill: #173191;
      }

      .cls-2 {
        fill: #c8dffc;
      }

      .cls-3 {
        fill: #042b93;
      }

      .cls-4 {
        fill: #0a2794;
      }

      .cls-5 {
        fill: #0b278c;
      }

      .cls-6 {
        fill: #092d93;
      }

      .cls-7 {
        fill: #042495;
      }

      .cls-8 {
        fill: #052a92;
      }

      .cls-9 {
        fill: #0d2993;
      }

      .cls-10 {
        fill: #0c2a97;
      }

      .cls-11 {
        fill: #0a2693;
      }

      .cls-12 {
        fill: #0a258d;
      }

      .cls-13 {
        fill: #0a2389;
      }

      .cls-14 {
        fill: #0c2590;
      }

      .cls-15 {
        fill: #4395fd;
      }

      .cls-16 {
        fill: #103490;
      }

      .cls-17 {
        fill: #19309e;
      }

      .cls-18 {
        fill: #08248f;
      }

      .cls-19 {
        fill: #102d94;
      }

      .cls-20 {
        fill: #082692;
      }

      .cls-21 {
        fill: #0b228e;
      }

      .cls-22 {
        fill: #0b258e;
      }

      .cls-23 {
        fill: #1d2e93;
      }

      .cls-24 {
        fill: #152f8a;
      }

      .cls-25 {
        fill: #4394fd;
      }

      .cls-26 {
        fill: #002794;
      }

      .cls-27 {
        fill: #0b2592;
      }

      .cls-28 {
        fill: #032990;
      }

      .cls-29 {
        fill: #0b2e98;
      }

      .cls-30 {
        fill: #0c2691;
      }

      .cls-31 {
        fill: #0a278e;
      }

      .cls-32 {
        fill: #092690;
      }
    </style>
  </defs>
  <path class="cls-26" d="M644.46,350.52c-.19,15.7-1.7,30.65-6.2,45.2-2.06,9.33-5.45,19.24-10.13,27.72l-3.38,6.15c-2.8-3.36-5.77-7.34-8.63-11.96-4.04-6.51-6.88-12.67-8.88-17.93.51-1.45,1-2.9,1.56-4.34,3.46-8.89,5.58-18.27,6.82-27.64,5.07-38.33-5.3-76.61-29-107.17l-9.01-10.62-17.12-15.02c-17.95-13.03-38.84-21.25-61.6-21.21l-129.67.22c-64.47,1.22-115.86,52.37-117.72,116.4l.06,38.04c.1,62.05,56.55,118.43,118.35,118.99l44.1.4,80.44.14c16.14.03,30.9-4.7,45.15-11.71,13.26-6.94,24.6-15.49,35.51-26.6,5,8.89,9.73,16.4,16.09,24.01-23.43,23.04-59.71,42.62-92.27,42.65l-128.92.09c-25.05.02-48.06-7.4-69.6-18.57l-37.13,17.07-25.66,12.25c-3.08,1.47-6.82-.81-8.34-2.63-1.9-2.28-2.25-6.25-.44-9.15,10.78-17.14,20.38-34.48,27.72-53.94-20.89-26.02-34.73-57.21-34.77-90.74l-.05-44.18c1.78-52.27,31.74-99.57,77.71-124.36,18.45-9.95,38.7-16.76,60.01-16.77l149.33-.09c30.89-.02,70.43,21.33,89.3,44.12l8.26,9.98c8.74,10.55,15.56,22.36,21.72,35.21,11.46,23.89,16.7,49.36,16.39,75.99Z"/>
  <path class="cls-15" d="M899.96,513.47c2.26,3.69,3.49,7.62.58,11.1-2.21,2.66-6.52,3.63-10.36,1.73l-29.47-14.57-29.17-13.25c-19.09,10.68-40.13,17.94-62.56,17.93l-57.1-.03c-33.97-.02-66.15-13.79-91.17-35.56-7.44-6.48-14.06-13.51-20.16-21.23-6.55-8.3-12.07-17.33-16.87-26.81-7.94-15.68-13.23-32.66-16.08-50.03-3.65-22.3-3.4-52.96,3.91-76.7.01-.06.03-.12.05-.18.7-2.18,1.45-4.35,2.26-6.49.94-2.5,1.96-4.98,3.06-7.43l2.14-.8c5.52,1.81,18.25,9.98,22.72,13.73l-.19,2.28c-1.87,4.24-4.13,10.12-5.9,17.35-.57,2.31-2.61,11-3.01,24.78-.24,7.97-.53,20.98,3.2,37.38,1.29,5.68,5.15,20.89,15.17,38.25,5.15,8.93,15.64,26.68,35.91,41.33,26.41,19.09,54.19,21.89,67,22.32l55.1-.2c26.33-1.14,50.47-12.32,69.94-29.87,26.79-24.17,41.13-58.79,40.95-94.85l-.18-36.19c-1.39-33.72-15.73-65.39-41.2-87.41-18.78-16.23-41.51-27.44-66.54-27.32l-58.09.28c-31.06,1.52-58.64,16.41-80.53,37.98-4.99-8.59-9.77-16.21-15.7-23.31,30.36-29.01,69.51-44.09,111.22-42.83l48.09-.56c33.41-.39,70.88,20.73,93.24,46.12,22.42,25.47,36.06,57.84,37.42,92l.05,51.22c.04,32.35-13.25,62.57-33.2,87.94,6.12,18.74,15.37,35.35,25.47,51.9Z"/>
  <path class="cls-15" d="M800.39,422.52l-93.3.13c-6.43,0-9.88-6.4-9.95-11.58-.08-5.34,3.77-11.89,10.27-11.89l92.31-.07c6.19,0,10.13,5.96,10.46,11.04.32,4.9-2.99,12.36-9.78,12.37Z"/>
  <path class="cls-25" d="M798.26,377.15l-90.85-.12c-6.58,0-10.54-6.58-10.35-11.9.2-5.84,4.22-11.59,10.95-11.6l89.9-.1c7.12,0,12.06,5.13,12.25,11.63.17,5.9-4.51,12.09-11.89,12.08Z"/>
  <path class="cls-25" d="M800.4,331.57l-92.39.2c-6.37.01-10.52-5.63-10.89-10.9-.38-5.3,3.33-12.54,9.84-12.54l92.98-.05c5.89,0,9.62,6.13,10.13,10.86.52,4.77-2.99,12.41-9.66,12.43Z"/>
  <path class="cls-2" d="M571.56,305.87c.69-2.23,1.44-4.4,2.26-6.49-.81,2.14-1.56,4.31-2.26,6.49Z"/>
  <path class="cls-16" d="M863.76,813.81l-260.6-.04c-1.62,0-1.79-2.82-1.17-3.61.52-.66,1.09-1.56,3.2-1.56h258.52c2.37.01,3.28,1.15,3.31,2.47.03,1.65-.88,2.75-3.26,2.75Z"/>
  <path class="cls-16" d="M532.97,813.72l-256.76.05c-1.88,0-2.09-1.9-1.95-2.61.22-1.14.88-2.47,3-2.47l253.49-.14c1.93,0,2.77.61,3.45,1.07.77.52,1.11,4.1-1.24,4.1Z"/>
  <path class="cls-25" d="M566,798.22c7.88-1.31,13.96,4.69,14.88,11.02,1.12,7.75-3.85,13.68-10.96,14.77-7.28,1.11-13.67-3.25-14.94-10.19-1.3-7.08,3.14-14.29,11.02-15.6Z"/>
  <path class="cls-24" d="M625.57,883.21c-1.13.6-2.87.55-4.43.15l-.1-30.69-10.94-.26c-.85-.02-.75-3.68.02-3.68l25.62.1c1.51,0,1.56,3.64.45,3.66l-10.58.22-.05,30.49Z"/>
  <path class="cls-10" d="M776.03,881.08l-8.3,4.2c1.94,1.07,4.38,1.74,4.69,3.55.43,2.5-1.8,4.25-3.4,4.62-2.29.54-6.45.8-6.03-3.21,2.04,1.31,5.83,1.73,6.22-1.11-2.5-.32-3.84-3.54-4.92-4.84-3.86-2.25-8.22-5.05-8.93-10.34-.77-5.73,1.21-11.27,5.79-13.94,5.12-2.99,11.95-2.29,15.86,2.51.53.65-2.19,2.87-2.87,2.22-2.97-2.83-6.59-3.53-9.64-2.2-3.52,1.54-5.1,4.92-4.96,9.01.12,3.39,1.56,6.33,4.1,7.8,6.11,3.54,10.09-2.8,12.3-1.34.77.51,1.66,2.26.11,3.05Z"/>
  <path class="cls-31" d="M742.32,859.12c.03-.94,3.82-.77,3.81.24l-.2,23.95c-1.35,1.04-4.26-.31-4.8-2.09-3.19,2.77-6.46,3.45-9.97,2.6s-6.42-4.01-6.42-8.24v-16.8s4.07.02,4.07.02l.27,16.59c.06,3.51,3.36,5.25,6.28,5.03s6.45-2.31,6.54-5.89l.41-15.42Z"/>
  <path class="cls-14" d="M864.75,881.86c-5.49,3.79-13.08,2.55-17.44-1.47,2.06-6.29,6.13,2.25,13.28-.25,1.43-.5,2.44-1.95,2.43-3.11,0-1.22-.92-2.71-2.45-3.17l-7.63-2.29c-2.59-.78-4.24-2.62-4.61-4.85-.41-2.47.46-5.33,3.05-6.79,7.17-4.03,17.51.63,13.8,3.42-1.91,1.43-4.22-2.39-9.23-1.54-1.47.25-4.15,2.03-3.4,4.02,1.58,4.22,11.37,2.57,14.02,7.8,1.33,2.62.99,6.29-1.82,8.23Z"/>
  <path class="cls-30" d="M412.88,882.19c-5.11,3.49-12.54,2.16-16.66-1.77-.17-1,1.64-2.8,2.52-2.63,3.15,2.18,6.83,3.76,10.68,2.25,1.46-.57,2.38-1.74,2.3-2.91s-.9-2.64-2.36-3.09l-7.54-2.34c-2.68-.83-4.41-2.69-4.8-4.81-.52-2.84.51-5.56,3.31-7.08,4.61-2.5,10.64-1.66,14.64,1.56-.09,1.21-1.36,2.43-2.39,2.96-2.64-2.33-6.2-3.37-9.72-1.92-1.24.51-1.79,1.68-1.8,2.65,0,1.2.7,2.65,2.29,3.12l7.65,2.25c2.67.79,4.35,2.7,4.79,4.9.47,2.39-.15,4.98-2.91,6.87Z"/>
  <path class="cls-21" d="M437.16,883.36c-5.08,1.7-10.57.63-14.37-2.84-.55-.51,1.3-3.08,1.93-2.7,3.47,2.24,7.59,3.86,11.5,2.04,1.2-.56,1.94-1.89,1.92-2.8s-.7-2.37-1.98-2.78l-8.24-2.62c-2.6-.83-4.38-2.6-4.68-4.88s.3-4.96,2.57-6.39c4.8-3.04,11.04-2.49,15.63.89-.41,1.5-1.02,2.23-1.91,3.2-2.87-2.16-6.3-3.77-9.92-2.26-1.27.53-2.3,1.9-2.34,2.86-.04,1.11.88,2.57,2.25,2.98l7.59,2.28c2.96.89,4.97,3.15,5.1,5.75.16,3.11-1.32,6.04-5.07,7.3Z"/>
  <path class="cls-27" d="M327.75,882.83c-5.46,2.46-11.53,1.29-15.78-2.47.49-1.07,1.25-1.79,2.34-2.64,3.13,2.46,7.1,3.71,11.08,2.31,1.36-.48,2.23-1.96,2.22-2.98,0-1.11-.83-2.54-2.25-2.98l-8.38-2.58c-2.32-.71-3.83-2.87-4.13-4.56-.47-2.63.46-5.13,2.9-6.73,4.29-2.82,10.62-2.48,14.52,1.03,1.01.91-.29,1.97-.77,2.36-.92.75-1.74.61-3.09-.56-2.78-2.42-9.43-1.94-9.36,2.42.08,4.82,12.22,2.64,14.35,9.14.93,2.83-.11,6.64-3.64,8.23Z"/>
  <path class="cls-22" d="M354.38,882.62c-5.05,2.74-11.63,1.76-15.67-1.95-.57-.52.78-2.35,1.28-2.54,2.09-.78,5.99,4.59,12.22,1.65,1.14-.54,1.69-1.89,1.68-2.74-.01-1.24-.79-2.64-2.33-3.1l-6.92-2.06c-2.88-.86-5.01-2.6-5.34-5.13s.41-5.4,3.07-6.91c4.51-2.57,10.83-1.86,14.55,1.57-1.24,5.39-4.16-.31-10.12.37-1.35.15-4.03,1.55-3.43,3.87,1.13,4.34,12.35,2.86,14.33,8.73,1.01,3,.08,6.39-3.31,8.23Z"/>
  <path class="cls-1" d="M497.15,862.2c-5.27-.69-8.63,2.76-8.73,7.29l-.29,13.94c-1.69.26-2.68.22-4.13-.06l.04-24.37c1.13-.48,2.37-.32,3.06.07s1.13,1.42,1.69,2.92c2.49-2.96,4.66-3.89,8.53-3.53.22.95.43,2.25-.17,3.75Z"/>
  <path class="cls-19" d="M653.93,861.84c-4.5.66-8.39,2.52-8.49,7.07l-.32,14.5c-1.62.27-2.68.26-4.15,0l.03-24.43c1.29-.42,2.47-.34,3.24-.02s1.19,1.75,1.54,3.19c2.5-3.01,4.82-4.17,8.12-3.52.67.13.83,3.09.03,3.21Z"/>
  <path class="cls-17" d="M803.32,848.66c2.55,1.39.33,3.75-.8,4.35-4.05,2.13-8.25-2.06-9.07-1.59l-3.56,2.03c-1.86-.67-.69-3.35.47-4.08,4.6-2.91,7.94,1.8,9.08,1.23l3.89-1.94Z"/>
  <path class="cls-7" d="M509.94,858.67h-4.98s-.06,22.95-.06,22.95c0,1.07.42,1.77,1.03,1.9l3.01.03c.65-.13,1.07-.85,1.07-1.94l-.07-22.95Z"/>
  <path class="cls-23" d="M505.11,849.44c1.12-1.58,2.75-1.53,3.88-.53.82.72,1.45,2.09.42,3.59-.51.74-1.9,1.2-2.88.91-1.3-.38-2.67-2.21-1.42-3.97Z"/>
  <path class="cls-28" d="M347.58,326.92l-15.67-.09c-.87,26.78-4.1,54.04-21.39,75.73l-7.54-6.32c15.53-18.71,19.01-45.21,19.17-69.4l-16.22-.04v-9.37s16.3-.34,16.3-.34l.35-20.74,9.96-.12-.17,21.11,24.52.14c.04,23.77-.29,46.67-2.73,70.03-.5,4.76-2.37,9.72-6.82,11.4-5.53,2.08-11.46,1.41-17.28.83l-2.41-9.73c5.19.47,9.48,1.56,14.2.35,2.31-.59,2.77-3.73,3.01-5.95,2.11-19.26,2.21-37.99,2.73-57.51Z"/>
  <path class="cls-8" d="M466.68,319.08l-9.27-.02-.33-6.92-27.15.02c-.39-2.51-.48-4.8-.08-8.03l27.29.02.54-7.74c3.32-.6,6.15-.55,9.01,0l-.05,7.67,27.78-.03c1.18-2.6.53-5.18.89-8.07l9.45.39c-.21,3.13-.35,5.4.19,7.74l25.97-.02c.77,3.21.65,5.61.02,8.04l-26.28-.15-.02,6.68-9.28.39-.46-6.88-27.95-.04c-.59,2.52-.48,3.98-.27,6.95Z"/>
  <path class="cls-6" d="M497.64,401.66c-4.23,1.31-8.41.91-12.53.7l-2.1-7.84c3.84.4,7.09,1,10.92-.1l.25-34.35,7.8-.22v34.71c.01,2.83-1.16,6.1-4.34,7.09Z"/>
  <path class="cls-29" d="M470.97,396.61c-1.66-1.98-2.5-4.38-3.35-7.04l21.91-9.9c1.54,1.44,2.43,3.96,2.16,6.5l-20.72,10.44Z"/>
  <path class="cls-8" d="M520.77,369.42c2.82,2.21,5,4.27,8.24,5.75l4.98-6.41c-5.85-3.29-10.98-6.44-14.55-11.89l12.21-.3.02-6.92-18.07-.37-4.14-8.05,18.49-.13c.71-1.32,1.12-5.2-.02-6.27-3.11-1.51-6.47-.53-10.07-.62l6.34-10.64-8.04-2.79-6.92,13.17-10.43.27,3.2-12.24-8.13-1.4-3.41,13.45c-2.43.37-4.52.4-6.55.12,3.61-1.89-.86-7.97-5.05-13.35l-6.05,2.97,5.69,10.18c-2.81.59-5.12.09-7.95-.05-.4,2.61-.37,4.71-.04,7.31l17.38.27-4.02,8-16.77.17v7.03s12.3.48,12.3.48c-4.39,5.63-9.4,9.03-14.95,12.54l-.08-46.73h-29.45s-.07,39.6-.07,39.6c-.71,12.72-1.72,25.68-8.79,35.68l7.73,4.74c5.27-10.05,7.42-20.18,8.62-30.85l13.92.2-.15,21.26c-3.7,1.45-7.1.75-11.3.21l1.66,8.26c9.56,1.24,17.79.47,17.82-7.48l.1-24.34c2.49,1.12,3.1,3.21,4.54,4.71,3.34-.89,5.12-2.99,8.06-4.71l7.69,9.72c2.25-1.09,3.74-1.85,5.59-3.42-2.14-4.13-4.61-7.44-8.32-10.57l6.76-9.29,21.39.31c1.69,2.79,3.2,4.92,5.55,7l-11.37,11.99c2.24,1.07,3.13,1.69,3.53,3.35-2.33.24-5.03,4.35-3.83,5.69,7.62,4.67,15.25,8.66,21.49,14.52l5.88-6.33-21.64-13.14,10.96-10.64ZM456.2,330.53l.2,12.48-13.14.07-.2-12.54h13.15ZM442.99,364.39v-13.61s13.11-.02,13.11-.02l.36,13.23-13.48.4ZM492.69,349.49c1.16-2.81,1.92-5.3,3.72-7.61,1.02-1.32,4.97-1.07,5.7.33l3.78,7.3-13.2-.02Z"/>
  <path class="cls-3" d="M406.98,311.27l-39.83-.14-.12,90.39c3.4.71,6.43.52,9.56.13l.14-8.44,20.38.2.27,7.66,9.65.1-.07-89.89ZM376.46,383.91l.08-63.47h20.8s.07,63.15.07,63.15l-20.96.31Z"/>
  <path class="cls-28" d="M409.05,614.81l-35.98-.21c-1.99,61.48-9.42,124.06-49.11,173.86l-17.3-14.5c35.64-42.95,43.64-103.8,44.01-159.33l-37.23-.08-.03-21.51,37.44-.79.8-47.61,22.87-.27-.39,48.48,56.29.32c.1,54.57-.66,107.16-6.27,160.78-1.14,10.92-5.44,22.32-15.67,26.17-12.7,4.79-26.3,3.25-39.68,1.91l-5.53-22.33c11.92,1.08,21.76,3.58,32.6.81,5.3-1.36,6.35-8.57,6.91-13.67,4.85-44.22,5.07-87.22,6.27-132.02Z"/>
  <path class="cls-8" d="M682.47,596.83l-21.27-.05-.76-15.89-62.33.05c-.89-5.75-1.1-11.02-.18-18.44l62.66.05,1.25-17.78c7.62-1.38,14.11-1.26,20.68,0l-.11,17.61,63.77-.06c2.72-5.97,1.22-11.89,2.05-18.52l21.69.91c-.48,7.18-.8,12.4.43,17.77l59.61-.04c1.76,7.37,1.5,12.88.05,18.46l-60.33-.35-.04,15.33-21.3.89-1.06-15.79-64.17-.09c-1.37,5.78-1.09,9.14-.62,15.95Z"/>
  <path class="cls-6" d="M753.56,786.42c-9.71,3.01-19.32,2.1-28.77,1.61l-4.83-17.99c8.81.91,16.27,2.29,25.07-.23l.58-78.85,17.91-.5.02,79.69c0,6.5-2.68,14.01-9.99,16.28Z"/>
  <path class="cls-29" d="M692.32,774.82c-3.8-4.55-5.75-10.05-7.69-16.16l50.29-22.72c3.54,3.31,5.58,9.09,4.95,14.91l-47.56,23.96Z"/>
  <path class="cls-8" d="M806.65,712.41c6.48,5.07,11.48,9.81,18.92,13.2l11.44-14.72c-13.44-7.54-25.21-14.78-33.4-27.3l28.02-.69.04-15.88-41.49-.85-9.51-18.49,42.44-.29c1.62-3.03,2.57-11.93-.04-14.39-7.15-3.46-14.86-1.22-23.13-1.43l14.56-24.44-18.45-6.41-15.88,30.23-23.95.61,7.36-28.11-18.66-3.22-7.83,30.88c-5.57.85-10.38.93-15.05.29,8.29-4.34-1.97-18.29-11.6-30.65l-13.9,6.81,13.07,23.36c-6.46,1.34-11.75.21-18.26-.11-.91,5.99-.86,10.82-.09,16.78l39.9.61-9.22,18.36-38.5.38v16.15s28.25,1.1,28.25,1.1c-10.08,12.94-21.59,20.72-34.32,28.8l-.19-107.29-67.62.03-.17,90.89c-1.62,29.21-3.95,58.97-20.19,81.92l17.74,10.88c12.1-23.06,17.03-46.32,19.79-70.82l31.97.45-.34,48.8c-8.5,3.32-16.29,1.72-25.95.49l3.82,18.95c21.96,2.85,40.84,1.07,40.92-17.17l.23-55.89c5.71,2.56,7.13,7.36,10.41,10.82,7.68-2.05,11.74-6.87,18.5-10.81l17.65,22.32c5.16-2.5,8.59-4.25,12.84-7.85-4.9-9.48-10.58-17.08-19.09-24.27l15.53-21.32,49.12.71c3.88,6.41,7.35,11.3,12.74,16.07l-26.1,27.53c5.15,2.46,7.2,3.89,8.11,7.7-5.34.55-11.56,9.99-8.78,13.07,17.5,10.72,35.02,19.89,49.34,33.33l13.5-14.53-49.67-30.17,25.17-24.43ZM658.42,623.11l.45,28.66-30.18.16-.47-28.8,30.2-.02ZM628.1,700.84l.03-31.25,30.08-.04.84,30.38-30.94.91ZM742.2,666.64c2.67-6.45,4.41-12.17,8.54-17.48,2.35-3.02,11.42-2.46,13.08.75l8.68,16.76-30.3-.03Z"/>
  <path class="cls-3" d="M545.42,578.89l-91.43-.32-.27,207.51c7.8,1.64,14.77,1.19,21.95.31l.33-19.39,46.79.46.63,17.58,22.16.22-.16-206.38ZM475.34,745.66l.19-145.71h47.76s.16,144.99.16,144.99l-48.12.72Z"/>
  <path class="cls-13" d="M291.77,849.73c-.61-1.42-4.34-1.95-5.01-.37l-14.01,33.24c.7,1.6,4.14,1.42,4.88-.25l3.48-7.89,16.81.15c1.39,3.55,1.79,6.13,3.54,8.51.57.78,3.26.84,4.76.03l-14.45-33.43ZM282.71,870.42l6.58-16.26,6.62,16.17-13.2.08Z"/>
  <path class="cls-5" d="M710.23,848.63l-.51,13.02c-3.9-3.69-9.24-4.25-13.95-1.86-3.72,1.89-5.88,6.85-5.78,11.71.1,5.16,2.54,9.66,6.92,11.56,4.28,1.86,9.26,1.34,12.58-2.42.43,2.01,1.15,2.64,1.97,2.96.87.33,2.62.1,2.62-1.03l.09-34.09c-.39-.92-3.91-.78-3.95.16ZM710.18,871.54c-.25,5.04-2.67,8.92-7.71,8.95-4.65.03-8.09-4.01-8.16-9.07-.07-4.95,2.85-9.32,7.32-9.45,5.74-.17,8.83,3.92,8.55,9.57Z"/>
  <path class="cls-9" d="M674.76,858.77c-4.46-.91-9.53-.23-13.11,2.76-.72.6,1.44,3.35,2.1,2.87,2.6-1.88,4.92-2.76,8.06-2.5,3.49.29,6.25,2.79,5.33,7.17-3.89-.59-7.44-1.21-11.38-.16-4.16,1.1-5.95,4.67-5.68,8.02.27,3.28,2.81,6.22,6.51,6.94,3.71.73,6.93-.54,10.23-2.44.61,1.44,2.9,2.7,4.27,1.92l.3-16.4c.07-3.96-2.74-7.39-6.63-8.18ZM675.65,878.61c-1.68,1.7-3.75,2.37-6.7,2.04-2.42-.27-4.03-1.75-4.41-3.65-.47-2.38.92-4.62,3.83-5.19,2.29-.44,6.09-1.14,8.25.37,1.74,1.21.27,5.17-.98,6.43Z"/>
  <path class="cls-4" d="M832.33,858.62c-5.9-1.32-11.78,1.22-14.29,6.95-2.37,5.41-1.18,12.16,3.36,15.84,7.14,5.8,19.99.71,17.13-2.91-1.93-2.44-6.12,4.59-12.84.97-2.01-1.09-4.34-3.37-4.56-7.02l19.65.02c.6-6.36-2.89-12.62-8.45-13.86ZM821.17,869.05c.63-4.07,3.81-7.09,7.38-7.28,4.13-.23,7.72,2.79,8.13,7.29h-15.51Z"/>
  <path class="cls-12" d="M534.32,859.21c-4.87-1.85-10.28-.87-14.4,2.47.39,1.14.88,2.11,2.08,2.94,4.62-3.95,10.76-3.79,12.7-.27.71,1.28,1.12,2.93.55,4.72-8.16-1.66-15.4-.5-16.79,5.53-.49,2.12-.05,4.96,1.77,6.68,4.19,3.98,10.03,3.56,14.61.06.91,1.84,3.52,2.9,4.86,1.89v-15.59c0-3.78-1.89-7.1-5.38-8.43ZM533.99,878.22c-1.65,2.01-4.11,2.83-7.02,2.37-2.4-.37-3.9-1.7-4.19-3.63-.35-2.26.78-4.49,3.61-5.15,2.18-.51,6.16-1.25,8.45.57,1.76,1.41.16,4.61-.85,5.83Z"/>
  <path class="cls-32" d="M587.81,872.45c.86-6.08-2.41-12.03-7.67-13.57-5.56-1.63-11.35.4-14.23,5.64-2.92,5.32-2.13,12.34,2.21,16.26,7.53,6.8,18.42,1.18,18.49-.74.03-.7-1.1-1.77-1.65-2.1-1.1-.66-5.6,4.36-11.66,1.78-2.36-1-4.85-3.89-4.36-7.19l18.87-.08ZM568.65,869.07c.7-4.86,4.01-7.19,7.87-7.29,3.59-.09,6.89,2.38,7.26,7.26l-15.13.02Z"/>
  <path class="cls-18" d="M389.04,872.35c.97-4.98-1.24-9.77-5.18-12.32-3.99-2.59-9.49-2.27-13.66.9-6.66,5.08-6.65,15.98.34,20.92,8.08,5.72,20.76-1.02,16.31-3.7-2.01-1.21-6.03,4.49-12.51,1.54-2.32-1.05-4.68-3.76-4.33-7.12l19.02-.23ZM369.91,869.21c0-3.85,2.99-7.04,6.68-7.38,3.72-.34,7.46,1.11,8.63,7.03l-15.31.34Z"/>
  <path class="cls-11" d="M474.48,867.28c-1.9-6.54-9.17-10.72-16.58-8.26-7.64,2.54-10,10.27-7.43,17.35,2.23,6.14,9.37,9.18,15.96,7.03,6.74-2.2,10.05-9.27,8.05-16.13ZM462.41,880.43c-4.9.06-8.37-3.75-8.59-8.92-.21-4.98,3.03-9.18,7.73-9.53,4.87-.36,8.99,3.34,9.04,9.18.05,5.4-3.77,9.21-8.18,9.26Z"/>
  <path class="cls-20" d="M809.07,868.02c-1.59-6.95-8.58-11.35-16.15-9.09-7.87,2.35-10.73,9.7-8.5,16.6,2.07,6.42,9.21,9.78,15.35,8.2,7.43-1.91,10.85-8.94,9.3-15.71ZM795.62,880.25c-5.34-.51-7.68-5.16-7.58-9.15.1-4.35,2.41-8.39,7.27-9.06,5.51-.76,9.3,3.41,9.78,8.12.54,5.24-3.22,10.67-9.47,10.08Z"/>
</svg>