<?xml version="1.0" encoding="UTF-8"?>
<svg id="Camada_1" xmlns="http://www.w3.org/2000/svg" version="1.1" viewBox="0 0 199.44 56">
  <!-- Generator: Adobe Illustrator 30.3.0, SVG Export Plug-In . SVG Version: 2.1.3 Build 182)  -->
  <defs>
    <style>
      .st0 {
        fill: #173191;
      }

      .st1 {
        fill: #c8dffc;
      }

      .st2 {
        fill: #042b93;
      }

      .st3 {
        fill: #0a2794;
      }

      .st4 {
        fill: #0b278c;
      }

      .st5 {
        fill: #092d93;
      }

      .st6 {
        fill: #042495;
      }

      .st7 {
        fill: #052a92;
      }

      .st8 {
        fill: #0d2993;
      }

      .st9 {
        fill: #0c2a97;
      }

      .st10 {
        fill: #0a2693;
      }

      .st11 {
        fill: #0a258d;
      }

      .st12 {
        fill: #0a2389;
      }

      .st13 {
        fill: #0c2590;
      }

      .st14 {
        fill: #4395fd;
      }

      .st15 {
        fill: #19309e;
      }

      .st16 {
        fill: #08248f;
      }

      .st17 {
        fill: #102d94;
      }

      .st18 {
        fill: #082692;
      }

      .st19 {
        fill: #0b228e;
      }

      .st20 {
        fill: #0b258e;
      }

      .st21 {
        fill: #1d2e93;
      }

      .st22 {
        fill: #152f8a;
      }

      .st23 {
        fill: #4394fd;
      }

      .st24 {
        fill: #002794;
      }

      .st25 {
        fill: #0b2592;
      }

      .st26 {
        fill: #032990;
      }

      .st27 {
        fill: #0b2e98;
      }

      .st28 {
        fill: #0c2691;
      }

      .st29 {
        fill: #0a278e;
      }

      .st30 {
        fill: #092690;
      }
    </style>
  </defs>
  <path class="st24" d="M65.43,27.18c-.03,2.37-.26,4.63-.94,6.83-.31,1.41-.82,2.91-1.53,4.19l-.51.93c-.42-.51-.87-1.11-1.3-1.81-.61-.98-1.04-1.91-1.34-2.71.08-.22.15-.44.24-.66.52-1.34.84-2.76,1.03-4.18.77-5.79-.8-11.57-4.38-16.19l-1.36-1.6-2.59-2.27c-2.71-1.97-5.87-3.21-9.31-3.2l-19.59.03c-9.74.18-17.5,7.91-17.78,17.58v5.75c.02,9.37,8.55,17.89,17.89,17.98l6.66.06,12.15.02c2.44,0,4.67-.71,6.82-1.77,2-1.05,3.72-2.34,5.36-4.02.76,1.34,1.47,2.48,2.43,3.63-3.54,3.48-9.02,6.44-13.94,6.44h-19.48c-3.78.02-7.26-1.1-10.51-2.79l-5.61,2.58-3.88,1.85c-.47.22-1.03-.12-1.26-.4-.29-.34-.34-.94-.07-1.38,1.63-2.59,3.08-5.21,4.19-8.15-3.16-3.93-5.25-8.64-5.25-13.71v-6.67c.26-7.9,4.79-15.04,11.73-18.79,2.79-1.5,5.85-2.53,9.07-2.53h22.56c4.67-.02,10.64,3.21,13.49,6.65l1.25,1.51c1.32,1.59,2.35,3.38,3.28,5.32,1.73,3.61,2.52,7.46,2.48,11.48Z"/>
  <path class="st14" d="M104.02,51.8c.34.56.53,1.15.09,1.68-.33.4-.98.55-1.57.26l-4.45-2.2-4.41-2c-2.88,1.61-6.06,2.71-9.45,2.71h-8.63c-5.13,0-9.99-2.09-13.77-5.38-1.12-.98-2.12-2.04-3.05-3.21-.99-1.25-1.82-2.62-2.55-4.05-1.2-2.37-2-4.93-2.43-7.56-.55-3.37-.51-8,.59-11.59,0,0,0-.02,0-.03.11-.33.22-.66.34-.98.14-.38.3-.75.46-1.12l.32-.12c.83.27,2.76,1.51,3.43,2.07l-.03.34c-.28.64-.62,1.53-.89,2.62-.09.35-.39,1.66-.46,3.74-.04,1.2-.08,3.17.48,5.65.2.86.78,3.16,2.29,5.78.78,1.35,2.36,4.03,5.42,6.24,3.99,2.88,8.19,3.31,10.12,3.37l8.32-.03c3.98-.17,7.62-1.86,10.57-4.51,4.05-3.65,6.21-8.88,6.19-14.33l-.03-5.47c-.21-5.09-2.38-9.88-6.22-13.2-2.84-2.45-6.27-4.15-10.05-4.13l-8.78.04c-4.69.23-8.86,2.48-12.17,5.74-.75-1.3-1.48-2.45-2.37-3.52,4.59-4.38,10.5-6.66,16.8-6.47l7.26-.08c5.05-.06,10.71,3.13,14.09,6.97,3.39,3.85,5.45,8.74,5.65,13.9v7.74c.01,4.89-1.99,9.45-5.01,13.28.92,2.83,2.32,5.34,3.85,7.84Z"/>
  <path class="st14" d="M88.98,38.06l-14.09.02c-.97,0-1.49-.97-1.5-1.75s.57-1.8,1.55-1.8h13.94c.93-.01,1.53.89,1.58,1.66s-.45,1.87-1.48,1.87Z"/>
  <path class="st23" d="M88.66,31.21l-13.72-.02c-.99,0-1.59-.99-1.56-1.8.03-.88.64-1.75,1.65-1.75h13.58c1.08-.02,1.82.76,1.85,1.74.03.89-.68,1.83-1.8,1.83Z"/>
  <path class="st23" d="M88.98,24.32l-13.96.03c-.96,0-1.59-.85-1.65-1.65s.5-1.89,1.49-1.89h14.05c.89,0,1.45.92,1.53,1.63s-.45,1.87-1.46,1.88Z"/>
  <path class="st1" d="M54.41,20.44c.1-.34.22-.66.34-.98-.12.32-.24.65-.34.98Z"/>
  <path class="st26" d="M20.58,23.62h-2.37c-.13,4.03-.62,8.15-3.23,11.43l-1.14-.95c2.35-2.83,2.87-6.83,2.9-10.48h-2.45s0-1.42,0-1.42l2.46-.05.05-3.13,1.5-.02-.03,3.19,3.7.02c0,3.59-.04,7.05-.41,10.58-.08.72-.36,1.47-1.03,1.72-.84.31-1.73.21-2.61.13l-.36-1.47c.78.07,1.43.24,2.14.05.35-.09.42-.56.45-.9.32-2.91.33-5.74.41-8.69Z"/>
  <path class="st7" d="M38.57,22.44h-1.4s-.05-1.05-.05-1.05h-4.1c-.06-.38-.07-.72-.01-1.21h4.12s.08-1.17.08-1.17c.5-.09.93-.08,1.36,0v1.16s4.19,0,4.19,0c.18-.39.08-.78.14-1.22l1.43.06c-.03.47-.05.82.03,1.17h3.92c.12.48.1.84,0,1.21l-3.97-.02v1.01s-1.4.06-1.4.06l-.07-1.04h-4.22c-.09.37-.07.6-.04,1.04Z"/>
  <path class="st5" d="M43.25,34.91c-.64.2-1.27.14-1.89.11l-.32-1.18c.58.06,1.07.15,1.65-.02l.04-5.19,1.18-.03v5.24c0,.43-.17.92-.66,1.07Z"/>
  <path class="st27" d="M39.22,34.15c-.25-.3-.38-.66-.51-1.06l3.31-1.49c.23.22.37.6.33.98l-3.13,1.58Z"/>
  <path class="st7" d="M46.74,30.04c.43.33.76.65,1.24.87l.75-.97c-.88-.5-1.66-.97-2.2-1.8l1.84-.05v-1.05s-2.73-.06-2.73-.06l-.63-1.22,2.79-.02c.11-.2.17-.79,0-.95-.47-.23-.98-.08-1.52-.09l.96-1.61-1.21-.42-1.05,1.99-1.58.04.48-1.85-1.23-.21-.52,2.03c-.37.06-.68.06-.99.02.55-.29-.13-1.2-.76-2.02l-.91.45.86,1.54c-.42.09-.77.01-1.2,0-.06.39-.06.71,0,1.1l2.63.04-.61,1.21-2.53.03v1.06s1.86.07,1.86.07c-.66.85-1.42,1.36-2.26,1.89v-7.06s-4.46,0-4.46,0v5.98c-.12,1.92-.27,3.88-1.34,5.39l1.17.72c.8-1.52,1.12-3.05,1.3-4.66l2.1.03-.02,3.21c-.56.22-1.07.11-1.71.03l.25,1.25c1.44.19,2.69.07,2.69-1.13l.02-3.68c.38.17.47.48.69.71.51-.14.77-.45,1.22-.71l1.16,1.47c.34-.16.57-.28.85-.52-.32-.62-.7-1.12-1.26-1.6l1.02-1.4,3.23.05c.26.42.48.74.84,1.06l-1.72,1.81c.34.16.47.26.53.51-.35.04-.76.66-.58.86,1.15.71,2.3,1.31,3.25,2.19l.89-.96-3.27-1.98,1.66-1.61ZM36.99,24.17l.03,1.89h-1.99s-.03-1.88-.03-1.88h1.99ZM34.99,29.28v-2.06s1.98,0,1.98,0l.05,2-2.04.06ZM42.5,27.03c.18-.42.29-.8.56-1.15.15-.2.75-.16.86.05l.57,1.1h-1.99Z"/>
  <path class="st2" d="M29.55,21.26l-6.02-.02-.02,13.65c.51.11.97.08,1.44.02l.02-1.28,3.08.03.04,1.16h1.46s-.01-13.56-.01-13.56ZM24.94,32.23v-9.59s3.16,0,3.16,0v9.54s-3.16.05-3.16.05Z"/>
  <path class="st22" d="M162.78,52.29c-.16.09-.41.08-.63.02v-4.38s-1.58-.04-1.58-.04c-.12,0-.11-.53,0-.52h3.66c.22.01.22.53.06.54l-1.51.03v4.35Z"/>
  <path class="st9" d="M184.26,51.99l-1.19.6c.28.15.63.25.67.51.06.36-.26.61-.49.66-.33.08-.92.11-.86-.46.29.19.83.25.89-.16-.36-.05-.55-.51-.7-.69-.55-.32-1.17-.72-1.28-1.48-.11-.82.17-1.61.83-1.99.73-.43,1.71-.33,2.26.36.08.09-.31.41-.41.32-.42-.4-.94-.5-1.38-.31-.5.22-.73.7-.71,1.29.02.48.22.9.59,1.11.87.51,1.44-.4,1.76-.19.11.07.24.32.02.44Z"/>
  <path class="st29" d="M179.45,48.85c0-.13.54-.11.54.03l-.03,3.42c-.19.15-.61-.04-.68-.3-.46.4-.92.49-1.42.37s-.92-.57-.92-1.18v-2.4s.58,0,.58,0l.04,2.37c0,.5.48.75.9.72s.92-.33.93-.84l.06-2.2Z"/>
  <path class="st13" d="M196.92,52.1c-.78.54-1.87.36-2.49-.21.29-.9.88.32,1.89-.04.2-.07.35-.28.35-.44,0-.17-.13-.39-.35-.45l-1.09-.33c-.37-.11-.61-.37-.66-.69-.06-.35.07-.76.44-.97,1.02-.58,2.5.09,1.97.49-.27.2-.6-.34-1.32-.22-.21.04-.59.29-.49.57.23.6,1.62.37,2,1.11.19.37.14.9-.26,1.17Z"/>
  <path class="st28" d="M132.42,52.14c-.73.5-1.79.31-2.38-.25-.02-.14.23-.4.36-.38.45.31.97.54,1.52.32.21-.08.34-.25.33-.42s-.13-.38-.34-.44l-1.08-.33c-.38-.12-.63-.38-.69-.69-.07-.41.07-.79.47-1.01.66-.36,1.52-.24,2.09.22-.01.17-.19.35-.34.42-.38-.33-.88-.48-1.39-.27-.18.07-.26.24-.26.38,0,.17.1.38.33.45l1.09.32c.38.11.62.38.68.7.07.34-.02.71-.41.98Z"/>
  <path class="st19" d="M135.89,52.31c-.73.24-1.51.09-2.05-.41-.08-.07.19-.44.28-.39.49.32,1.08.55,1.64.29.17-.08.28-.27.27-.4s-.1-.34-.28-.4l-1.18-.37c-.37-.12-.62-.37-.67-.7s.04-.71.37-.91c.69-.43,1.58-.36,2.23.13-.06.21-.15.32-.27.46-.41-.31-.9-.54-1.42-.32-.18.08-.33.27-.33.41,0,.16.13.37.32.43l1.08.32c.42.13.71.45.73.82.02.44-.19.86-.72,1.04Z"/>
  <path class="st25" d="M120.27,52.24c-.78.35-1.65.18-2.25-.35.07-.15.18-.26.33-.38.45.35,1.01.53,1.58.33.19-.07.32-.28.32-.43,0-.16-.12-.36-.32-.43l-1.2-.37c-.33-.1-.55-.41-.59-.65-.07-.38.07-.73.41-.96.61-.4,1.52-.35,2.07.15.14.13-.04.28-.11.34-.13.11-.25.09-.44-.08-.4-.35-1.35-.28-1.34.35.01.69,1.74.38,2.05,1.3.13.4-.02.95-.52,1.18Z"/>
  <path class="st20" d="M124.07,52.2c-.72.39-1.66.25-2.24-.28-.08-.07.11-.34.18-.36.3-.11.86.65,1.74.24.16-.08.24-.27.24-.39,0-.18-.11-.38-.33-.44l-.99-.29c-.41-.12-.72-.37-.76-.73s.06-.77.44-.99c.64-.37,1.55-.27,2.08.22-.18.77-.59-.04-1.44.05-.19.02-.58.22-.49.55.16.62,1.76.41,2.05,1.25.14.43.01.91-.47,1.18Z"/>
  <path class="st0" d="M144.45,49.29c-.75-.1-1.23.39-1.25,1.04l-.04,1.99c-.24.04-.38.03-.59,0v-3.48c.17-.07.34-.05.44,0s.16.2.24.42c.36-.42.67-.55,1.22-.5.03.14.06.32-.02.54Z"/>
  <path class="st17" d="M166.83,49.24c-.64.09-1.2.36-1.21,1.01l-.05,2.07c-.23.04-.38.04-.59,0v-3.49c.19-.06.36-.05.47,0s.17.25.22.46c.36-.43.69-.6,1.16-.5.1.02.12.44,0,.46Z"/>
  <path class="st15" d="M188.15,47.36c.36.2.05.54-.11.62-.58.3-1.18-.29-1.29-.23l-.51.29c-.26-.1-.1-.48.07-.58.66-.42,1.13.26,1.3.18l.56-.28Z"/>
  <path class="st6" d="M146.28,48.79h-.71s0,3.28,0,3.28c0,.15.06.25.15.27h.43c.09-.01.15-.12.15-.27v-3.28Z"/>
  <path class="st21" d="M145.59,47.47c.16-.23.39-.22.55-.08.12.1.21.3.06.51-.07.11-.27.17-.41.13-.19-.05-.38-.32-.2-.57Z"/>
  <path class="st26" d="M127.67,17.29l-5.62-.03c-.31,9.61-1.47,19.39-7.67,27.17l-2.7-2.27c5.57-6.71,6.82-16.22,6.88-24.9h-5.82s0-3.38,0-3.38l5.85-.12.13-7.44,3.57-.04-.06,7.58,8.8.05c.02,8.53-.1,16.75-.98,25.13-.18,1.71-.85,3.49-2.45,4.09-1.99.75-4.11.51-6.2.3l-.86-3.49c1.86.17,3.4.56,5.09.13.83-.21.99-1.34,1.08-2.14.76-6.91.79-13.63.98-20.63Z"/>
  <path class="st7" d="M170.4,14.48h-3.32s-.12-2.49-.12-2.49h-9.74c-.14-.89-.17-1.72-.03-2.87h9.79s.19-2.77.19-2.77c1.19-.22,2.21-.2,3.23,0l-.02,2.75h9.97c.42-.94.19-1.87.32-2.9l3.39.14c-.07,1.12-.13,1.94.07,2.78h9.32c.28,1.14.23,2.01,0,2.88l-9.43-.06v2.4s-3.34.14-3.34.14l-.17-2.47h-10.03c-.21.89-.17,1.41-.1,2.48Z"/>
  <path class="st5" d="M181.51,44.11c-1.52.47-3.02.33-4.5.25l-.75-2.81c1.38.14,2.54.36,3.92-.04l.09-12.32,2.8-.08v12.45c0,1.02-.42,2.19-1.56,2.54Z"/>
  <path class="st27" d="M171.94,42.29c-.59-.71-.9-1.57-1.2-2.52l7.86-3.55c.55.52.87,1.42.77,2.33l-7.43,3.74Z"/>
  <path class="st7" d="M189.81,32.54c1.01.79,1.79,1.53,2.96,2.06l1.79-2.3c-2.1-1.18-3.94-2.31-5.22-4.27l4.38-.11v-2.48s-6.48-.13-6.48-.13l-1.49-2.89,6.63-.05c.25-.47.4-1.87,0-2.25-1.12-.54-2.32-.19-3.61-.22l2.28-3.82-2.88-1-2.48,4.72-3.74.1,1.15-4.39-2.92-.5-1.22,4.83c-.87.13-1.62.14-2.35.04,1.3-.68-.31-2.86-1.81-4.79l-2.17,1.06,2.04,3.65c-1.01.21-1.84.03-2.85-.02-.14.94-.13,1.69-.01,2.62l6.24.1-1.44,2.87-6.02.06v2.52s4.41.17,4.41.17c-1.58,2.02-3.37,3.24-5.36,4.5l-.03-16.77h-10.57s-.03,14.21-.03,14.21c-.25,4.56-.62,9.21-3.15,12.8l2.77,1.7c1.89-3.6,2.66-7.24,3.09-11.07l5,.07-.05,7.63c-1.33.52-2.55.27-4.06.08l.6,2.96c3.43.45,6.38.17,6.39-2.68l.04-8.73c.89.4,1.11,1.15,1.63,1.69,1.2-.32,1.84-1.07,2.89-1.69l2.76,3.49c.81-.39,1.34-.66,2.01-1.23-.77-1.48-1.65-2.67-2.98-3.79l2.43-3.33,7.68.11c.61,1,1.15,1.77,1.99,2.51l-4.08,4.3c.8.38,1.12.61,1.27,1.2-.83.09-1.81,1.56-1.37,2.04,2.73,1.67,5.47,3.11,7.71,5.21l2.11-2.27-7.76-4.71,3.93-3.82ZM166.64,18.59l.07,4.48-4.72.03-.07-4.5h4.72ZM161.91,30.73v-4.88s4.71,0,4.71,0l.13,4.75-4.84.14ZM179.74,25.39c.42-1.01.69-1.9,1.33-2.73.37-.47,1.78-.38,2.04.12l1.36,2.62h-4.73Z"/>
  <path class="st2" d="M148.98,11.67l-14.29-.05-.04,32.43c1.22.26,2.31.19,3.43.05l.05-3.03,7.31.07.1,2.75,3.46.03-.02-32.25ZM138.03,37.74l.03-22.77h7.46s.03,22.66.03,22.66l-7.52.11Z"/>
  <path class="st12" d="M115.13,47.51c-.09-.2-.62-.28-.71-.05l-2,4.75c.1.23.59.2.7-.04l.5-1.13,2.4.02c.2.51.26.87.5,1.22.08.11.47.12.68,0l-2.06-4.77ZM113.84,50.46l.94-2.32.95,2.31h-1.88Z"/>
  <path class="st4" d="M174.87,47.35l-.07,1.86c-.56-.53-1.32-.61-1.99-.27-.53.27-.84.98-.83,1.67.01.74.36,1.38.99,1.65.61.26,1.32.19,1.8-.35.06.29.16.38.28.42.12.05.37.01.37-.15v-4.87c-.04-.13-.54-.11-.55.02ZM174.86,50.62c-.04.72-.38,1.27-1.1,1.28-.66,0-1.15-.57-1.16-1.29,0-.71.41-1.33,1.04-1.35.82-.02,1.26.56,1.22,1.37Z"/>
  <path class="st8" d="M169.8,48.8c-.64-.13-1.36-.03-1.87.39-.1.09.2.48.3.41.37-.27.7-.39,1.15-.36.5.04.89.4.76,1.02-.55-.08-1.06-.17-1.62-.02-.59.16-.85.67-.81,1.14.04.47.4.89.93.99.53.1.99-.08,1.46-.35.09.21.41.39.61.27l.04-2.34c.01-.57-.39-1.05-.95-1.17ZM169.93,51.63c-.24.24-.54.34-.96.29-.34-.04-.58-.25-.63-.52-.07-.34.13-.66.55-.74.33-.06.87-.16,1.18.05.25.17.04.74-.14.92Z"/>
  <path class="st3" d="M192.29,48.78c-.84-.19-1.68.17-2.04.99-.34.77-.17,1.74.48,2.26,1.02.83,2.85.1,2.45-.41-.28-.35-.87.66-1.83.14-.29-.16-.62-.48-.65-1h2.8c.09-.91-.41-1.8-1.21-1.98ZM190.7,50.27c.09-.58.54-1.01,1.05-1.04.59-.03,1.1.4,1.16,1.04h-2.21Z"/>
  <path class="st11" d="M149.76,48.86c-.7-.26-1.47-.12-2.06.35.06.16.13.3.3.42.66-.56,1.54-.54,1.81-.04.1.18.16.42.08.67-1.17-.24-2.2-.07-2.4.79-.07.3,0,.71.25.95.6.57,1.43.51,2.09,0,.13.26.5.41.69.27v-2.23c0-.54-.27-1.01-.77-1.2ZM149.71,51.58c-.24.29-.59.4-1,.34-.34-.05-.56-.24-.6-.52-.05-.32.11-.64.51-.74.31-.07.88-.18,1.21.08.25.2.02.66-.12.83Z"/>
  <path class="st30" d="M157.39,50.75c.12-.87-.34-1.72-1.09-1.94-.79-.23-1.62.06-2.03.8-.42.76-.3,1.76.32,2.32,1.07.97,2.63.17,2.64-.11,0-.1-.16-.25-.23-.3-.16-.09-.8.62-1.66.25-.34-.14-.69-.55-.62-1.03h2.69ZM154.66,50.27c.1-.69.57-1.03,1.12-1.04.51-.01.98.34,1.04,1.04h-2.16Z"/>
  <path class="st16" d="M129.02,50.74c.14-.71-.18-1.39-.74-1.76-.57-.37-1.35-.32-1.95.13-.95.73-.95,2.28.05,2.99,1.15.82,2.96-.15,2.33-.53-.29-.17-.86.64-1.79.22-.33-.15-.67-.54-.62-1.02l2.72-.03ZM126.29,50.29c0-.55.43-1,.95-1.05.53-.05,1.06.16,1.23,1l-2.19.05Z"/>
  <path class="st10" d="M141.21,50.02c-.27-.93-1.31-1.53-2.37-1.18-1.09.36-1.43,1.47-1.06,2.48.32.88,1.34,1.31,2.28,1,.96-.31,1.43-1.32,1.15-2.3ZM139.49,51.89c-.7,0-1.19-.54-1.23-1.27-.03-.71.43-1.31,1.1-1.36.7-.05,1.28.48,1.29,1.31,0,.77-.54,1.31-1.17,1.32Z"/>
  <path class="st18" d="M188.97,50.12c-.23-.99-1.22-1.62-2.31-1.3-1.12.34-1.53,1.38-1.21,2.37.3.92,1.31,1.4,2.19,1.17,1.06-.27,1.55-1.28,1.33-2.24ZM187.05,51.87c-.76-.07-1.1-.74-1.08-1.31.01-.62.34-1.2,1.04-1.29.79-.11,1.33.49,1.4,1.16.08.75-.46,1.52-1.35,1.44Z"/>
</svg>