<?xml version="1.0" encoding="UTF-8"?>
<svg id="Camada_1" xmlns="http://www.w3.org/2000/svg" version="1.1" viewBox="0 0 606 266">
  <!-- Generator: Adobe Illustrator 30.3.0, SVG Export Plug-In . SVG Version: 2.1.3 Build 182)  -->
  <defs>
    <style>
      .st0 {
        fill: #3545d3;
      }

      .st0, .st1, .st2 {
        fill-rule: evenodd;
      }

      .st1 {
        fill: #fff;
      }

      .st2 {
        fill: none;
        stroke: #fff;
        stroke-width: 1.26px;
      }
    </style>
  </defs>
  <path class="st2" d="M549.53,253.28H56.47c-23.97,0-43.47-15.23-43.47-33.95V43.64c0-18.72,19.5-33.95,43.47-33.95h493.06c23.97,0,43.47,15.23,43.47,33.95v175.7c0,18.72-19.5,33.95-43.47,33.95h0Z"/>
  <path class="st1" d="M546.21,51.73l-12.42-5.31-12.42,5.31c-2.18.93-4.6-.67-4.6-3.05V8.03c0-1.83,1.48-3.31,3.3-3.31h27.44c1.82,0,3.3,1.48,3.3,3.31v40.66c0,2.37-2.42,3.98-4.6,3.05h0Z"/>
  <path class="st0" d="M542.84,23.91h-6.11l-1.89-5.81c-.33-1.03-1.79-1.03-2.12,0l-1.89,5.81h-6.11c-1.08,0-1.53,1.38-.66,2.01l4.94,3.59-1.89,5.81c-.33,1.03.84,1.88,1.72,1.25l4.94-3.59,4.94,3.59c.87.63,2.05-.22,1.71-1.25l-1.89-5.81,4.94-3.59c.87-.63.42-2.01-.66-2.01h.03Z"/>
</svg>